SplineFontDB: 3.0
FontName: Puritan-Regular
FullName: Puritan Regular
FamilyName: Puritan
Weight: Regular
Copyright: Copyright 1999-2010 Ben Weiner. Licensed under the Open Font License v1.1 (http://scripts.sil.org/OFL)
Version: 2.1
ItalicAngle: 0
UnderlinePosition: -133
UnderlineWidth: 20
Ascent: 800
Descent: 200
LayerCount: 2
Layer: 0 1 "Back"  1
Layer: 1 1 "Fore"  0
XUID: [1021 87 1747694147 3594927]
FSType: 0
OS2Version: 0
OS2_WeightWidthSlopeOnly: 0
OS2_UseTypoMetrics: 1
CreationTime: 1152189630
ModificationTime: 1290780332
PfmFamily: 81
TTFWeight: 400
TTFWidth: 5
LineGap: 0
VLineGap: 0
Panose: 0 0 4 0 0 0 0 0 0 0
OS2TypoAscent: 60
OS2TypoAOffset: 1
OS2TypoDescent: -50
OS2TypoDOffset: 1
OS2TypoLinegap: 0
OS2WinAscent: 0
OS2WinAOffset: 1
OS2WinDescent: 0
OS2WinDOffset: 1
HheadAscent: 0
HheadAOffset: 1
HheadDescent: -18
HheadDOffset: 1
OS2SubXSize: 700
OS2SubYSize: 650
OS2SubXOff: 0
OS2SubYOff: 143
OS2SupXSize: 700
OS2SupYSize: 650
OS2SupXOff: 0
OS2SupYOff: 453
OS2StrikeYSize: 50
OS2StrikeYPos: 259
OS2Vendor: 'Alts'
Lookup: 4 0 0 "'frac' Diagonal Fractions lookup 0"  {"'frac' Diagonal Fractions lookup 0 subtable"  } ['frac' ('grek' <'dflt' > 'latn' <'dflt' > ) ]
MarkAttachClasses: 1
DEI: 91125
TtTable: prep
NPUSHB
 39
 22
 22
 21
 21
 20
 20
 19
 19
 18
 18
 17
 17
 16
 16
 15
 15
 14
 14
 13
 13
 12
 12
 11
 11
 10
 10
 9
 9
 4
 4
 3
 3
 2
 2
 1
 1
 0
 0
 1
SCANTYPE
PUSHW_1
 511
SCANCTRL
RCVT
ROUND[Grey]
WCVTP
RCVT
ROUND[Grey]
WCVTP
RCVT
ROUND[Grey]
WCVTP
RCVT
ROUND[Grey]
WCVTP
RCVT
ROUND[Grey]
WCVTP
RCVT
ROUND[Grey]
WCVTP
RCVT
ROUND[Grey]
WCVTP
RCVT
ROUND[Grey]
WCVTP
RCVT
ROUND[Grey]
WCVTP
RCVT
ROUND[Grey]
WCVTP
RCVT
ROUND[Grey]
WCVTP
RCVT
ROUND[Grey]
WCVTP
RCVT
ROUND[Grey]
WCVTP
RCVT
ROUND[Grey]
WCVTP
RCVT
ROUND[Grey]
WCVTP
RCVT
ROUND[Grey]
WCVTP
RCVT
ROUND[Grey]
WCVTP
RCVT
ROUND[Grey]
WCVTP
RCVT
ROUND[Grey]
WCVTP
PUSHB_4
 6
 5
 70
 0
CALL
PUSHB_4
 8
 7
 70
 0
CALL
PUSHB_2
 5
 5
RCVT
ROUND[Grey]
WCVTP
PUSHB_2
 7
 7
RCVT
ROUND[Grey]
WCVTP
EndTTInstrs

StartChar: .notdef
Encoding: 256 -1 0
Width: 500
Flags: W
LayerCount: 2
Fore
SplineSet
63 0 m 1,0,-1
 63 860 l 1,1,-1
 438 860 l 1,2,-1
 438 0 l 1,3,-1
 63 0 l 1,0,-1
125 63 m 1,4,-1
 375 63 l 1,5,-1
 375 798 l 1,6,-1
 125 798 l 1,7,-1
 125 63 l 1,4,-1
EndSplineSet
EndChar

StartChar: exclam
Encoding: 33 33 3
Width: 235
Flags: W
LayerCount: 2
Fore
SplineSet
161 192 m 1,0,-1
 76 192 l 1,1,-1
 76 706 l 1,2,-1
 161 706 l 1,3,-1
 161 192 l 1,0,-1
113 -13 m 0,4,5
 89 -13 89 -13 73 3.5 c 128,-1,6
 57 20 57 20 57 44 c 256,7,8
 57 68 57 68 73 85 c 128,-1,9
 89 102 89 102 113 102 c 0,10,11
 138 102 138 102 155 85.5 c 128,-1,12
 172 69 172 69 172 44 c 256,13,14
 172 19 172 19 155 3 c 128,-1,15
 138 -13 138 -13 113 -13 c 0,4,5
EndSplineSet
EndChar

StartChar: quotedbl
Encoding: 34 34 4
Width: 329
Flags: W
LayerCount: 2
Fore
SplineSet
258 681 m 0,0,1
 210 681 210 681 210 625 c 0,2,3
 210 601 210 601 224.5 549 c 128,-1,4
 239 497 239 497 252 475 c 1,5,-1
 266 475 l 1,6,7
 277 497 277 497 291 549 c 128,-1,8
 305 601 305 601 305 625 c 0,9,10
 305 681 305 681 258 681 c 0,0,1
116 681 m 256,11,12
 69 681 69 681 69 625 c 0,13,14
 69 601 69 601 83.5 549 c 128,-1,15
 98 497 98 497 111 475 c 1,16,-1
 124 475 l 1,17,18
 135 497 135 497 149 549 c 128,-1,19
 163 601 163 601 163 625 c 0,20,21
 163 681 163 681 116 681 c 256,11,12
EndSplineSet
EndChar

StartChar: numbersign
Encoding: 35 35 5
Width: 536
Flags: W
LayerCount: 2
Fore
SplineSet
445 560 m 1,0,-1
 365 551 l 1,1,-1
 365 473 l 1,2,-1
 444 481 l 1,3,-1
 444 429 l 1,4,-1
 364 421 l 1,5,-1
 364 324 l 1,6,-1
 307 318 l 1,7,-1
 308 415 l 1,8,-1
 228 406 l 1,9,-1
 227 309 l 1,10,-1
 170 303 l 1,11,-1
 171 400 l 1,12,-1
 69 389 l 1,13,-1
 69 441 l 1,14,-1
 171 452 l 1,15,-1
 171 531 l 1,16,-1
 70 520 l 1,17,-1
 70 572 l 1,18,-1
 172 583 l 1,19,-1
 172 658 l 1,20,-1
 229 664 l 1,21,-1
 228 589 l 1,22,-1
 309 597 l 1,23,-1
 309 672 l 1,24,-1
 367 680 l 1,25,-1
 365 603 l 1,26,-1
 445 612 l 1,27,-1
 445 560 l 1,0,-1
228 537 m 1,28,-1
 228 458 l 1,29,-1
 308 467 l 1,30,-1
 308 545 l 1,31,-1
 228 537 l 1,28,-1
EndSplineSet
EndChar

StartChar: dollar
Encoding: 36 36 6
Width: 536
Flags: W
LayerCount: 2
Fore
SplineSet
314 -6 m 1,0,-1
 314 -100 l 1,1,-1
 225 -100 l 1,2,-1
 225 -9 l 1,3,4
 123 5 123 5 77 69 c 1,5,-1
 124 131 l 1,6,7
 181 64 181 64 263 64 c 0,8,9
 311 64 311 64 341.5 91.5 c 128,-1,10
 372 119 372 119 372 167 c 256,11,12
 372 215 372 215 325 242 c 0,13,14
 312 250 312 250 236 277 c 0,15,16
 170 301 170 301 140 330 c 0,17,18
 96 373 96 373 96 448 c 0,19,20
 96 505 96 505 132 546 c 128,-1,21
 168 587 168 587 225 601 c 1,22,-1
 225 690 l 1,23,-1
 314 690 l 1,24,-1
 314 604 l 1,25,26
 375 593 375 593 434 545 c 1,27,-1
 390 487 l 1,28,29
 334 534 334 534 275 534 c 0,30,31
 186 534 186 534 186 443 c 0,32,33
 186 390 186 390 278 359 c 0,34,35
 378 325 378 325 409 299 c 0,36,37
 457 258 457 258 457 169 c 0,38,39
 457 24 457 24 314 -6 c 1,0,-1
EndSplineSet
EndChar

StartChar: percent
Encoding: 37 37 7
Width: 536
Flags: W
LayerCount: 2
Fore
SplineSet
129 410 m 0,0,1
 77 410 77 410 49.5 444 c 128,-1,2
 22 478 22 478 22 531 c 0,3,4
 22 581 22 581 51 615.5 c 128,-1,5
 80 650 80 650 129 650 c 256,6,7
 178 650 178 650 207.5 615.5 c 128,-1,8
 237 581 237 581 237 531 c 0,9,10
 237 477 237 477 210 445 c 0,11,12
 182 410 182 410 129 410 c 0,0,1
107 -78 m 1,13,-1
 33 -53 l 1,14,-1
 410 628 l 1,15,-1
 479 602 l 1,16,-1
 107 -78 l 1,13,-1
401 -2 m 0,17,18
 346 -2 346 -2 318.5 32 c 128,-1,19
 291 66 291 66 291 122 c 0,20,21
 291 173 291 173 321 208.5 c 128,-1,22
 351 244 351 244 401 244 c 256,23,24
 451 244 451 244 480.5 208.5 c 128,-1,25
 510 173 510 173 510 122 c 0,26,27
 510 67 510 67 484 34 c 0,28,29
 455 -2 455 -2 401 -2 c 0,17,18
128 594 m 256,30,31
 106 594 106 594 93 571 c 0,32,33
 83 552 83 552 83 528 c 0,34,35
 83 505 83 505 94 486 c 0,36,37
 107 464 107 464 129 464 c 0,38,39
 175 464 175 464 175 528 c 0,40,41
 175 552 175 552 164 571 c 0,42,43
 150 594 150 594 128 594 c 256,30,31
400 186 m 256,44,45
 377 186 377 186 364 162 c 0,46,47
 354 143 354 143 354 118 c 0,48,49
 354 54 354 54 401 54 c 0,50,51
 424 54 424 54 436 76 c 0,52,53
 447 94 447 94 447 118 c 0,54,55
 447 143 447 143 436 162 c 0,56,57
 423 186 423 186 400 186 c 256,44,45
EndSplineSet
EndChar

StartChar: ampersand
Encoding: 38 38 8
Width: 555
Flags: W
LayerCount: 2
Fore
SplineSet
176 307 m 1,0,1
 98 264 98 264 98 178 c 0,2,3
 98 125 98 125 133 93 c 128,-1,4
 168 61 168 61 222 61 c 0,5,6
 288 61 288 61 333 118 c 1,7,8
 222 232 222 232 176 307 c 1,0,1
479 4 m 1,9,10
 440 17 440 17 384 66 c 1,11,12
 311 -9 311 -9 227 -9 c 0,13,14
 140 -9 140 -9 85 36 c 0,15,16
 25 85 25 85 25 169 c 0,17,18
 25 228 25 228 57 279 c 128,-1,19
 89 330 89 330 142 359 c 1,20,21
 97 421 97 421 97 484 c 0,22,23
 97 551 97 551 143.5 595.5 c 128,-1,24
 190 640 190 640 257 640 c 0,25,26
 341 640 341 640 407 568 c 1,27,-1
 360 520 l 1,28,29
 315 576 315 576 250 576 c 0,30,31
 176 576 176 576 176 499 c 0,32,33
 176 454 176 454 206 395 c 1,34,35
 259 417 259 417 317 419 c 1,36,-1
 331 358 l 1,37,38
 278 358 278 358 244 342 c 1,39,40
 322 234 322 234 373 182 c 1,41,42
 387 232 387 232 387 252 c 0,43,44
 387 275 387 275 377 315 c 1,45,-1
 447 321 l 1,46,47
 454 276 454 276 454 249 c 0,48,49
 454 194 454 194 432 129 c 1,50,51
 458 99 458 99 525 66 c 1,52,-1
 479 4 l 1,9,10
EndSplineSet
EndChar

StartChar: quotesingle
Encoding: 39 39 9
Width: 194
Flags: W
LayerCount: 2
Fore
SplineSet
109 683 m 0,0,1
 61 683 61 683 61 627 c 0,2,3
 61 601 61 601 78 548 c 0,4,5
 95 492 95 492 110 475 c 1,6,7
 126 501 126 501 140.5 549 c 128,-1,8
 155 597 155 597 155 627 c 0,9,10
 155 683 155 683 109 683 c 0,0,1
EndSplineSet
EndChar

StartChar: parenleft
Encoding: 40 40 10
Width: 318
Flags: W
LayerCount: 2
Fore
SplineSet
174 -138 m 1,0,1
 46 83 46 83 46 323 c 0,2,3
 46 574 46 574 174 783 c 1,4,-1
 237 753 l 1,5,6
 133 511 133 511 133 323 c 0,7,8
 133 208 133 208 164 100 c 0,9,10
 179 46 179 46 240 -108 c 1,11,-1
 174 -138 l 1,0,1
EndSplineSet
EndChar

StartChar: parenright
Encoding: 41 41 11
Width: 316
Flags: W
LayerCount: 2
Fore
SplineSet
145 -138 m 1,0,-1
 78 -108 l 1,1,2
 140 50 140 50 154 98 c 0,3,4
 186 206 186 206 186 319 c 0,5,6
 186 513 186 513 81 753 c 1,7,-1
 145 783 l 1,8,9
 269 580 269 580 269 326 c 0,10,11
 269 76 269 76 145 -138 c 1,0,-1
EndSplineSet
EndChar

StartChar: asterisk
Encoding: 42 42 12
Width: 275
Flags: W
LayerCount: 2
Fore
SplineSet
219 475 m 1,0,-1
 153 535 l 1,1,-1
 157 446 l 1,2,-1
 110 446 l 1,3,-1
 113 535 l 1,4,-1
 47 475 l 1,5,-1
 20 519 l 1,6,-1
 101 569 l 1,7,-1
 21 620 l 1,8,-1
 47 664 l 1,9,-1
 115 603 l 1,10,-1
 111 693 l 1,11,-1
 158 692 l 1,12,-1
 153 603 l 1,13,-1
 219 664 l 1,14,-1
 244 620 l 1,15,-1
 167 570 l 1,16,-1
 245 519 l 1,17,-1
 219 475 l 1,0,-1
EndSplineSet
EndChar

StartChar: plus
Encoding: 43 43 13
Width: 498
Flags: W
LayerCount: 2
Fore
SplineSet
279 282 m 1,0,-1
 279 96 l 1,1,-1
 218 96 l 1,2,-1
 218 282 l 1,3,-1
 53 282 l 1,4,-1
 53 345 l 1,5,-1
 218 345 l 1,6,-1
 218 521 l 1,7,-1
 279 521 l 1,8,-1
 279 345 l 1,9,-1
 446 345 l 1,10,-1
 446 282 l 1,11,-1
 279 282 l 1,0,-1
EndSplineSet
EndChar

StartChar: comma
Encoding: 44 44 14
Width: 254
Flags: W
LayerCount: 2
Fore
SplineSet
65 -72 m 1,0,-1
 109 -84 l 1,1,2
 200 35 200 35 201 120 c 1,3,-1
 104 120 l 1,4,5
 104 82 104 82 92 22 c 0,6,7
 80 -41 80 -41 65 -72 c 1,0,-1
EndSplineSet
EndChar

StartChar: hyphen
Encoding: 45 45 15
AltUni2: 002010.ffffffff.0
Width: 380
Flags: W
LayerCount: 2
Fore
SplineSet
50 267 m 1,0,-1
 50 360 l 1,1,-1
 330 360 l 1,2,-1
 330 267 l 1,3,-1
 50 267 l 1,0,-1
EndSplineSet
EndChar

StartChar: period
Encoding: 46 46 16
Width: 233
Flags: W
LayerCount: 2
Fore
SplineSet
128 -9 m 256,0,1
 99 -9 99 -9 80 13 c 128,-1,2
 61 35 61 35 61 64 c 256,3,4
 61 93 61 93 80 115 c 128,-1,5
 99 137 99 137 128 137 c 256,6,7
 157 137 157 137 175.5 115 c 128,-1,8
 194 93 194 93 194 64 c 256,9,10
 194 35 194 35 175.5 13 c 128,-1,11
 157 -9 157 -9 128 -9 c 256,0,1
EndSplineSet
EndChar

StartChar: slash
Encoding: 47 47 17
Width: 385
Flags: W
LayerCount: 2
Fore
SplineSet
93 -170 m 1,0,-1
 13 -153 l 1,1,-1
 309 704 l 1,2,-1
 390 687 l 1,3,-1
 93 -170 l 1,0,-1
EndSplineSet
EndChar

StartChar: zero
Encoding: 48 48 18
Width: 500
Flags: W
LayerCount: 2
Fore
SplineSet
482 257 m 0,0,1
 482 147 482 147 424 73 c 0,2,3
 361 -9 361 -9 251 -9 c 0,4,5
 142 -9 142 -9 78 68 c 0,6,7
 17 141 17 141 17 256 c 0,8,9
 17 365 17 365 81.5 438.5 c 128,-1,10
 146 512 146 512 250 512 c 256,11,12
 354 512 354 512 420 435 c 0,13,14
 482 363 482 363 482 257 c 0,0,1
419 257 m 0,15,16
 419 339 419 339 372 396.5 c 128,-1,17
 325 454 325 454 250 454 c 0,18,19
 173 454 173 454 124 391 c 0,20,21
 80 334 80 334 80 256 c 256,22,23
 80 178 80 178 124 118 c 0,24,25
 173 52 173 52 249 52 c 0,26,27
 333 52 333 52 379 116 c 0,28,29
 419 171 419 171 419 257 c 0,15,16
EndSplineSet
EndChar

StartChar: one
Encoding: 49 49 19
Width: 500
Flags: W
LayerCount: 2
Fore
SplineSet
329 0 m 1,0,-1
 253 0 l 1,1,-1
 253 447 l 1,2,-1
 122 447 l 1,3,-1
 122 507 l 1,4,-1
 329 507 l 1,5,-1
 329 0 l 1,0,-1
EndSplineSet
EndChar

StartChar: two
Encoding: 50 50 20
Width: 500
Flags: W
LayerCount: 2
Fore
SplineSet
85 0 m 1,0,-1
 84 77 l 1,1,-1
 249 219 l 2,2,3
 297 261 297 261 316 289 c 0,4,5
 338 323 338 323 338 363 c 0,6,7
 337 399 337 399 312 424 c 128,-1,8
 287 449 287 449 251 449 c 0,9,10
 184 449 184 449 129 377 c 1,11,-1
 83 426 l 1,12,13
 162 519 162 519 249 519 c 0,14,15
 319 519 319 519 366.5 477 c 128,-1,16
 414 435 414 435 414 364 c 0,17,18
 414 263 414 263 326 190 c 2,19,-1
 191 77 l 1,20,-1
 452 77 l 1,21,-1
 452 0 l 1,22,-1
 85 0 l 1,0,-1
EndSplineSet
EndChar

StartChar: three
Encoding: 51 51 21
Width: 500
Flags: W
LayerCount: 2
Fore
SplineSet
230 -179 m 0,0,1
 138 -179 138 -179 71 -102 c 1,2,-1
 109 -49 l 1,3,4
 173 -110 173 -110 235 -110 c 256,5,6
 297 -110 297 -110 332.5 -73.5 c 128,-1,7
 368 -37 368 -37 368 32 c 0,8,9
 368 83 368 83 338 120 c 0,10,11
 301 165 301 165 232 165 c 0,12,13
 213 165 213 165 165 166 c 1,14,-1
 165 229 l 1,15,16
 210 229 210 229 231 235 c 0,17,18
 325 264 325 264 325 358 c 0,19,20
 325 399 325 399 299.5 424.5 c 128,-1,21
 274 450 274 450 239 450 c 0,22,23
 172 450 172 450 132 381 c 1,24,-1
 81 424 l 1,25,26
 159 520 159 520 237 520 c 0,27,28
 305 520 305 520 350 481 c 0,29,30
 400 437 400 437 400 360 c 0,31,32
 400 315 400 315 380 276 c 0,33,34
 359 234 359 234 321 214 c 1,35,36
 380 202 380 202 415 149.5 c 128,-1,37
 450 97 450 97 450 32 c 0,38,39
 450 -60 450 -60 389.5 -119.5 c 128,-1,40
 329 -179 329 -179 230 -179 c 0,0,1
EndSplineSet
EndChar

StartChar: four
Encoding: 52 52 22
Width: 500
Flags: W
LayerCount: 2
Fore
SplineSet
305 367 m 1,0,-1
 118 76 l 1,1,-1
 305 76 l 1,2,-1
 305 367 l 1,0,-1
370 0 m 1,3,-1
 370 -168 l 1,4,-1
 305 -168 l 1,5,-1
 305 0 l 1,6,-1
 27 0 l 1,7,-1
 27 76 l 1,8,-1
 312 509 l 1,9,-1
 370 509 l 1,10,-1
 370 76 l 1,11,-1
 470 76 l 1,12,-1
 470 0 l 1,13,-1
 370 0 l 1,3,-1
EndSplineSet
EndChar

StartChar: five
Encoding: 53 53 23
Width: 584
Flags: W
LayerCount: 2
Fore
SplineSet
238 -179 m 0,0,1
 184 -179 184 -179 130 -151 c 128,-1,2
 76 -123 76 -123 52 -84 c 1,3,-1
 87 -38 l 1,4,5
 148 -113 148 -113 240 -113 c 0,6,7
 308 -113 308 -113 347 -61 c 0,8,9
 382 -14 382 -14 382 53 c 0,10,11
 382 116 382 116 342 157 c 0,12,13
 306 194 306 194 257 194 c 0,14,15
 201 194 201 194 139 145 c 1,16,-1
 71 175 l 1,17,-1
 71 508 l 1,18,-1
 417 508 l 1,19,-1
 417 447 l 1,20,-1
 147 447 l 1,21,-1
 147 224 l 1,22,23
 197 274 197 274 285 274 c 0,24,25
 348 274 348 274 402 218 c 0,26,27
 462 155 462 155 462 59 c 0,28,29
 462 -31 462 -31 402 -101 c 0,30,31
 337 -179 337 -179 238 -179 c 0,0,1
EndSplineSet
EndChar

StartChar: six
Encoding: 54 54 24
Width: 500
Flags: W
LayerCount: 2
Fore
SplineSet
259 372 m 0,0,1
 202 372 202 372 158 330 c 0,2,3
 111 285 111 285 111 217 c 256,4,5
 111 149 111 149 148 99 c 0,6,7
 190 42 190 42 260 42 c 0,8,9
 318 42 318 42 361 95 c 0,10,11
 402 145 402 145 402 203 c 0,12,13
 402 280 402 280 361.5 326 c 128,-1,14
 321 372 321 372 259 372 c 0,0,1
260 -22 m 0,15,16
 159 -22 159 -22 97 42 c 0,17,18
 24 117 24 117 24 267 c 0,19,20
 24 433 24 433 96 539 c 0,21,22
 177 657 177 657 320 657 c 0,23,24
 398 657 398 657 472 619 c 1,25,-1
 443 558 l 1,26,27
 379 591 379 591 319 591 c 0,28,29
 231 591 231 591 172 517.5 c 128,-1,30
 113 444 113 444 109 336 c 1,31,32
 182 440 182 440 276 440 c 0,33,34
 354 440 354 440 412 376 c 0,35,36
 474 308 474 308 474 207 c 0,37,38
 474 116 474 116 410.5 47 c 128,-1,39
 347 -22 347 -22 260 -22 c 0,15,16
EndSplineSet
EndChar

StartChar: seven
Encoding: 55 55 25
Width: 500
Flags: W
LayerCount: 2
Fore
SplineSet
450 443 m 1,0,-1
 179 -169 l 1,1,-1
 101 -147 l 1,2,-1
 364 444 l 1,3,-1
 77 444 l 1,4,-1
 77 504 l 1,5,-1
 450 504 l 1,6,-1
 450 443 l 1,0,-1
EndSplineSet
EndChar

StartChar: eight
Encoding: 56 56 26
Width: 500
Flags: W
LayerCount: 2
Fore
SplineSet
249 325 m 1,0,1
 187 291 187 291 161 266 c 0,2,3
 121 225 121 225 121 169 c 0,4,5
 121 101 121 101 170 63 c 0,6,7
 208 34 208 34 254 34 c 0,8,9
 312 34 312 34 349 70 c 128,-1,10
 386 106 386 106 386 168 c 0,11,12
 386 233 386 233 345 272 c 0,13,14
 316 299 316 299 249 325 c 1,0,1
244 608 m 0,15,16
 143 608 143 608 143 514 c 0,17,18
 143 439 143 439 242 394 c 1,19,20
 351 437 351 437 351 510 c 0,21,22
 351 608 351 608 244 608 c 0,15,16
248 -28 m 0,23,24
 165 -28 165 -28 107 20 c 0,25,26
 43 74 43 74 43 166 c 0,27,28
 43 223 43 223 76 274 c 0,29,30
 114 330 114 330 181 360 c 1,31,32
 126 395 126 395 104 422 c 0,33,34
 75 459 75 459 75 510 c 0,35,36
 75 588 75 588 130 629 c 0,37,38
 177 664 177 664 251 664 c 0,39,40
 317 664 317 664 366 626 c 0,41,42
 419 584 419 584 419 517 c 0,43,44
 419 420 419 420 311 362 c 1,45,46
 462 299 462 299 462 168 c 0,47,48
 462 84 462 84 411 32 c 0,49,50
 353 -28 353 -28 248 -28 c 0,23,24
EndSplineSet
EndChar

StartChar: nine
Encoding: 57 57 27
Width: 500
Flags: W
LayerCount: 2
Fore
SplineSet
233 446 m 0,0,1
 176 446 176 446 137 389 c 0,2,3
 101 338 101 338 101 278 c 256,4,5
 101 218 101 218 139 169 c 0,6,7
 179 115 179 115 237 115 c 0,8,9
 302 115 302 115 348 164.5 c 128,-1,10
 394 214 394 214 394 281 c 0,11,12
 394 345 394 345 349 395.5 c 128,-1,13
 304 446 304 446 233 446 c 0,0,1
222 -196 m 0,14,15
 106 -196 106 -196 33 -125 c 1,16,-1
 62 -64 l 1,17,18
 133 -130 133 -130 230 -130 c 0,19,20
 313 -130 313 -130 363 -23 c 0,21,22
 404 65 404 65 406 174 c 1,23,24
 370 110 370 110 338 84 c 0,25,26
 296 48 296 48 234 49 c 0,27,28
 145 50 145 50 85 120 c 0,29,30
 28 187 28 187 28 275 c 0,31,32
 28 373 28 373 82 439 c 0,33,34
 140 510 140 510 233 510 c 0,35,36
 327 510 327 510 395 446 c 0,37,38
 478 369 478 369 478 226 c 0,39,40
 478 71 478 71 427 -43 c 0,41,42
 359 -196 359 -196 222 -196 c 0,14,15
EndSplineSet
EndChar

StartChar: colon
Encoding: 58 58 28
Width: 244
Flags: W
LayerCount: 2
Fore
SplineSet
133 360 m 0,0,1
 105 360 105 360 85.5 382 c 128,-1,2
 66 404 66 404 66 433 c 256,3,4
 66 462 66 462 85.5 484 c 128,-1,5
 105 506 105 506 133 506 c 0,6,7
 162 506 162 506 181 484 c 128,-1,8
 200 462 200 462 200 433 c 256,9,10
 200 404 200 404 181 382 c 128,-1,11
 162 360 162 360 133 360 c 0,0,1
133 -9 m 0,12,13
 105 -9 105 -9 85.5 13 c 128,-1,14
 66 35 66 35 66 64 c 256,15,16
 66 93 66 93 85.5 115 c 128,-1,17
 105 137 105 137 133 137 c 0,18,19
 162 137 162 137 181 115 c 128,-1,20
 200 93 200 93 200 64 c 256,21,22
 200 35 200 35 181 13 c 128,-1,23
 162 -9 162 -9 133 -9 c 0,12,13
EndSplineSet
EndChar

StartChar: semicolon
Encoding: 59 59 29
Width: 254
Flags: W
LayerCount: 2
Fore
SplineSet
147 361 m 0,0,1
 118 361 118 361 98 382 c 128,-1,2
 78 403 78 403 78 432 c 256,3,4
 78 461 78 461 98 482.5 c 128,-1,5
 118 504 118 504 147 504 c 256,6,7
 176 504 176 504 194.5 482.5 c 128,-1,8
 213 461 213 461 213 432 c 256,9,10
 213 403 213 403 194 382 c 128,-1,11
 175 361 175 361 147 361 c 0,0,1
65 -72 m 1,12,-1
 109 -84 l 1,13,14
 200 35 200 35 201 120 c 1,15,-1
 104 120 l 1,16,17
 104 82 104 82 92 22 c 0,18,19
 80 -41 80 -41 65 -72 c 1,12,-1
EndSplineSet
EndChar

StartChar: less
Encoding: 60 60 30
Width: 366
Flags: W
LayerCount: 2
Fore
SplineSet
132 285 m 1,0,-1
 319 45 l 1,1,-1
 246 42 l 1,2,-1
 27 289 l 1,3,-1
 245 529 l 1,4,-1
 319 526 l 1,5,-1
 132 285 l 1,0,-1
EndSplineSet
EndChar

StartChar: equal
Encoding: 61 61 31
Width: 441
Flags: W
LayerCount: 2
Fore
SplineSet
51 287 m 1,0,-1
 51 352 l 1,1,-1
 389 352 l 1,2,-1
 389 287 l 1,3,-1
 51 287 l 1,0,-1
51 135 m 1,4,-1
 51 200 l 1,5,-1
 389 200 l 1,6,-1
 389 135 l 1,7,-1
 51 135 l 1,4,-1
EndSplineSet
EndChar

StartChar: greater
Encoding: 62 62 32
Width: 365
Flags: W
LayerCount: 2
Fore
SplineSet
99 42 m 1,0,-1
 25 45 l 1,1,-1
 212 285 l 1,2,-1
 24 526 l 1,3,-1
 99 529 l 1,4,-1
 316 289 l 1,5,-1
 99 42 l 1,0,-1
EndSplineSet
EndChar

StartChar: question
Encoding: 63 63 33
Width: 484
Flags: W
LayerCount: 2
Fore
SplineSet
343 371 m 0,0,1
 326 359 326 359 294 333 c 0,2,3
 275 317 275 317 264 289 c 0,4,5
 262 285 262 285 247 238 c 0,6,7
 245 232 245 232 249 189 c 1,8,-1
 180 189 l 1,9,10
 175 229 175 229 175 253 c 0,11,12
 175 300 175 300 195 334 c 0,13,14
 212 363 212 363 253 397.5 c 128,-1,15
 294 432 294 432 305 445 c 0,16,17
 333 477 333 477 333 509 c 0,18,19
 333 553 333 553 305 581 c 128,-1,20
 277 609 277 609 233 609 c 0,21,22
 139 609 139 609 105 505 c 1,23,-1
 38 540 l 1,24,25
 95 681 95 681 230 681 c 0,26,27
 306 681 306 681 358.5 632 c 128,-1,28
 411 583 411 583 411 508 c 0,29,30
 411 427 411 427 343 371 c 0,0,1
219 -13 m 0,31,32
 195 -13 195 -13 179 3.5 c 128,-1,33
 163 20 163 20 163 44 c 256,34,35
 163 68 163 68 179 85 c 128,-1,36
 195 102 195 102 219 102 c 0,37,38
 244 102 244 102 261 85.5 c 128,-1,39
 278 69 278 69 278 44 c 256,40,41
 278 19 278 19 261 3 c 128,-1,42
 244 -13 244 -13 219 -13 c 0,31,32
EndSplineSet
EndChar

StartChar: at
Encoding: 64 64 34
Width: 1010
Flags: W
LayerCount: 2
Fore
SplineSet
493 -232 m 0,0,1
 303 -232 303 -232 176 -91 c 0,2,3
 53 46 53 46 53 238 c 256,4,5
 53 430 53 430 187 564 c 128,-1,6
 321 698 321 698 513 698 c 0,7,8
 704 698 704 698 817 579 c 128,-1,9
 930 460 930 460 930 268 c 0,10,11
 930 162 930 162 857 80 c 0,12,13
 825 44 825 44 771 17 c 0,14,15
 714 -12 714 -12 669 -12 c 0,16,17
 630 -12 630 -12 608 19 c 0,18,19
 588 47 588 47 592 87 c 1,20,21
 517 -11 517 -11 424 -11 c 0,22,23
 271 -11 271 -11 271 200 c 0,24,25
 271 312 271 312 340 407 c 0,26,27
 417 512 417 512 529 512 c 0,28,29
 563 512 563 512 596 500 c 0,30,31
 634 485 634 485 650 461 c 1,32,-1
 653 502 l 1,33,-1
 726 502 l 1,34,-1
 662 94 l 1,35,36
 663 81 663 81 674.5 71 c 128,-1,37
 686 61 686 61 699 60 c 0,38,39
 716 59 716 59 752 81 c 0,40,41
 784 100 784 100 799 117 c 0,42,43
 822 142 822 142 841.5 188.5 c 128,-1,44
 861 235 861 235 861 268 c 0,45,46
 861 431 861 431 768 530 c 128,-1,47
 675 629 675 629 513 629 c 0,48,49
 350 629 350 629 236 515 c 128,-1,50
 122 401 122 401 122 238 c 0,51,52
 122 74 122 74 224 -42 c 0,53,54
 331 -163 331 -163 493 -163 c 0,55,56
 633 -163 633 -163 726 -123 c 0,57,58
 834 -76 834 -76 901 32 c 1,59,-1
 968 -11 l 1,60,61
 893 -137 893 -137 764 -189 c 0,62,63
 659 -232 659 -232 493 -232 c 0,0,1
638 398 m 1,64,65
 625 423 625 423 589 437 c 0,66,67
 558 450 558 450 526 450 c 0,68,69
 481 450 481 450 430 407 c 0,70,71
 354 342 354 342 354 215 c 0,72,73
 354 149 354 149 366 120 c 0,74,75
 389 64 389 64 459 64 c 0,76,77
 503 64 503 64 549 112 c 128,-1,78
 595 160 595 160 603 205 c 2,79,-1
 638 398 l 1,64,65
EndSplineSet
EndChar

StartChar: A
Encoding: 65 65 35
Width: 568
Flags: W
LayerCount: 2
Fore
SplineSet
453 -10 m 1,0,-1
 394 179 l 1,1,-1
 169 179 l 1,2,-1
 111 -10 l 1,3,-1
 29 0 l 1,4,-1
 242 654 l 1,5,-1
 322 654 l 1,6,-1
 538 4 l 1,7,-1
 453 -10 l 1,0,-1
281 551 m 1,8,-1
 190 248 l 1,9,-1
 374 248 l 1,10,-1
 281 551 l 1,8,-1
EndSplineSet
EndChar

StartChar: B
Encoding: 66 66 36
Width: 524
Flags: W
LayerCount: 2
Fore
SplineSet
266 0 m 2,0,-1
 63 2 l 1,1,-1
 63 641 l 1,2,-1
 229 644 l 2,3,4
 231 644 231 644 242 645 c 0,5,6
 256 645 l 0,7,8
 333 645 333 645 378 608 c 0,9,10
 426 568 426 568 426 492 c 0,11,12
 426 408 426 408 384 378 c 0,13,14
 362 363 362 363 318 351 c 1,15,16
 471 318 471 318 471 184 c 0,17,18
 471 94 471 94 412 45 c 0,19,20
 358 -1 358 -1 266 0 c 2,0,-1
235 585 m 0,21,22
 221 585 221 585 152 582 c 1,23,-1
 152 375 l 1,24,-1
 221 374 l 2,25,26
 275 373 275 373 309 400 c 0,27,28
 347 430 347 430 347 482 c 0,29,30
 346 585 346 585 235 585 c 0,21,22
244 312 m 2,31,-1
 152 312 l 1,32,-1
 152 67 l 1,33,-1
 246 67 l 2,34,35
 385 67 385 67 385 185 c 0,36,37
 385 243 385 243 344 277.5 c 128,-1,38
 303 312 303 312 244 312 c 2,31,-1
EndSplineSet
EndChar

StartChar: C
Encoding: 67 67 37
Width: 539
Flags: W
LayerCount: 2
Fore
SplineSet
311 -8 m 0,0,1
 175 -8 175 -8 99 96 c 0,2,3
 31 188 31 188 31 329 c 0,4,5
 31 465 31 465 102 558 c 0,6,7
 180 659 180 659 313 660 c 0,8,9
 360 660 360 660 424 639 c 0,10,11
 474 622 474 622 503 605 c 1,12,-1
 465 526 l 1,13,14
 374 582 374 582 318 582 c 0,15,16
 219 582 219 582 164 487 c 0,17,18
 121 412 121 412 121 317 c 0,19,20
 121 223 121 223 167 153 c 0,21,22
 220 72 220 72 310 72 c 0,23,24
 395 72 395 72 470 115 c 1,25,-1
 509 50 l 1,26,27
 450 17 450 17 413 6 c 0,28,29
 368 -8 368 -8 311 -8 c 0,0,1
EndSplineSet
EndChar

StartChar: D
Encoding: 68 68 38
Width: 565
Flags: W
LayerCount: 2
Fore
SplineSet
215 -2 m 0,0,1
 190 -2 190 -2 139 0 c 128,-1,2
 88 2 88 2 63 2 c 1,3,-1
 63 644 l 1,4,5
 132 647 132 647 209 647 c 0,6,7
 378 647 378 647 455 570 c 128,-1,8
 532 493 532 493 533 323 c 0,9,10
 534 167 534 167 452.5 82.5 c 128,-1,11
 371 -2 371 -2 215 -2 c 0,0,1
438 312 m 0,12,13
 438 583 438 583 235 583 c 0,14,15
 206 583 206 583 152 581 c 1,16,-1
 152 74 l 1,17,-1
 242 74 l 2,18,19
 337 74 337 74 390 148 c 0,20,21
 438 214 438 214 438 312 c 0,12,13
EndSplineSet
EndChar

StartChar: E
Encoding: 69 69 39
Width: 489
Flags: W
LayerCount: 2
Fore
SplineSet
152 568 m 1,0,-1
 152 375 l 1,1,-1
 404 375 l 1,2,-1
 404 300 l 1,3,-1
 152 301 l 1,4,-1
 152 76 l 1,5,-1
 419 77 l 1,6,-1
 419 0 l 1,7,-1
 63 0 l 1,8,-1
 63 640 l 1,9,-1
 422 640 l 1,10,-1
 422 568 l 1,11,-1
 152 568 l 1,0,-1
EndSplineSet
EndChar

StartChar: F
Encoding: 70 70 40
Width: 490
Flags: W
LayerCount: 2
Fore
SplineSet
152 568 m 1,0,-1
 152 375 l 1,1,-1
 406 375 l 1,2,-1
 406 300 l 1,3,-1
 152 300 l 1,4,-1
 152 0 l 1,5,-1
 63 0 l 1,6,-1
 63 640 l 1,7,-1
 423 640 l 1,8,-1
 423 568 l 1,9,-1
 152 568 l 1,0,-1
EndSplineSet
EndChar

StartChar: G
Encoding: 71 71 41
Width: 582
Flags: W
LayerCount: 2
Fore
SplineSet
519 61 m 1,0,1
 459 25 459 25 419 11 c 0,2,3
 369 -6 369 -6 305 -6 c 0,4,5
 175 -6 175 -6 100 97 c 0,6,7
 32 189 32 189 31 323 c 0,8,9
 30 445 30 445 96 544 c 0,10,11
 173 660 173 660 301 660 c 0,12,13
 349 660 349 660 407 644 c 0,14,15
 471 627 471 627 503 600 c 1,16,-1
 466 525 l 1,17,18
 383 582 383 582 310 582 c 0,19,20
 215 582 215 582 163 485 c 0,21,22
 122 409 122 409 122 317 c 256,23,24
 122 225 122 225 165 155 c 0,25,26
 216 72 216 72 302 72 c 0,27,28
 373 72 373 72 431 103 c 1,29,-1
 431 301 l 1,30,-1
 289 301 l 1,31,-1
 289 375 l 1,32,-1
 519 375 l 1,33,-1
 519 61 l 1,0,1
EndSplineSet
EndChar

StartChar: H
Encoding: 72 72 42
Width: 582
Flags: W
LayerCount: 2
Fore
SplineSet
431 0 m 1,0,-1
 431 300 l 1,1,-1
 152 300 l 1,2,-1
 152 0 l 1,3,-1
 63 0 l 1,4,-1
 63 640 l 1,5,-1
 152 640 l 1,6,-1
 152 375 l 1,7,-1
 431 375 l 1,8,-1
 431 640 l 1,9,-1
 519 640 l 1,10,-1
 519 0 l 1,11,-1
 431 0 l 1,0,-1
EndSplineSet
EndChar

StartChar: I
Encoding: 73 73 43
Width: 215
Flags: W
LayerCount: 2
Fore
SplineSet
63 0 m 1,0,-1
 63 642 l 1,1,-1
 152 642 l 1,2,-1
 152 0 l 1,3,-1
 63 0 l 1,0,-1
EndSplineSet
EndChar

StartChar: J
Encoding: 74 74 44
Width: 215
Flags: W
LayerCount: 2
Fore
SplineSet
152 69 m 2,0,1
 152 -159 152 -159 -48 -159 c 0,2,3
 -107 -159 -107 -159 -148 -109 c 1,4,-1
 -102 -42 l 1,5,6
 -69 -77 -69 -77 -35 -77 c 0,7,8
 63 -77 63 -77 63 61 c 2,9,-1
 63 638 l 1,10,-1
 152 638 l 1,11,-1
 152 69 l 2,0,1
EndSplineSet
EndChar

StartChar: K
Encoding: 75 75 45
Width: 531
Flags: W
LayerCount: 2
Fore
SplineSet
420 -21 m 1,0,1
 332 96 332 96 199 276 c 1,2,-1
 152 206 l 1,3,-1
 152 0 l 1,4,-1
 63 0 l 1,5,-1
 63 640 l 1,6,-1
 152 640 l 1,7,-1
 152 325 l 1,8,9
 313 537 313 537 402 665 c 1,10,-1
 472 615 l 1,11,12
 389 512 389 512 256 335 c 1,13,14
 297 268 297 268 389 160 c 0,15,16
 430 112 430 112 526 2 c 1,17,-1
 420 -21 l 1,0,1
EndSplineSet
EndChar

StartChar: L
Encoding: 76 76 46
Width: 501
Flags: W
LayerCount: 2
Fore
SplineSet
63 0 m 1,0,-1
 63 641 l 1,1,-1
 152 641 l 1,2,-1
 152 72 l 1,3,-1
 438 72 l 1,4,-1
 438 0 l 1,5,-1
 63 0 l 1,0,-1
EndSplineSet
EndChar

StartChar: M
Encoding: 77 77 47
Width: 793
Flags: W
LayerCount: 2
Fore
SplineSet
630 0 m 1,0,-1
 630 511 l 1,1,-1
 436 -1 l 1,2,-1
 353 -1 l 1,3,-1
 156 515 l 1,4,-1
 156 0 l 1,5,-1
 74 0 l 1,6,-1
 74 642 l 1,7,-1
 201 642 l 1,8,-1
 399 127 l 1,9,-1
 602 642 l 1,10,-1
 719 642 l 1,11,-1
 719 0 l 1,12,-1
 630 0 l 1,0,-1
EndSplineSet
EndChar

StartChar: N
Encoding: 78 78 48
Width: 582
Flags: W
LayerCount: 2
Fore
SplineSet
456 -11 m 1,0,1
 366 151 366 151 146 464 c 1,2,-1
 146 1 l 1,3,-1
 63 0 l 1,4,-1
 63 644 l 1,5,-1
 137 644 l 1,6,-1
 437 189 l 1,7,-1
 437 640 l 1,8,-1
 519 640 l 1,9,-1
 519 11 l 1,10,-1
 456 -11 l 1,0,1
EndSplineSet
EndChar

StartChar: O
Encoding: 79 79 49
Width: 644
Flags: W
LayerCount: 2
Fore
SplineSet
319 -16 m 256,0,1
 179 -16 179 -16 102 86 c 0,2,3
 32 177 32 177 32 322 c 0,4,5
 32 458 32 458 110 549 c 0,6,7
 192 646 192 646 326 646 c 0,8,9
 459 646 459 646 539 549 c 0,10,11
 613 458 613 458 613 322 c 0,12,13
 613 178 613 178 539 85 c 0,14,15
 459 -16 459 -16 319 -16 c 256,0,1
324 572 m 0,16,17
 226 572 226 572 167 489 c 0,18,19
 115 415 115 415 115 313 c 0,20,21
 115 215 115 215 167 142 c 0,22,23
 225 61 225 61 319 61 c 0,24,25
 414 61 414 61 475 141 c 0,26,27
 531 215 531 215 531 312 c 0,28,29
 531 413 531 413 479 488 c 0,30,31
 421 572 421 572 324 572 c 0,16,17
EndSplineSet
EndChar

StartChar: P
Encoding: 80 80 50
Width: 459
Flags: W
LayerCount: 2
Fore
SplineSet
244 264 m 0,0,1
 206 264 206 264 152 268 c 1,2,-1
 152 0 l 1,3,-1
 63 0 l 1,4,-1
 63 640 l 1,5,-1
 252 644 l 2,6,7
 333 646 333 646 380 593.5 c 128,-1,8
 427 541 427 541 427 459 c 0,9,10
 427 379 427 379 375 321.5 c 128,-1,11
 323 264 323 264 244 264 c 0,0,1
240 585 m 2,12,-1
 152 583 l 1,13,-1
 152 330 l 1,14,-1
 230 331 l 2,15,16
 280 332 280 332 310 370 c 0,17,18
 339 405 339 405 339 456 c 0,19,20
 339 587 339 587 240 585 c 2,12,-1
EndSplineSet
EndChar

StartChar: Q
Encoding: 81 81 51
Width: 658
Flags: W
LayerCount: 2
Fore
SplineSet
607 -70 m 1,0,-1
 485 37 l 1,1,2
 410 -16 410 -16 318 -16 c 0,3,4
 179 -16 179 -16 102 87 c 0,5,6
 31 180 31 180 31 323 c 0,7,8
 31 460 31 460 109 550 c 0,9,10
 192 646 192 646 326 646 c 0,11,12
 459 646 459 646 538 551 c 0,13,14
 612 462 612 462 612 326 c 0,15,16
 612 263 612 263 597 202 c 0,17,18
 578 127 578 127 543 92 c 1,19,-1
 660 -11 l 1,20,-1
 607 -70 l 1,0,-1
323 571 m 256,21,22
 225 571 225 571 167 489 c 0,23,24
 114 416 114 416 114 315 c 0,25,26
 114 219 114 219 165 145 c 0,27,28
 223 61 223 61 315 61 c 0,29,30
 370 61 370 61 422 93 c 1,31,-1
 347 159 l 1,32,-1
 401 217 l 1,33,-1
 478 149 l 1,34,35
 530 222 530 222 530 316 c 0,36,37
 530 418 530 418 479 490 c 0,38,39
 421 571 421 571 323 571 c 256,21,22
EndSplineSet
EndChar

StartChar: R
Encoding: 82 82 52
Width: 530
Flags: W
LayerCount: 2
Fore
SplineSet
414 -10 m 1,0,1
 363 41 363 41 296 137 c 0,2,3
 250 202 250 202 196 291 c 1,4,-1
 152 289 l 1,5,-1
 152 0 l 1,6,-1
 63 0 l 1,7,-1
 63 641 l 1,8,-1
 265 644 l 2,9,10
 440 642 440 642 438 467 c 0,11,12
 437 398 437 398 396 354 c 128,-1,13
 355 310 355 310 285 296 c 1,14,15
 318 250 318 250 393 152 c 0,16,17
 433 100 433 100 525 10 c 1,18,-1
 414 -10 l 1,0,1
239 583 m 2,19,-1
 152 581 l 1,20,-1
 152 356 l 1,21,-1
 217 356 l 2,22,23
 289 356 289 356 322.5 382.5 c 128,-1,24
 356 409 356 409 356 478 c 0,25,26
 356 586 356 586 239 583 c 2,19,-1
EndSplineSet
EndChar

StartChar: S
Encoding: 83 83 53
Width: 492
Flags: W
LayerCount: 2
Fore
SplineSet
239 -10 m 0,0,1
 182 -10 182 -10 130 10 c 0,2,3
 71 32 71 32 41 73 c 1,4,-1
 87 137 l 1,5,6
 148 66 148 66 242 66 c 0,7,8
 298 66 298 66 331 96.5 c 128,-1,9
 364 127 364 127 364 183 c 0,10,11
 364 250 364 250 285 283 c 0,12,13
 236 303 236 303 138 344 c 1,14,15
 60 393 60 393 61 495 c 0,16,17
 62 571 62 571 121 620 c 0,18,19
 176 666 176 666 254 666 c 0,20,21
 346 666 346 666 423 605 c 1,22,-1
 381 542 l 1,23,24
 328 590 328 590 254 590 c 0,25,26
 152 590 152 590 152 489 c 0,27,28
 152 426 152 426 256 391 c 0,29,30
 365 354 365 354 399 325 c 0,31,32
 450 281 450 281 450 185 c 0,33,34
 450 92 450 92 391.5 41 c 128,-1,35
 333 -10 333 -10 239 -10 c 0,0,1
EndSplineSet
EndChar

StartChar: T
Encoding: 84 84 54
Width: 536
Flags: W
LayerCount: 2
Fore
SplineSet
318 572 m 1,0,-1
 318 0 l 1,1,-1
 229 0 l 1,2,-1
 229 572 l 1,3,-1
 31 572 l 1,4,-1
 31 639 l 1,5,-1
 504 639 l 1,6,-1
 504 572 l 1,7,-1
 318 572 l 1,0,-1
EndSplineSet
EndChar

StartChar: U
Encoding: 85 85 55
Width: 571
Flags: W
LayerCount: 2
Fore
SplineSet
508 230 m 2,0,1
 508 119 508 119 447 51 c 128,-1,2
 386 -17 386 -17 277 -17 c 0,3,4
 171 -17 171 -17 115 55 c 0,5,6
 63 121 63 121 63 230 c 2,7,-1
 63 640 l 1,8,-1
 152 640 l 1,9,-1
 152 230 l 2,10,11
 152 58 152 58 279 58 c 0,12,13
 350 58 350 58 386 110 c 0,14,15
 418 155 418 155 418 230 c 2,16,-1
 418 640 l 1,17,-1
 508 640 l 1,18,-1
 508 230 l 2,0,1
EndSplineSet
EndChar

StartChar: V
Encoding: 86 86 56
Width: 548
Flags: W
LayerCount: 2
Fore
SplineSet
311 -10 m 1,0,-1
 246 -10 l 1,1,-1
 41 630 l 1,2,-1
 126 653 l 1,3,-1
 285 131 l 1,4,-1
 444 653 l 1,5,-1
 518 630 l 1,6,-1
 311 -10 l 1,0,-1
EndSplineSet
EndChar

StartChar: W
Encoding: 87 87 57
Width: 789
Flags: W
LayerCount: 2
Fore
SplineSet
591 -6 m 1,0,-1
 539 -6 l 1,1,-1
 397 459 l 1,2,-1
 255 -6 l 1,3,-1
 192 -6 l 1,4,-1
 16 626 l 1,5,-1
 103 645 l 1,6,-1
 235 146 l 1,7,-1
 370 635 l 1,8,-1
 434 635 l 1,9,-1
 565 147 l 1,10,-1
 701 645 l 1,11,-1
 769 626 l 1,12,-1
 591 -6 l 1,0,-1
EndSplineSet
EndChar

StartChar: X
Encoding: 88 88 58
Width: 552
Flags: W
LayerCount: 2
Fore
SplineSet
421 -15 m 1,0,-1
 266 263 l 1,1,-1
 127 -15 l 1,2,-1
 36 5 l 1,3,-1
 222 317 l 1,4,-1
 48 626 l 1,5,-1
 139 645 l 1,6,-1
 273 402 l 1,7,-1
 402 646 l 1,8,-1
 477 626 l 1,9,-1
 312 334 l 1,10,-1
 516 5 l 1,11,-1
 421 -15 l 1,0,-1
EndSplineSet
EndChar

StartChar: Y
Encoding: 89 89 59
Width: 503
Flags: W
LayerCount: 2
Fore
SplineSet
296 272 m 1,0,-1
 296 0 l 1,1,-1
 206 0 l 1,2,-1
 206 272 l 1,3,-1
 29 627 l 1,4,-1
 109 650 l 1,5,-1
 254 353 l 1,6,-1
 397 650 l 1,7,-1
 473 627 l 1,8,-1
 296 272 l 1,0,-1
EndSplineSet
EndChar

StartChar: Z
Encoding: 90 90 60
Width: 544
Flags: W
LayerCount: 2
Fore
SplineSet
161 76 m 1,0,-1
 478 76 l 1,1,-1
 478 0 l 1,2,-1
 70 0 l 1,3,-1
 63 77 l 1,4,-1
 385 574 l 1,5,-1
 80 572 l 1,6,-1
 80 639 l 1,7,-1
 473 639 l 1,8,-1
 481 567 l 1,9,-1
 161 76 l 1,0,-1
EndSplineSet
EndChar

StartChar: bracketleft
Encoding: 91 91 61
Width: 269
Flags: W
LayerCount: 2
Fore
SplineSet
56 -114 m 1,0,-1
 56 740 l 1,1,-1
 209 740 l 1,2,-1
 209 689 l 1,3,-1
 138 689 l 1,4,-1
 138 -44 l 1,5,-1
 219 -44 l 1,6,-1
 219 -114 l 1,7,-1
 56 -114 l 1,0,-1
EndSplineSet
EndChar

StartChar: backslash
Encoding: 92 92 62
Width: 385
Flags: W
LayerCount: 2
Fore
SplineSet
308 -170 m 1,0,-1
 12 687 l 1,1,-1
 92 704 l 1,2,-1
 389 -153 l 1,3,-1
 308 -170 l 1,0,-1
EndSplineSet
EndChar

StartChar: bracketright
Encoding: 93 93 63
Width: 266
Flags: W
LayerCount: 2
Fore
SplineSet
50 -114 m 1,0,-1
 50 -44 l 1,1,-1
 131 -44 l 1,2,-1
 131 689 l 1,3,-1
 59 689 l 1,4,-1
 59 740 l 1,5,-1
 210 740 l 1,6,-1
 210 -114 l 1,7,-1
 50 -114 l 1,0,-1
EndSplineSet
EndChar

StartChar: asciicircum
Encoding: 94 94 64
Width: 536
Flags: W
LayerCount: 2
Fore
SplineSet
267 592 m 1,0,-1
 152 453 l 1,1,-1
 110 505 l 1,2,-1
 267 678 l 1,3,-1
 426 505 l 1,4,-1
 384 453 l 1,5,-1
 267 592 l 1,0,-1
EndSplineSet
EndChar

StartChar: underscore
Encoding: 95 95 65
Width: 536
Flags: W
LayerCount: 2
Fore
SplineSet
5 -109 m 1,0,-1
 5 -50 l 1,1,-1
 530 -50 l 1,2,-1
 530 -109 l 1,3,-1
 5 -109 l 1,0,-1
EndSplineSet
EndChar

StartChar: grave
Encoding: 96 96 66
Width: 329
Flags: W
LayerCount: 2
Fore
SplineSet
266 556 m 1,0,-1
 57 646 l 1,1,-1
 104 711 l 1,2,-1
 314 615 l 1,3,-1
 266 556 l 1,0,-1
EndSplineSet
EndChar

StartChar: a
Encoding: 97 97 67
Width: 491
Flags: W
LayerCount: 2
Fore
SplineSet
394 -11 m 0,0,1
 353 -11 353 -11 331 37 c 1,2,3
 301 14 301 14 279 4 c 0,4,5
 235 -16 235 -16 179 -16 c 0,6,7
 116 -16 116 -16 78.5 24 c 128,-1,8
 41 64 41 64 41 127 c 0,9,10
 41 208 41 208 90 244 c 0,11,12
 122 267 122 267 211 288 c 0,13,14
 245 296 245 296 319 303 c 1,15,-1
 319 366 l 2,16,17
 319 399 319 399 293.5 420 c 128,-1,18
 268 441 268 441 234 441 c 0,19,20
 179 441 179 441 101 377 c 1,21,-1
 60 433 l 1,22,23
 91 461 91 461 142 485 c 0,24,25
 198 512 198 512 234 512 c 0,26,27
 303 512 303 512 350 469 c 128,-1,28
 397 426 397 426 397 357 c 2,29,-1
 397 75 l 1,30,31
 402 55 402 55 418 55 c 0,32,33
 429 54 429 54 460 76 c 1,34,-1
 476 24 l 1,35,36
 443 -11 443 -11 394 -11 c 0,0,1
319 233 m 1,37,38
 290 233 290 233 243 224 c 0,39,40
 216 219 216 219 186 211 c 0,41,42
 114 192 114 192 113 126 c 0,43,44
 113 90 113 90 133.5 68.5 c 128,-1,45
 154 47 154 47 190 47 c 0,46,47
 229 47 229 47 270 68 c 0,48,49
 319 93 319 93 319 132 c 2,50,-1
 319 233 l 1,37,38
EndSplineSet
EndChar

StartChar: b
Encoding: 98 98 68
Width: 515
Flags: W
LayerCount: 2
Fore
SplineSet
272 -10 m 0,0,1
 208 -10 208 -10 143 40 c 1,2,-1
 129 0 l 1,3,-1
 64 0 l 1,4,-1
 64 700 l 1,5,-1
 143 700 l 1,6,-1
 143 448 l 1,7,8
 211 512 211 512 268 512 c 0,9,10
 370 512 370 512 428 434 c 0,11,12
 481 364 481 364 481 259 c 0,13,14
 481 144 481 144 435 73 c 0,15,16
 381 -10 381 -10 272 -10 c 0,0,1
267 443 m 0,17,18
 176 443 176 443 143 371 c 1,19,-1
 143 108 l 1,20,21
 161 84 161 84 198 70 c 0,22,23
 232 56 232 56 264 56 c 0,24,25
 391 56 391 56 391 256 c 0,26,27
 391 329 391 329 366 379 c 0,28,29
 333 443 333 443 267 443 c 0,17,18
EndSplineSet
EndChar

StartChar: c
Encoding: 99 99 69
Width: 479
Flags: W
LayerCount: 2
Fore
SplineSet
269 -12 m 0,0,1
 138 -12 138 -12 78 89 c 0,2,3
 39 155 39 155 39 242 c 0,4,5
 39 357 39 357 97 429 c 0,6,7
 160 508 160 508 271 507 c 0,8,9
 359 506 359 506 428 454 c 1,10,-1
 386 388 l 1,11,12
 319 439 319 439 260 439 c 0,13,14
 189 439 189 439 152 371 c 0,15,16
 122 316 122 316 122 238 c 0,17,18
 122 165 122 165 158 114 c 0,19,20
 199 57 199 57 269 57 c 0,21,22
 341 57 341 57 403 112 c 1,23,-1
 442 60 l 1,24,25
 369 -12 369 -12 269 -12 c 0,0,1
EndSplineSet
EndChar

StartChar: d
Encoding: 100 100 70
Width: 511
Flags: W
LayerCount: 2
Fore
SplineSet
448 0 m 1,0,-1
 382 0 l 1,1,-1
 370 42 l 1,2,3
 289 -13 289 -13 231 -13 c 0,4,5
 138 -13 138 -13 84 72 c 0,6,7
 37 145 37 145 37 243 c 0,8,9
 37 355 37 355 87 428 c 0,10,11
 145 512 145 512 252 512 c 0,12,13
 322 512 322 512 370 454 c 1,14,-1
 370 697 l 1,15,-1
 448 697 l 1,16,-1
 448 0 l 1,0,-1
370 380 m 1,17,18
 342 418 342 418 318.5 430.5 c 128,-1,19
 295 443 295 443 248 443 c 0,20,21
 181 443 181 443 150 378 c 0,22,23
 126 329 126 329 126 254 c 256,24,25
 126 179 126 179 154 127 c 0,26,27
 188 61 188 61 257 61 c 0,28,29
 318 61 318 61 370 106 c 1,30,-1
 370 380 l 1,17,18
EndSplineSet
EndChar

StartChar: e
Encoding: 101 101 71
Width: 491
Flags: W
LayerCount: 2
Fore
SplineSet
124 257 m 1,0,1
 124 109 124 109 208 71 c 0,2,3
 241 56 241 56 277 56 c 0,4,5
 336 56 336 56 408 120 c 1,6,-1
 448 64 l 1,7,8
 368 -12 368 -12 270 -12 c 0,9,10
 134 -12 134 -12 76 90 c 0,11,12
 39 155 39 155 39 247 c 0,13,14
 39 361 39 361 99 432 c 0,15,16
 162 507 162 507 274 507 c 0,17,18
 356 507 356 507 405 454 c 128,-1,19
 454 401 454 401 454 318 c 2,20,-1
 454 257 l 1,21,-1
 124 257 l 1,0,1
375 332 m 2,22,23
 375 441 375 441 267 441 c 0,24,25
 207 441 207 441 176.5 411.5 c 128,-1,26
 146 382 146 382 131 320 c 1,27,-1
 375 320 l 1,28,-1
 375 332 l 2,22,23
EndSplineSet
EndChar

StartChar: f
Encoding: 102 102 72
Width: 324
Flags: W
LayerCount: 2
Fore
SplineSet
336 651 m 1,0,1
 289 681 289 681 250 682 c 0,2,3
 208 683 208 683 187 639 c 0,4,5
 172 605 172 605 172 558 c 2,6,-1
 172 495 l 1,7,-1
 311 495 l 1,8,-1
 311 430 l 1,9,-1
 172 430 l 1,10,-1
 172 0 l 1,11,-1
 96 0 l 1,12,-1
 96 430 l 1,13,-1
 18 430 l 1,14,-1
 18 495 l 1,15,-1
 96 495 l 1,16,-1
 96 561 l 2,17,18
 96 640 96 640 132 690 c 0,19,20
 172 746 172 746 249 746 c 0,21,22
 294 746 294 746 318 736 c 0,23,24
 325 733 325 733 374 702 c 1,25,-1
 336 651 l 1,0,1
EndSplineSet
EndChar

StartChar: g
Encoding: 103 103 73
Width: 511
Flags: W
LayerCount: 2
Fore
SplineSet
508 398 m 1,0,-1
 401 401 l 1,1,2
 417 367 417 367 417 335 c 0,3,4
 417 260 417 260 366 210 c 0,5,6
 308 154 308 154 224 154 c 0,7,8
 175 154 175 154 158 166 c 1,9,10
 119 142 119 142 119 112 c 0,11,12
 119 85 119 85 157 77 c 0,13,14
 175 73 175 73 255 73 c 0,15,16
 358 73 358 73 395 59 c 0,17,18
 461 34 461 34 461 -50 c 0,19,20
 461 -136 461 -136 371 -186 c 0,21,22
 294 -229 294 -229 202 -229 c 2,23,-1
 199 -229 l 2,24,25
 136 -229 136 -229 91 -202 c 0,26,27
 37 -169 37 -169 37 -110 c 0,28,29
 37 -45 37 -45 106 20 c 1,30,31
 84 28 84 28 63.5 54.5 c 128,-1,32
 43 81 43 81 43 104 c 0,33,34
 43 131 43 131 67 155 c 0,35,36
 107 195 107 195 108 196 c 1,37,38
 46 249 46 249 45 335 c 0,39,40
 45 410 45 410 103 465 c 0,41,42
 157 515 157 515 235 514 c 0,43,44
 281 513 281 513 323 491 c 0,45,46
 360 471 360 471 378 444 c 1,47,-1
 508 464 l 1,48,-1
 508 398 l 1,0,-1
348 337 m 0,49,50
 348 384 348 384 313 420 c 0,51,52
 280 453 280 453 231 453 c 0,53,54
 181 453 181 453 150.5 416 c 128,-1,55
 120 379 120 379 120 331 c 256,56,57
 120 283 120 283 150.5 248.5 c 128,-1,58
 181 214 181 214 228 214 c 0,59,60
 283 214 283 214 317 250 c 0,61,62
 348 282 348 282 348 337 c 0,49,50
384 -53 m 0,63,64
 384 12 384 12 270 12 c 0,65,66
 225 12 225 12 171 9 c 0,67,68
 146 8 146 8 126 -27 c 0,69,70
 108 -58 108 -58 108 -85 c 0,71,72
 108 -126 108 -126 148 -149 c 0,73,74
 181 -167 181 -167 225 -167 c 0,75,76
 282 -167 282 -167 329 -139 c 0,77,78
 384 -106 384 -106 384 -53 c 0,63,64
EndSplineSet
EndChar

StartChar: h
Encoding: 104 104 74
Width: 512
Flags: W
LayerCount: 2
Fore
SplineSet
371 0 m 1,0,-1
 371 325 l 2,1,2
 371 374 371 374 349 406 c 0,3,4
 324 443 324 443 277 443 c 0,5,6
 238 443 238 443 192 411 c 0,7,8
 142 377 142 377 142 340 c 2,9,-1
 142 0 l 1,10,-1
 63 0 l 1,11,-1
 63 696 l 1,12,-1
 142 696 l 1,13,-1
 142 439 l 1,14,15
 219 511 219 511 285 511 c 0,16,17
 355 511 355 511 402 459.5 c 128,-1,18
 449 408 449 408 449 338 c 2,19,-1
 449 0 l 1,20,-1
 371 0 l 1,0,-1
EndSplineSet
EndChar

StartChar: i
Encoding: 105 105 75
Width: 233
Flags: W
LayerCount: 2
Fore
SplineSet
117 602 m 256,0,1
 94 602 94 602 78.5 618 c 128,-1,2
 63 634 63 634 63 657 c 256,3,4
 63 680 63 680 78.5 695.5 c 128,-1,5
 94 711 94 711 117 711 c 256,6,7
 140 711 140 711 155 695.5 c 128,-1,8
 170 680 170 680 170 657 c 256,9,10
 170 634 170 634 155 618 c 128,-1,11
 140 602 140 602 117 602 c 256,0,1
71 0 m 1,12,-1
 71 495 l 1,13,-1
 152 495 l 1,14,-1
 152 0 l 1,15,-1
 71 0 l 1,12,-1
EndSplineSet
EndChar

StartChar: j
Encoding: 106 106 76
Width: 233
Flags: W
LayerCount: 2
Fore
SplineSet
130 604 m 256,0,1
 107 604 107 604 91.5 619.5 c 128,-1,2
 76 635 76 635 76 658 c 256,3,4
 76 681 76 681 91.5 696.5 c 128,-1,5
 107 712 107 712 130 712 c 256,6,7
 153 712 153 712 168.5 696.5 c 128,-1,8
 184 681 184 681 184 658 c 256,9,10
 184 635 184 635 168.5 619.5 c 128,-1,11
 153 604 153 604 130 604 c 256,0,1
58 -109 m 0,12,13
 28 -131 28 -131 -13 -143 c 1,14,-1
 19 -218 l 1,15,16
 163 -163 163 -163 163 -65 c 2,17,-1
 163 495 l 1,18,-1
 84 495 l 1,19,-1
 84 -21 l 2,20,21
 84 -90 84 -90 58 -109 c 0,12,13
EndSplineSet
EndChar

StartChar: k
Encoding: 107 107 77
Width: 476
Flags: W
LayerCount: 2
Fore
SplineSet
395 -25 m 1,0,-1
 176 226 l 1,1,-1
 142 192 l 1,2,-1
 142 0 l 1,3,-1
 63 0 l 1,4,-1
 63 697 l 1,5,-1
 142 697 l 1,6,-1
 142 276 l 1,7,-1
 360 521 l 1,8,-1
 428 475 l 1,9,-1
 230 272 l 1,10,-1
 465 18 l 1,11,-1
 395 -25 l 1,0,-1
EndSplineSet
EndChar

StartChar: l
Encoding: 108 108 78
Width: 234
Flags: W
LayerCount: 2
Fore
SplineSet
156 0 m 1,0,-1
 78 0 l 1,1,-1
 78 698 l 1,2,-1
 156 698 l 1,3,-1
 156 0 l 1,0,-1
EndSplineSet
EndChar

StartChar: m
Encoding: 109 109 79
Width: 776
Flags: W
LayerCount: 2
Fore
SplineSet
634 0 m 1,0,-1
 634 346 l 2,1,2
 634 443 634 443 546 443 c 0,3,4
 519 443 519 443 477 411 c 0,5,6
 426 372 426 372 426 322 c 2,7,-1
 426 0 l 1,8,-1
 348 0 l 1,9,-1
 348 351 l 2,10,11
 348 391 348 391 326.5 416.5 c 128,-1,12
 305 442 305 442 266 442 c 256,13,14
 227 442 227 442 184.5 406 c 128,-1,15
 142 370 142 370 142 331 c 2,16,-1
 142 0 l 1,17,-1
 63 0 l 1,18,-1
 63 495 l 1,19,-1
 142 495 l 1,20,-1
 142 425 l 1,21,22
 218 507 218 507 282 507 c 0,23,24
 323 507 323 507 356 481 c 128,-1,25
 389 455 389 455 405 416 c 1,26,27
 489 512 489 512 563 512 c 0,28,29
 625 512 625 512 669 463 c 128,-1,30
 713 414 713 414 713 351 c 2,31,-1
 713 0 l 1,32,-1
 634 0 l 1,0,-1
EndSplineSet
EndChar

StartChar: n
Encoding: 110 110 80
Width: 512
Flags: W
LayerCount: 2
Fore
SplineSet
371 0 m 1,0,-1
 371 325 l 2,1,2
 371 374 371 374 349 406 c 0,3,4
 324 443 324 443 277 443 c 0,5,6
 236 443 236 443 192 411 c 0,7,8
 142 375 142 375 142 328 c 2,9,-1
 142 0 l 1,10,-1
 63 0 l 1,11,-1
 63 495 l 1,12,-1
 142 495 l 1,13,-1
 142 439 l 1,14,15
 181 476 181 476 207 490 c 0,16,17
 244 511 244 511 286 511 c 0,18,19
 355 511 355 511 402 459.5 c 128,-1,20
 449 408 449 408 449 338 c 2,21,-1
 449 0 l 1,22,-1
 371 0 l 1,0,-1
EndSplineSet
EndChar

StartChar: o
Encoding: 111 111 81
Width: 546
Flags: W
LayerCount: 2
Fore
SplineSet
275 -11 m 0,0,1
 140 -11 140 -11 80 90 c 0,2,3
 39 159 39 159 39 252 c 0,4,5
 39 381 39 381 120 453 c 0,6,7
 186 512 186 512 276 512 c 0,8,9
 365 512 365 512 429 453 c 0,10,11
 507 381 507 381 507 252 c 0,12,13
 507 162 507 162 461 89 c 0,14,15
 398 -11 398 -11 275 -11 c 0,0,1
281 445 m 0,16,17
 202 445 202 445 160 383 c 0,18,19
 125 329 125 329 125 246 c 0,20,21
 125 167 125 167 158 116 c 0,22,23
 197 54 197 54 271 54 c 0,24,25
 348 54 348 54 387 117 c 0,26,27
 421 170 421 170 421 251 c 0,28,29
 421 328 421 328 390 381 c 0,30,31
 353 445 353 445 281 445 c 0,16,17
EndSplineSet
EndChar

StartChar: p
Encoding: 112 112 82
Width: 517
Flags: W
LayerCount: 2
Fore
SplineSet
258 -13 m 0,0,1
 195 -13 195 -13 142 44 c 1,2,-1
 142 -197 l 1,3,-1
 63 -197 l 1,4,-1
 63 495 l 1,5,-1
 142 495 l 1,6,-1
 142 448 l 1,7,8
 208 512 208 512 259 512 c 0,9,10
 480 512 480 512 480 267 c 0,11,12
 480 147 480 147 431 73 c 0,13,14
 373 -13 373 -13 258 -13 c 0,0,1
258 445 m 0,15,16
 221 445 221 445 186.5 421.5 c 128,-1,17
 152 398 152 398 142 364 c 1,18,-1
 142 101 l 1,19,20
 203 54 203 54 263 54 c 0,21,22
 327 54 327 54 363 124 c 0,23,24
 393 183 393 183 393 253 c 0,25,26
 393 445 393 445 258 445 c 0,15,16
EndSplineSet
EndChar

StartChar: q
Encoding: 113 113 83
Width: 511
Flags: W
LayerCount: 2
Fore
SplineSet
368 -197 m 1,0,-1
 368 54 l 1,1,2
 275 -13 275 -13 225 -13 c 0,3,4
 131 -13 131 -13 80 80 c 0,5,6
 37 156 37 156 37 257 c 256,7,8
 37 358 37 358 81 426 c 0,9,10
 138 513 138 513 253 512 c 0,11,12
 282 512 282 512 316 495 c 128,-1,13
 350 478 350 478 368 455 c 1,14,-1
 368 495 l 1,15,-1
 448 495 l 1,16,-1
 448 -197 l 1,17,-1
 368 -197 l 1,0,-1
368 365 m 1,18,19
 357 401 357 401 325.5 423.5 c 128,-1,20
 294 446 294 446 256 446 c 0,21,22
 183 446 183 446 149 379 c 0,23,24
 123 328 123 328 123 248 c 0,25,26
 123 180 123 180 155 125 c 0,27,28
 193 61 193 61 257 61 c 0,29,30
 310 61 310 61 368 106 c 1,31,-1
 368 365 l 1,18,19
EndSplineSet
EndChar

StartChar: r
Encoding: 114 114 84
Width: 342
Flags: W
LayerCount: 2
Fore
SplineSet
298 410 m 1,0,1
 279 423 279 423 244 422 c 0,2,3
 217 422 217 422 179.5 383 c 128,-1,4
 142 344 142 344 142 317 c 2,5,-1
 142 0 l 1,6,-1
 63 0 l 1,7,-1
 63 495 l 1,8,-1
 142 495 l 1,9,-1
 142 413 l 1,10,11
 201 506 201 506 266 506 c 0,12,13
 283 506 283 506 322 490 c 1,14,-1
 298 410 l 1,0,1
EndSplineSet
EndChar

StartChar: s
Encoding: 115 115 85
Width: 437
Flags: W
LayerCount: 2
Fore
SplineSet
214 -14 m 0,0,1
 111 -14 111 -14 48 44 c 1,2,-1
 88 105 l 1,3,4
 140 55 140 55 222 55 c 0,5,6
 257 55 257 55 287 81 c 128,-1,7
 317 107 317 107 317 141 c 0,8,9
 317 196 317 196 238 217 c 0,10,11
 177 233 177 233 118 255 c 0,12,13
 60 285 60 285 60 357 c 256,14,15
 60 429 60 429 106 472 c 128,-1,16
 152 515 152 515 225 514 c 0,17,18
 293 513 293 513 369 468 c 1,19,-1
 343 405 l 1,20,21
 273 450 273 450 222 450 c 0,22,23
 135 450 135 450 135 377 c 0,24,25
 135 337 135 337 175 323 c 0,26,27
 202 314 202 314 319 276 c 0,28,29
 399 239 399 239 399 159 c 0,30,31
 399 78 399 78 347.5 32 c 128,-1,32
 296 -14 296 -14 214 -14 c 0,0,1
EndSplineSet
EndChar

StartChar: t
Encoding: 116 116 86
Width: 351
Flags: W
LayerCount: 2
Fore
SplineSet
214 -8 m 0,0,1
 158 -8 158 -8 127 43 c 0,2,3
 100 86 100 86 100 145 c 2,4,-1
 100 430 l 1,5,-1
 21 430 l 1,6,-1
 21 496 l 1,7,-1
 100 496 l 1,8,-1
 100 597 l 1,9,-1
 179 597 l 1,10,-1
 179 496 l 1,11,-1
 308 496 l 1,12,-1
 308 429 l 1,13,-1
 179 430 l 1,14,-1
 179 133 l 2,15,16
 179 66 179 66 236 66 c 0,17,18
 267 66 267 66 314 111 c 1,19,-1
 353 57 l 1,20,21
 297 -8 297 -8 214 -8 c 0,0,1
EndSplineSet
EndChar

StartChar: u
Encoding: 117 117 87
Width: 511
Flags: W
LayerCount: 2
Fore
SplineSet
446 0 m 1,0,-1
 375 0 l 1,1,-1
 364 52 l 1,2,3
 290 -18 290 -18 211 -18 c 0,4,5
 143 -18 143 -18 101 38 c 0,6,7
 63 90 63 90 63 160 c 2,8,-1
 63 495 l 1,9,-1
 142 495 l 1,10,-1
 142 164 l 2,11,12
 142 53 142 53 230 53 c 0,13,14
 272 53 272 53 320 88 c 128,-1,15
 368 123 368 123 368 164 c 2,16,-1
 368 495 l 1,17,-1
 446 495 l 1,18,-1
 446 0 l 1,0,-1
EndSplineSet
EndChar

StartChar: v
Encoding: 118 118 88
Width: 464
Flags: W
LayerCount: 2
Fore
SplineSet
261 -12 m 1,0,-1
 207 -12 l 1,1,-1
 22 479 l 1,2,-1
 101 501 l 1,3,-1
 237 115 l 1,4,-1
 366 501 l 1,5,-1
 442 479 l 1,6,-1
 261 -12 l 1,0,-1
EndSplineSet
EndChar

StartChar: w
Encoding: 119 119 89
Width: 735
Flags: W
LayerCount: 2
Fore
SplineSet
561 -9 m 1,0,-1
 500 -9 l 1,1,-1
 370 361 l 1,2,-1
 238 -9 l 1,3,-1
 175 -9 l 1,4,-1
 27 479 l 1,5,-1
 104 499 l 1,6,-1
 215 104 l 1,7,-1
 338 492 l 1,8,-1
 408 492 l 1,9,-1
 536 105 l 1,10,-1
 641 499 l 1,11,-1
 714 479 l 1,12,-1
 561 -9 l 1,0,-1
EndSplineSet
EndChar

StartChar: x
Encoding: 120 120 90
Width: 492
Flags: W
LayerCount: 2
Fore
SplineSet
411 -26 m 1,0,-1
 247 190 l 1,1,-1
 86 -24 l 1,2,-1
 19 21 l 1,3,-1
 200 246 l 1,4,-1
 38 464 l 1,5,-1
 112 508 l 1,6,-1
 253 310 l 1,7,-1
 399 507 l 1,8,-1
 461 472 l 1,9,-1
 292 251 l 1,10,-1
 478 20 l 1,11,-1
 411 -26 l 1,0,-1
EndSplineSet
EndChar

StartChar: y
Encoding: 121 121 91
Width: 480
Flags: W
LayerCount: 2
Fore
SplineSet
249 -84 m 2,0,1
 232 -131 232 -131 186.5 -163.5 c 128,-1,2
 141 -196 141 -196 91 -196 c 0,3,4
 76 -196 76 -196 22 -178 c 1,5,-1
 47 -107 l 1,6,7
 75 -120 75 -120 97 -121 c 0,8,9
 143 -122 143 -122 181 -54 c 0,10,11
 201 -6 201 -6 222 42 c 1,12,-1
 30 478 l 1,13,-1
 107 499 l 1,14,-1
 258 145 l 1,15,-1
 387 498 l 1,16,-1
 458 481 l 1,17,-1
 249 -84 l 2,0,1
EndSplineSet
EndChar

StartChar: z
Encoding: 122 122 92
Width: 482
Flags: W
LayerCount: 2
Fore
SplineSet
53 0 m 1,0,-1
 53 66 l 1,1,-1
 281 369 l 2,2,3
 298 392 298 392 332 430 c 1,4,-1
 63 430 l 1,5,-1
 63 494 l 1,6,-1
 425 494 l 1,7,-1
 425 424 l 1,8,-1
 205 125 l 2,9,10
 194 110 194 110 160 70 c 1,11,-1
 439 70 l 1,12,-1
 439 0 l 1,13,-1
 53 0 l 1,0,-1
EndSplineSet
EndChar

StartChar: braceleft
Encoding: 123 123 93
Width: 536
Flags: W
LayerCount: 2
Fore
SplineSet
398 748 m 1,0,1
 357 761 357 761 341 761 c 0,2,3
 296 761 296 761 282 740 c 0,4,5
 264 713 264 713 264 625 c 0,6,7
 264 603 264 603 266.5 559.5 c 128,-1,8
 269 516 269 516 269 494 c 0,9,10
 269 422 269 422 187 348 c 1,11,-1
 187 323 l 1,12,13
 227 294 227 294 253 241.5 c 128,-1,14
 279 189 279 189 279 139 c 0,15,16
 279 112 279 112 275 58 c 128,-1,17
 271 4 271 4 271 -23 c 0,18,19
 271 -82 271 -82 276 -97 c 0,20,21
 286 -126 286 -126 322 -126 c 0,22,23
 366 -126 366 -126 391 -105 c 1,24,-1
 411 -180 l 1,25,26
 351 -199 351 -199 319 -197 c 0,27,28
 225 -192 225 -192 197 -110 c 0,29,30
 182 -66 182 -66 182 51 c 0,31,32
 182 71 182 71 184 111.5 c 128,-1,33
 186 152 186 152 186 172 c 0,34,35
 186 259 186 259 112 319 c 1,36,-1
 113 359 l 1,37,38
 151 398 151 398 163 417 c 0,39,40
 186 453 186 453 186 497 c 0,41,42
 186 520 186 520 183 565 c 128,-1,43
 180 610 180 610 180 633 c 0,44,45
 180 834 180 834 339 834 c 0,46,47
 365 834 365 834 413 823 c 1,48,-1
 398 748 l 1,0,1
EndSplineSet
EndChar

StartChar: bar
Encoding: 124 124 94
Width: 229
Flags: W
LayerCount: 2
Fore
SplineSet
85 -220 m 1,0,-1
 85 686 l 1,1,-1
 173 686 l 1,2,-1
 173 -220 l 1,3,-1
 85 -220 l 1,0,-1
EndSplineSet
EndChar

StartChar: braceright
Encoding: 125 125 95
Width: 536
Flags: W
LayerCount: 2
Fore
SplineSet
357 172 m 0,0,1
 357 152 357 152 359 111.5 c 128,-1,2
 361 71 361 71 361 51 c 0,3,4
 361 -66 361 -66 344 -113 c 0,5,6
 315 -193 315 -193 224 -197 c 0,7,8
 194 -198 194 -198 132 -180 c 1,9,-1
 152 -105 l 1,10,11
 177 -126 177 -126 221 -126 c 0,12,13
 272 -126 272 -126 272 -64 c 2,14,-1
 272 -23 l 2,15,16
 272 4 272 4 268 58 c 128,-1,17
 264 112 264 112 264 139 c 0,18,19
 264 189 264 189 290 241.5 c 128,-1,20
 316 294 316 294 356 323 c 1,21,-1
 356 348 l 1,22,23
 274 422 274 422 274 494 c 0,24,25
 274 516 274 516 276.5 559.5 c 128,-1,26
 279 603 279 603 279 625 c 0,27,28
 279 713 279 713 261 740 c 0,29,30
 247 761 247 761 202 761 c 0,31,32
 186 761 186 761 145 748 c 1,33,-1
 130 823 l 1,34,35
 178 834 178 834 204 834 c 0,36,37
 363 834 363 834 363 633 c 0,38,39
 363 610 363 610 360 565 c 128,-1,40
 357 520 357 520 357 497 c 0,41,42
 357 453 357 453 380 417 c 0,43,44
 392 398 392 398 430 359 c 1,45,-1
 431 319 l 1,46,47
 357 259 357 259 357 172 c 0,0,1
EndSplineSet
EndChar

StartChar: asciitilde
Encoding: 126 126 96
Width: 395
Flags: W
LayerCount: 2
Fore
SplineSet
279 379 m 0,0,1
 257 379 257 379 220.5 406.5 c 128,-1,2
 184 434 184 434 167 434 c 0,3,4
 138 434 138 434 102 381 c 1,5,-1
 83 453 l 1,6,7
 120 497 120 497 170 497 c 0,8,9
 205 497 205 497 252 463 c 0,10,11
 271 449 271 449 287 449 c 256,12,13
 303 449 303 449 319 469 c 0,14,15
 326 476 326 476 335 486 c 1,16,-1
 353 416 l 1,17,18
 316 379 316 379 279 379 c 0,0,1
EndSplineSet
EndChar

StartChar: Adieresis
Encoding: 196 196 97
Width: 580
Flags: W
LayerCount: 2
Fore
SplineSet
458 -10 m 1,0,-1
 399 179 l 1,1,-1
 174 179 l 1,2,-1
 117 -10 l 1,3,-1
 35 0 l 1,4,-1
 247 654 l 1,5,-1
 328 654 l 1,6,-1
 543 4 l 1,7,-1
 458 -10 l 1,0,-1
287 551 m 1,8,-1
 195 248 l 1,9,-1
 379 248 l 1,10,-1
 287 551 l 1,8,-1
396 694 m 0,11,12
 346 694 346 694 346 746 c 0,13,14
 346 768 346 768 360 782.5 c 128,-1,15
 374 797 374 797 396 797 c 0,16,17
 417 797 417 797 431.5 782 c 128,-1,18
 446 767 446 767 446 746 c 0,19,20
 446 724 446 724 432 709 c 128,-1,21
 418 694 418 694 396 694 c 0,11,12
186 694 m 0,22,23
 136 694 136 694 136 746 c 0,24,25
 136 768 136 768 150 782.5 c 128,-1,26
 164 797 164 797 186 797 c 0,27,28
 207 797 207 797 221.5 782 c 128,-1,29
 236 767 236 767 236 746 c 0,30,31
 236 724 236 724 222 709 c 128,-1,32
 208 694 208 694 186 694 c 0,22,23
EndSplineSet
EndChar

StartChar: Aring
Encoding: 197 197 98
Width: 580
Flags: W
LayerCount: 2
Fore
SplineSet
458 -10 m 1,0,-1
 399 179 l 1,1,-1
 174 179 l 1,2,-1
 117 -10 l 1,3,-1
 35 0 l 1,4,-1
 247 654 l 1,5,-1
 328 654 l 1,6,-1
 543 4 l 1,7,-1
 458 -10 l 1,0,-1
287 551 m 1,8,-1
 195 248 l 1,9,-1
 379 248 l 1,10,-1
 287 551 l 1,8,-1
293 686 m 256,11,12
 254 686 254 686 228 710 c 128,-1,13
 202 734 202 734 202 773 c 0,14,15
 202 811 202 811 228 835 c 128,-1,16
 254 859 254 859 293 859 c 256,17,18
 332 859 332 859 358 835 c 128,-1,19
 384 811 384 811 384 773 c 0,20,21
 384 734 384 734 358 710 c 128,-1,22
 332 686 332 686 293 686 c 256,11,12
293 816 m 256,23,24
 250 816 250 816 250 773 c 0,25,26
 250 729 250 729 293 729 c 256,27,28
 336 729 336 729 336 773 c 0,29,30
 336 816 336 816 293 816 c 256,23,24
EndSplineSet
EndChar

StartChar: Ccedilla
Encoding: 199 199 99
Width: 570
Flags: W
LayerCount: 2
Fore
SplineSet
348 -219 m 0,0,1
 284 -219 284 -219 261 -171 c 1,2,-1
 298 -137 l 1,3,4
 326 -169 326 -169 349 -169 c 0,5,6
 384 -169 384 -169 384 -135 c 0,7,8
 384 -96 384 -96 351 -96 c 0,9,10
 337 -96 337 -96 316 -111 c 1,11,-1
 270 -90 l 1,12,-1
 275 -5 l 1,13,14
 158 10 158 10 93 113 c 0,15,16
 37 203 37 203 37 329 c 0,17,18
 37 466 37 466 107 558 c 0,19,20
 185 659 185 659 318 660 c 0,21,22
 367 660 367 660 430 639 c 0,23,24
 476 623 476 623 508 605 c 1,25,-1
 470 526 l 1,26,27
 379 582 379 582 323 582 c 0,28,29
 224 582 224 582 169 487 c 0,30,31
 126 412 126 412 126 317 c 0,32,33
 126 223 126 223 172 153 c 0,34,35
 225 72 225 72 315 72 c 0,36,37
 400 72 400 72 476 115 c 1,38,-1
 514 50 l 1,39,40
 456 19 456 19 424 8 c 0,41,42
 383 -6 383 -6 332 -8 c 1,43,-1
 329 -47 l 1,44,45
 338 -43 338 -43 354 -43 c 0,46,47
 393 -43 393 -43 418.5 -68 c 128,-1,48
 444 -93 444 -93 444 -132 c 0,49,50
 444 -172 444 -172 416.5 -195.5 c 128,-1,51
 389 -219 389 -219 348 -219 c 0,0,1
EndSplineSet
EndChar

StartChar: Eacute
Encoding: 201 201 100
Width: 469
Flags: W
LayerCount: 2
Fore
SplineSet
157 568 m 1,0,-1
 157 375 l 1,1,-1
 409 375 l 1,2,-1
 409 300 l 1,3,-1
 157 301 l 1,4,-1
 157 76 l 1,5,-1
 424 77 l 1,6,-1
 424 0 l 1,7,-1
 68 0 l 1,8,-1
 68 640 l 1,9,-1
 427 640 l 1,10,-1
 427 568 l 1,11,-1
 157 568 l 1,0,-1
172 687 m 1,12,-1
 126 746 l 1,13,-1
 336 842 l 1,14,-1
 383 777 l 1,15,-1
 172 687 l 1,12,-1
EndSplineSet
EndChar

StartChar: Ntilde
Encoding: 209 209 101
Width: 570
Flags: W
LayerCount: 2
Fore
SplineSet
461 -11 m 1,0,1
 371 151 371 151 151 464 c 1,2,-1
 151 1 l 1,3,-1
 68 0 l 1,4,-1
 68 644 l 1,5,-1
 142 644 l 1,6,-1
 442 189 l 1,7,-1
 442 640 l 1,8,-1
 524 640 l 1,9,-1
 524 11 l 1,10,-1
 461 -11 l 1,0,1
385 659 m 0,11,12
 360 659 360 659 311.5 693.5 c 128,-1,13
 263 728 263 728 250 728 c 0,14,15
 211 728 211 728 180 686 c 1,16,-1
 153 745 l 1,17,18
 167 766 167 766 195.5 780 c 128,-1,19
 224 794 224 794 250 795 c 0,20,21
 275 796 275 796 320.5 761.5 c 128,-1,22
 366 727 366 727 383 727 c 0,23,24
 408 727 408 727 433 752 c 1,25,-1
 459 692 l 1,26,27
 450 681 450 681 424.5 670 c 128,-1,28
 399 659 399 659 385 659 c 0,11,12
EndSplineSet
EndChar

StartChar: Odieresis
Encoding: 214 214 102
Width: 648
Flags: W
LayerCount: 2
Fore
SplineSet
324 -16 m 0,0,1
 184 -16 184 -16 107 86 c 0,2,3
 37 177 37 177 37 322 c 0,4,5
 37 458 37 458 115 549 c 0,6,7
 197 646 197 646 331 646 c 0,8,9
 464 646 464 646 544 549 c 0,10,11
 618 458 618 458 618 322 c 0,12,13
 618 177 618 177 545 84 c 0,14,15
 465 -16 465 -16 324 -16 c 0,0,1
329 572 m 0,16,17
 231 572 231 572 172 489 c 0,18,19
 120 415 120 415 120 313 c 0,20,21
 120 215 120 215 172 142 c 0,22,23
 230 61 230 61 324 61 c 0,24,25
 419 61 419 61 480 141 c 0,26,27
 536 215 536 215 536 312 c 0,28,29
 536 413 536 413 484 488 c 0,30,31
 426 572 426 572 329 572 c 0,16,17
439 696 m 256,32,33
 417 696 417 696 403 711 c 128,-1,34
 389 726 389 726 389 748 c 256,35,36
 389 770 389 770 403 785 c 128,-1,37
 417 800 417 800 439 800 c 0,38,39
 460 800 460 800 474.5 784.5 c 128,-1,40
 489 769 489 769 489 748 c 0,41,42
 489 726 489 726 475 711 c 128,-1,43
 461 696 461 696 439 696 c 256,32,33
229 696 m 256,44,45
 207 696 207 696 193 711 c 128,-1,46
 179 726 179 726 179 748 c 256,47,48
 179 770 179 770 193 785 c 128,-1,49
 207 800 207 800 229 800 c 0,50,51
 250 800 250 800 264.5 784.5 c 128,-1,52
 279 769 279 769 279 748 c 0,53,54
 279 726 279 726 265 711 c 128,-1,55
 251 696 251 696 229 696 c 256,44,45
EndSplineSet
EndChar

StartChar: Udieresis
Encoding: 220 220 103
Width: 521
Flags: W
LayerCount: 2
Fore
SplineSet
513 230 m 2,0,1
 513 119 513 119 452 51 c 128,-1,2
 391 -17 391 -17 282 -17 c 0,3,4
 176 -17 176 -17 120 55 c 0,5,6
 68 121 68 121 68 230 c 2,7,-1
 68 640 l 1,8,-1
 157 640 l 1,9,-1
 157 230 l 2,10,11
 157 58 157 58 285 58 c 0,12,13
 356 58 356 58 392 110 c 0,14,15
 423 156 423 156 423 230 c 2,16,-1
 423 640 l 1,17,-1
 513 640 l 1,18,-1
 513 230 l 2,0,1
386 696 m 256,19,20
 364 696 364 696 350 711 c 128,-1,21
 336 726 336 726 336 748 c 256,22,23
 336 770 336 770 350 785 c 128,-1,24
 364 800 364 800 386 800 c 0,25,26
 407 800 407 800 421.5 784.5 c 128,-1,27
 436 769 436 769 436 748 c 0,28,29
 436 726 436 726 422 711 c 128,-1,30
 408 696 408 696 386 696 c 256,19,20
177 696 m 256,31,32
 155 696 155 696 141 711 c 128,-1,33
 127 726 127 726 127 748 c 256,34,35
 127 770 127 770 141 785 c 128,-1,36
 155 800 155 800 177 800 c 256,37,38
 199 800 199 800 212.5 785 c 128,-1,39
 226 770 226 770 226 748 c 256,40,41
 226 726 226 726 212.5 711 c 128,-1,42
 199 696 199 696 177 696 c 256,31,32
EndSplineSet
EndChar

StartChar: aacute
Encoding: 225 225 104
Width: 491
Flags: W
LayerCount: 2
Fore
SplineSet
399 -11 m 0,0,1
 358 -11 358 -11 336 37 c 1,2,3
 303 12 303 12 285 4 c 0,4,5
 242 -16 242 -16 184 -16 c 0,6,7
 121 -16 121 -16 83.5 24 c 128,-1,8
 46 64 46 64 46 127 c 0,9,10
 46 208 46 208 95 244 c 0,11,12
 127 267 127 267 216 288 c 0,13,14
 250 296 250 296 324 303 c 1,15,-1
 324 366 l 2,16,17
 324 399 324 399 298.5 420 c 128,-1,18
 273 441 273 441 239 441 c 0,19,20
 184 441 184 441 106 377 c 1,21,-1
 65 433 l 1,22,23
 96 461 96 461 147 485 c 0,24,25
 203 512 203 512 239 512 c 0,26,27
 308 512 308 512 355 469 c 128,-1,28
 402 426 402 426 402 357 c 2,29,-1
 402 75 l 1,30,31
 407 55 407 55 423 55 c 0,32,33
 434 54 434 54 465 76 c 1,34,-1
 481 24 l 1,35,36
 448 -11 448 -11 399 -11 c 0,0,1
324 233 m 1,37,38
 293 233 293 233 248 224 c 0,39,40
 234 221 234 221 191 211 c 0,41,42
 120 193 120 193 119 126 c 0,43,44
 119 90 119 90 139 68.5 c 128,-1,45
 159 47 159 47 195 47 c 0,46,47
 234 47 234 47 275 68 c 0,48,49
 324 93 324 93 324 132 c 2,50,-1
 324 233 l 1,37,38
183 557 m 1,51,-1
 136 616 l 1,52,-1
 346 712 l 1,53,-1
 393 647 l 1,54,-1
 183 557 l 1,51,-1
EndSplineSet
EndChar

StartChar: agrave
Encoding: 224 224 105
Width: 491
Flags: W
LayerCount: 2
Fore
SplineSet
399 -11 m 0,0,1
 358 -11 358 -11 336 37 c 1,2,3
 303 12 303 12 285 4 c 0,4,5
 242 -16 242 -16 184 -16 c 0,6,7
 121 -16 121 -16 83.5 24 c 128,-1,8
 46 64 46 64 46 127 c 0,9,10
 46 208 46 208 95 244 c 0,11,12
 127 267 127 267 216 288 c 0,13,14
 250 296 250 296 324 303 c 1,15,-1
 324 366 l 2,16,17
 324 399 324 399 298.5 420 c 128,-1,18
 273 441 273 441 239 441 c 0,19,20
 184 441 184 441 106 377 c 1,21,-1
 65 433 l 1,22,23
 96 461 96 461 147 485 c 0,24,25
 203 512 203 512 239 512 c 0,26,27
 308 512 308 512 355 469 c 128,-1,28
 402 426 402 426 402 357 c 2,29,-1
 402 75 l 1,30,31
 407 55 407 55 423 55 c 0,32,33
 434 54 434 54 465 76 c 1,34,-1
 481 24 l 1,35,36
 448 -11 448 -11 399 -11 c 0,0,1
324 233 m 1,37,38
 293 233 293 233 248 224 c 0,39,40
 234 221 234 221 191 211 c 0,41,42
 120 193 120 193 119 126 c 0,43,44
 119 90 119 90 139 68.5 c 128,-1,45
 159 47 159 47 195 47 c 0,46,47
 234 47 234 47 275 68 c 0,48,49
 324 93 324 93 324 132 c 2,50,-1
 324 233 l 1,37,38
345 556 m 1,51,-1
 136 646 l 1,52,-1
 183 711 l 1,53,-1
 393 615 l 1,54,-1
 345 556 l 1,51,-1
EndSplineSet
EndChar

StartChar: acircumflex
Encoding: 226 226 106
Width: 491
Flags: W
LayerCount: 2
Fore
SplineSet
399 -11 m 0,0,1
 358 -11 358 -11 336 37 c 1,2,3
 303 12 303 12 285 4 c 0,4,5
 242 -16 242 -16 184 -16 c 0,6,7
 121 -16 121 -16 83.5 24 c 128,-1,8
 46 64 46 64 46 127 c 0,9,10
 46 208 46 208 95 244 c 0,11,12
 127 267 127 267 216 288 c 0,13,14
 250 296 250 296 324 303 c 1,15,-1
 324 366 l 2,16,17
 324 399 324 399 298.5 420 c 128,-1,18
 273 441 273 441 239 441 c 0,19,20
 184 441 184 441 106 377 c 1,21,-1
 65 433 l 1,22,23
 96 461 96 461 147 485 c 0,24,25
 203 512 203 512 239 512 c 0,26,27
 308 512 308 512 355 469 c 128,-1,28
 402 426 402 426 402 357 c 2,29,-1
 402 75 l 1,30,31
 407 55 407 55 423 55 c 0,32,33
 434 54 434 54 465 76 c 1,34,-1
 481 24 l 1,35,36
 448 -11 448 -11 399 -11 c 0,0,1
324 233 m 1,37,38
 293 233 293 233 248 224 c 0,39,40
 234 221 234 221 191 211 c 0,41,42
 120 193 120 193 119 126 c 0,43,44
 119 90 119 90 139 68.5 c 128,-1,45
 159 47 159 47 195 47 c 0,46,47
 234 47 234 47 275 68 c 0,48,49
 324 93 324 93 324 132 c 2,50,-1
 324 233 l 1,37,38
252 619 m 1,51,-1
 114 526 l 1,52,-1
 114 597 l 1,53,-1
 252 710 l 1,54,-1
 394 597 l 1,55,-1
 394 526 l 1,56,-1
 252 619 l 1,51,-1
EndSplineSet
EndChar

StartChar: adieresis
Encoding: 228 228 107
Width: 491
Flags: W
LayerCount: 2
Fore
SplineSet
399 -11 m 0,0,1
 358 -11 358 -11 336 37 c 1,2,3
 303 12 303 12 285 4 c 0,4,5
 242 -16 242 -16 184 -16 c 0,6,7
 121 -16 121 -16 83.5 24 c 128,-1,8
 46 64 46 64 46 127 c 0,9,10
 46 208 46 208 95 244 c 0,11,12
 127 267 127 267 216 288 c 0,13,14
 250 296 250 296 324 303 c 1,15,-1
 324 366 l 2,16,17
 324 399 324 399 298.5 420 c 128,-1,18
 273 441 273 441 239 441 c 0,19,20
 184 441 184 441 106 377 c 1,21,-1
 65 433 l 1,22,23
 96 461 96 461 147 485 c 0,24,25
 203 512 203 512 239 512 c 0,26,27
 308 512 308 512 355 469 c 128,-1,28
 402 426 402 426 402 357 c 2,29,-1
 402 75 l 1,30,31
 407 55 407 55 423 55 c 0,32,33
 434 54 434 54 465 76 c 1,34,-1
 481 24 l 1,35,36
 448 -11 448 -11 399 -11 c 0,0,1
324 233 m 1,37,38
 293 233 293 233 248 224 c 0,39,40
 234 221 234 221 191 211 c 0,41,42
 120 193 120 193 119 126 c 0,43,44
 119 90 119 90 139 68.5 c 128,-1,45
 159 47 159 47 195 47 c 0,46,47
 234 47 234 47 275 68 c 0,48,49
 324 93 324 93 324 132 c 2,50,-1
 324 233 l 1,37,38
355 546 m 256,51,52
 333 546 333 546 319 561 c 128,-1,53
 305 576 305 576 305 598 c 256,54,55
 305 620 305 620 319 635 c 128,-1,56
 333 650 333 650 355 650 c 0,57,58
 376 650 376 650 390.5 634.5 c 128,-1,59
 405 619 405 619 405 598 c 0,60,61
 405 576 405 576 391 561 c 128,-1,62
 377 546 377 546 355 546 c 256,51,52
145 546 m 256,63,64
 123 546 123 546 109 561 c 128,-1,65
 95 576 95 576 95 598 c 256,66,67
 95 620 95 620 109 635 c 128,-1,68
 123 650 123 650 145 650 c 0,69,70
 166 650 166 650 180.5 634.5 c 128,-1,71
 195 619 195 619 195 598 c 0,72,73
 195 576 195 576 181 561 c 128,-1,74
 167 546 167 546 145 546 c 256,63,64
EndSplineSet
EndChar

StartChar: atilde
Encoding: 227 227 108
Width: 491
Flags: W
LayerCount: 2
Fore
SplineSet
399 -11 m 0,0,1
 358 -11 358 -11 336 37 c 1,2,3
 303 12 303 12 285 4 c 0,4,5
 242 -16 242 -16 184 -16 c 0,6,7
 121 -16 121 -16 83.5 24 c 128,-1,8
 46 64 46 64 46 127 c 0,9,10
 46 208 46 208 95 244 c 0,11,12
 127 267 127 267 216 288 c 0,13,14
 250 296 250 296 324 303 c 1,15,-1
 324 366 l 2,16,17
 324 399 324 399 298.5 420 c 128,-1,18
 273 441 273 441 239 441 c 0,19,20
 184 441 184 441 106 377 c 1,21,-1
 65 433 l 1,22,23
 96 461 96 461 147 485 c 0,24,25
 203 512 203 512 239 512 c 0,26,27
 308 512 308 512 355 469 c 128,-1,28
 402 426 402 426 402 357 c 2,29,-1
 402 75 l 1,30,31
 407 55 407 55 423 55 c 0,32,33
 434 54 434 54 465 76 c 1,34,-1
 481 24 l 1,35,36
 448 -11 448 -11 399 -11 c 0,0,1
324 233 m 1,37,38
 293 233 293 233 248 224 c 0,39,40
 234 221 234 221 191 211 c 0,41,42
 120 193 120 193 119 126 c 0,43,44
 119 90 119 90 139 68.5 c 128,-1,45
 159 47 159 47 195 47 c 0,46,47
 234 47 234 47 275 68 c 0,48,49
 324 93 324 93 324 132 c 2,50,-1
 324 233 l 1,37,38
312 549 m 0,51,52
 286 549 286 549 237 583.5 c 128,-1,53
 188 618 188 618 176 618 c 0,54,55
 137 618 137 618 106 576 c 1,56,-1
 80 635 l 1,57,58
 94 655 94 655 122.5 669.5 c 128,-1,59
 151 684 151 684 176 685 c 256,60,61
 201 686 201 686 247 651.5 c 128,-1,62
 293 617 293 617 310 617 c 0,63,64
 333 617 333 617 360 642 c 1,65,-1
 386 582 l 1,66,67
 377 572 377 572 351.5 560.5 c 128,-1,68
 326 549 326 549 312 549 c 0,51,52
EndSplineSet
EndChar

StartChar: aring
Encoding: 229 229 109
Width: 491
Flags: W
LayerCount: 2
Fore
SplineSet
399 -11 m 0,0,1
 358 -11 358 -11 336 37 c 1,2,3
 303 12 303 12 285 4 c 0,4,5
 242 -16 242 -16 184 -16 c 0,6,7
 121 -16 121 -16 83.5 24 c 128,-1,8
 46 64 46 64 46 127 c 0,9,10
 46 208 46 208 95 244 c 0,11,12
 127 267 127 267 216 288 c 0,13,14
 250 296 250 296 324 303 c 1,15,-1
 324 366 l 2,16,17
 324 399 324 399 298.5 420 c 128,-1,18
 273 441 273 441 239 441 c 0,19,20
 184 441 184 441 106 377 c 1,21,-1
 65 433 l 1,22,23
 96 461 96 461 147 485 c 0,24,25
 203 512 203 512 239 512 c 0,26,27
 308 512 308 512 355 469 c 128,-1,28
 402 426 402 426 402 357 c 2,29,-1
 402 75 l 1,30,31
 407 55 407 55 423 55 c 0,32,33
 434 54 434 54 465 76 c 1,34,-1
 481 24 l 1,35,36
 448 -11 448 -11 399 -11 c 0,0,1
324 233 m 1,37,38
 293 233 293 233 248 224 c 0,39,40
 234 221 234 221 191 211 c 0,41,42
 120 193 120 193 119 126 c 0,43,44
 119 90 119 90 139 68.5 c 128,-1,45
 159 47 159 47 195 47 c 0,46,47
 234 47 234 47 275 68 c 0,48,49
 324 93 324 93 324 132 c 2,50,-1
 324 233 l 1,37,38
240 566 m 0,51,52
 201 566 201 566 175.5 590 c 128,-1,53
 150 614 150 614 150 653 c 0,54,55
 150 691 150 691 175.5 715 c 128,-1,56
 201 739 201 739 240 739 c 256,57,58
 279 739 279 739 305 715.5 c 128,-1,59
 331 692 331 692 331 653 c 256,60,61
 331 614 331 614 305.5 590 c 128,-1,62
 280 566 280 566 240 566 c 0,51,52
240 696 m 0,63,64
 198 696 198 696 198 653 c 0,65,66
 198 609 198 609 240 609 c 0,67,68
 283 609 283 609 283 653 c 0,69,70
 283 696 283 696 240 696 c 0,63,64
EndSplineSet
EndChar

StartChar: ccedilla
Encoding: 231 231 110
Width: 483
Flags: W
LayerCount: 2
Fore
SplineSet
295 -219 m 0,0,1
 232 -219 232 -219 209 -171 c 1,2,-1
 246 -137 l 1,3,4
 274 -169 274 -169 296 -169 c 0,5,6
 332 -169 332 -169 332 -135 c 0,7,8
 332 -96 332 -96 298 -96 c 0,9,10
 284 -96 284 -96 264 -111 c 1,11,-1
 217 -90 l 1,12,-1
 222 -7 l 1,13,14
 121 11 121 11 75 104 c 0,15,16
 44 167 44 167 44 242 c 0,17,18
 44 356 44 356 102 429 c 0,19,20
 165 508 165 508 276 507 c 0,21,22
 364 506 364 506 433 454 c 1,23,-1
 391 388 l 1,24,25
 325 439 325 439 266 439 c 0,26,27
 194 439 194 439 157 371 c 0,28,29
 128 317 128 317 127 238 c 0,30,31
 126 165 126 165 163 114 c 0,32,33
 204 57 204 57 274 57 c 0,34,35
 346 57 346 57 408 112 c 1,36,-1
 447 60 l 1,37,38
 375 -10 375 -10 279 -12 c 1,39,-1
 276 -47 l 1,40,41
 285 -43 285 -43 301 -43 c 0,42,43
 339 -43 339 -43 365.5 -68.5 c 128,-1,44
 392 -94 392 -94 392 -132 c 0,45,46
 392 -172 392 -172 364 -195.5 c 128,-1,47
 336 -219 336 -219 295 -219 c 0,0,1
EndSplineSet
EndChar

StartChar: eacute
Encoding: 233 233 111
Width: 497
Flags: W
LayerCount: 2
Fore
SplineSet
129 257 m 1,0,1
 129 110 129 110 214 71 c 0,2,3
 247 56 247 56 283 56 c 0,4,5
 342 56 342 56 414 120 c 1,6,-1
 453 64 l 1,7,8
 373 -12 373 -12 275 -12 c 0,9,10
 139 -12 139 -12 81 90 c 0,11,12
 44 155 44 155 44 247 c 0,13,14
 44 361 44 361 104 432 c 0,15,16
 167 507 167 507 279 507 c 0,17,18
 361 507 361 507 410 454 c 128,-1,19
 459 401 459 401 459 318 c 2,20,-1
 459 257 l 1,21,-1
 129 257 l 1,0,1
380 332 m 2,22,23
 380 441 380 441 272 441 c 0,24,25
 212 441 212 441 180 410 c 0,26,27
 152 382 152 382 136 320 c 1,28,-1
 380 320 l 1,29,-1
 380 332 l 2,22,23
183 557 m 1,30,-1
 136 616 l 1,31,-1
 346 712 l 1,32,-1
 393 647 l 1,33,-1
 183 557 l 1,30,-1
EndSplineSet
EndChar

StartChar: egrave
Encoding: 232 232 112
Width: 497
Flags: W
LayerCount: 2
Fore
SplineSet
129 257 m 1,0,1
 129 110 129 110 214 71 c 0,2,3
 247 56 247 56 283 56 c 0,4,5
 342 56 342 56 414 120 c 1,6,-1
 453 64 l 1,7,8
 373 -12 373 -12 275 -12 c 0,9,10
 139 -12 139 -12 81 90 c 0,11,12
 44 155 44 155 44 247 c 0,13,14
 44 361 44 361 104 432 c 0,15,16
 167 507 167 507 279 507 c 0,17,18
 361 507 361 507 410 454 c 128,-1,19
 459 401 459 401 459 318 c 2,20,-1
 459 257 l 1,21,-1
 129 257 l 1,0,1
380 332 m 2,22,23
 380 441 380 441 272 441 c 0,24,25
 212 441 212 441 180 410 c 0,26,27
 152 382 152 382 136 320 c 1,28,-1
 380 320 l 1,29,-1
 380 332 l 2,22,23
355 556 m 1,30,-1
 147 646 l 1,31,-1
 193 711 l 1,32,-1
 404 615 l 1,33,-1
 355 556 l 1,30,-1
EndSplineSet
EndChar

StartChar: ecircumflex
Encoding: 234 234 113
Width: 497
Flags: W
LayerCount: 2
Fore
SplineSet
129 257 m 1,0,1
 129 110 129 110 214 71 c 0,2,3
 247 56 247 56 283 56 c 0,4,5
 342 56 342 56 414 120 c 1,6,-1
 453 64 l 1,7,8
 373 -12 373 -12 275 -12 c 0,9,10
 139 -12 139 -12 81 90 c 0,11,12
 44 155 44 155 44 247 c 0,13,14
 44 361 44 361 104 432 c 0,15,16
 167 507 167 507 279 507 c 0,17,18
 361 507 361 507 410 454 c 128,-1,19
 459 401 459 401 459 318 c 2,20,-1
 459 257 l 1,21,-1
 129 257 l 1,0,1
380 332 m 2,22,23
 380 441 380 441 272 441 c 0,24,25
 212 441 212 441 180 410 c 0,26,27
 152 382 152 382 136 320 c 1,28,-1
 380 320 l 1,29,-1
 380 332 l 2,22,23
273 619 m 1,30,-1
 135 526 l 1,31,-1
 135 597 l 1,32,-1
 273 710 l 1,33,-1
 415 597 l 1,34,-1
 415 526 l 1,35,-1
 273 619 l 1,30,-1
EndSplineSet
EndChar

StartChar: edieresis
Encoding: 235 235 114
Width: 497
Flags: W
LayerCount: 2
Fore
SplineSet
129 257 m 1,0,1
 129 110 129 110 214 71 c 0,2,3
 247 56 247 56 283 56 c 0,4,5
 342 56 342 56 414 120 c 1,6,-1
 453 64 l 1,7,8
 373 -12 373 -12 275 -12 c 0,9,10
 139 -12 139 -12 81 90 c 0,11,12
 44 155 44 155 44 247 c 0,13,14
 44 361 44 361 104 432 c 0,15,16
 167 507 167 507 279 507 c 0,17,18
 361 507 361 507 410 454 c 128,-1,19
 459 401 459 401 459 318 c 2,20,-1
 459 257 l 1,21,-1
 129 257 l 1,0,1
380 332 m 2,22,23
 380 441 380 441 272 441 c 0,24,25
 212 441 212 441 180 410 c 0,26,27
 152 382 152 382 136 320 c 1,28,-1
 380 320 l 1,29,-1
 380 332 l 2,22,23
365 546 m 256,30,31
 343 546 343 546 329 561 c 128,-1,32
 315 576 315 576 315 598 c 256,33,34
 315 620 315 620 329 635 c 128,-1,35
 343 650 343 650 365 650 c 0,36,37
 386 650 386 650 400.5 634.5 c 128,-1,38
 415 619 415 619 415 598 c 0,39,40
 415 576 415 576 401 561 c 128,-1,41
 387 546 387 546 365 546 c 256,30,31
156 546 m 256,42,43
 134 546 134 546 120 561 c 128,-1,44
 106 576 106 576 106 598 c 256,45,46
 106 620 106 620 120 635 c 128,-1,47
 134 650 134 650 156 650 c 256,48,49
 178 650 178 650 191.5 635 c 128,-1,50
 205 620 205 620 205 598 c 256,51,52
 205 576 205 576 191.5 561 c 128,-1,53
 178 546 178 546 156 546 c 256,42,43
EndSplineSet
EndChar

StartChar: iacute
Encoding: 237 237 115
Width: 234
Flags: W
LayerCount: 2
Fore
SplineSet
77 0 m 1,0,-1
 77 495 l 1,1,-1
 157 495 l 1,2,-1
 157 0 l 1,3,-1
 77 0 l 1,0,-1
46 557 m 1,4,-1
 0 616 l 1,5,-1
 210 712 l 1,6,-1
 257 647 l 1,7,-1
 46 557 l 1,4,-1
EndSplineSet
EndChar

StartChar: igrave
Encoding: 236 236 116
Width: 249
Flags: W
LayerCount: 2
Fore
SplineSet
77 0 m 1,0,-1
 77 495 l 1,1,-1
 157 495 l 1,2,-1
 157 0 l 1,3,-1
 77 0 l 1,0,-1
208 556 m 1,4,-1
 0 646 l 1,5,-1
 46 711 l 1,6,-1
 257 615 l 1,7,-1
 208 556 l 1,4,-1
EndSplineSet
EndChar

StartChar: icircumflex
Encoding: 238 238 117
Width: 210
Flags: W
LayerCount: 2
Fore
SplineSet
77 0 m 1,0,-1
 77 495 l 1,1,-1
 157 495 l 1,2,-1
 157 0 l 1,3,-1
 77 0 l 1,0,-1
115 619 m 1,4,-1
 -22 526 l 1,5,-1
 -22 597 l 1,6,-1
 115 710 l 1,7,-1
 257 597 l 1,8,-1
 257 526 l 1,9,-1
 115 619 l 1,4,-1
EndSplineSet
EndChar

StartChar: idieresis
Encoding: 239 239 118
Width: 207
Flags: W
LayerCount: 2
Fore
SplineSet
77 0 m 1,0,-1
 77 495 l 1,1,-1
 157 495 l 1,2,-1
 157 0 l 1,3,-1
 77 0 l 1,0,-1
215 546 m 256,4,5
 193 546 193 546 179 561 c 128,-1,6
 165 576 165 576 165 598 c 256,7,8
 165 620 165 620 179 635 c 128,-1,9
 193 650 193 650 215 650 c 0,10,11
 236 650 236 650 250.5 634.5 c 128,-1,12
 265 619 265 619 265 598 c 0,13,14
 265 576 265 576 251 561 c 128,-1,15
 237 546 237 546 215 546 c 256,4,5
5 546 m 256,16,17
 -17 546 -17 546 -30.5 561 c 128,-1,18
 -44 576 -44 576 -44 598 c 256,19,20
 -44 620 -44 620 -30.5 635 c 128,-1,21
 -17 650 -17 650 5 650 c 256,22,23
 27 650 27 650 41 635 c 128,-1,24
 55 620 55 620 55 598 c 256,25,26
 55 576 55 576 41 561 c 128,-1,27
 27 546 27 546 5 546 c 256,16,17
EndSplineSet
EndChar

StartChar: ntilde
Encoding: 241 241 119
Width: 486
Flags: W
LayerCount: 2
Fore
SplineSet
376 0 m 1,0,-1
 376 325 l 2,1,2
 376 374 376 374 354 406 c 0,3,4
 329 443 329 443 282 443 c 0,5,6
 241 443 241 443 197 411 c 0,7,8
 147 375 147 375 147 328 c 2,9,-1
 147 0 l 1,10,-1
 68 0 l 1,11,-1
 68 495 l 1,12,-1
 147 495 l 1,13,-1
 147 439 l 1,14,15
 186 476 186 476 212 490 c 0,16,17
 249 511 249 511 291 511 c 0,18,19
 361 511 361 511 408 459.5 c 128,-1,20
 455 408 455 408 455 338 c 2,21,-1
 455 0 l 1,22,-1
 376 0 l 1,0,-1
333 549 m 0,23,24
 307 549 307 549 258 583.5 c 128,-1,25
 209 618 209 618 197 618 c 0,26,27
 158 618 158 618 127 576 c 1,28,-1
 101 635 l 1,29,30
 115 655 115 655 143.5 669.5 c 128,-1,31
 172 684 172 684 197 685 c 256,32,33
 222 686 222 686 268 651.5 c 128,-1,34
 314 617 314 617 331 617 c 0,35,36
 354 617 354 617 381 642 c 1,37,-1
 407 582 l 1,38,39
 398 572 398 572 372.5 560.5 c 128,-1,40
 347 549 347 549 333 549 c 0,23,24
EndSplineSet
EndChar

StartChar: oacute
Encoding: 243 243 120
Width: 543
Flags: W
LayerCount: 2
Fore
SplineSet
280 -11 m 0,0,1
 146 -11 146 -11 85 90 c 0,2,3
 44 158 44 158 44 252 c 0,4,5
 44 381 44 381 125 453 c 0,6,7
 192 512 192 512 282 512 c 0,8,9
 371 512 371 512 435 453 c 0,10,11
 513 382 513 382 513 252 c 0,12,13
 513 162 513 162 467 89 c 0,14,15
 404 -11 404 -11 280 -11 c 0,0,1
286 445 m 0,16,17
 207 445 207 445 165 383 c 0,18,19
 130 329 130 329 130 246 c 0,20,21
 130 167 130 167 163 116 c 0,22,23
 202 54 202 54 276 54 c 0,24,25
 353 54 353 54 392 117 c 0,26,27
 426 170 426 170 426 251 c 0,28,29
 426 328 426 328 395 381 c 0,30,31
 358 445 358 445 286 445 c 0,16,17
225 557 m 1,32,-1
 178 616 l 1,33,-1
 388 712 l 1,34,-1
 435 647 l 1,35,-1
 225 557 l 1,32,-1
EndSplineSet
EndChar

StartChar: ograve
Encoding: 242 242 121
Width: 543
Flags: W
LayerCount: 2
Fore
SplineSet
280 -11 m 0,0,1
 146 -11 146 -11 85 90 c 0,2,3
 44 158 44 158 44 252 c 0,4,5
 44 381 44 381 125 453 c 0,6,7
 192 512 192 512 282 512 c 0,8,9
 371 512 371 512 435 453 c 0,10,11
 513 382 513 382 513 252 c 0,12,13
 513 162 513 162 467 89 c 0,14,15
 404 -11 404 -11 280 -11 c 0,0,1
286 445 m 0,16,17
 207 445 207 445 165 383 c 0,18,19
 130 329 130 329 130 246 c 0,20,21
 130 167 130 167 163 116 c 0,22,23
 202 54 202 54 276 54 c 0,24,25
 353 54 353 54 392 117 c 0,26,27
 426 170 426 170 426 251 c 0,28,29
 426 328 426 328 395 381 c 0,30,31
 358 445 358 445 286 445 c 0,16,17
387 556 m 1,32,-1
 178 646 l 1,33,-1
 225 711 l 1,34,-1
 435 615 l 1,35,-1
 387 556 l 1,32,-1
EndSplineSet
EndChar

StartChar: ocircumflex
Encoding: 244 244 122
Width: 543
Flags: W
LayerCount: 2
Fore
SplineSet
280 -11 m 0,0,1
 146 -11 146 -11 85 90 c 0,2,3
 44 158 44 158 44 252 c 0,4,5
 44 381 44 381 125 453 c 0,6,7
 192 512 192 512 282 512 c 0,8,9
 371 512 371 512 435 453 c 0,10,11
 513 382 513 382 513 252 c 0,12,13
 513 162 513 162 467 89 c 0,14,15
 404 -11 404 -11 280 -11 c 0,0,1
286 445 m 0,16,17
 207 445 207 445 165 383 c 0,18,19
 130 329 130 329 130 246 c 0,20,21
 130 167 130 167 163 116 c 0,22,23
 202 54 202 54 276 54 c 0,24,25
 353 54 353 54 392 117 c 0,26,27
 426 170 426 170 426 251 c 0,28,29
 426 328 426 328 395 381 c 0,30,31
 358 445 358 445 286 445 c 0,16,17
283 619 m 1,32,-1
 146 526 l 1,33,-1
 146 597 l 1,34,-1
 283 710 l 1,35,-1
 425 597 l 1,36,-1
 425 526 l 1,37,-1
 283 619 l 1,32,-1
EndSplineSet
EndChar

StartChar: odieresis
Encoding: 246 246 123
Width: 543
Flags: W
LayerCount: 2
Fore
SplineSet
280 -11 m 0,0,1
 146 -11 146 -11 85 90 c 0,2,3
 44 158 44 158 44 252 c 0,4,5
 44 381 44 381 125 453 c 0,6,7
 192 512 192 512 282 512 c 0,8,9
 371 512 371 512 435 453 c 0,10,11
 513 382 513 382 513 252 c 0,12,13
 513 162 513 162 467 89 c 0,14,15
 404 -11 404 -11 280 -11 c 0,0,1
286 445 m 0,16,17
 207 445 207 445 165 383 c 0,18,19
 130 329 130 329 130 246 c 0,20,21
 130 167 130 167 163 116 c 0,22,23
 202 54 202 54 276 54 c 0,24,25
 353 54 353 54 392 117 c 0,26,27
 426 170 426 170 426 251 c 0,28,29
 426 328 426 328 395 381 c 0,30,31
 358 445 358 445 286 445 c 0,16,17
386 546 m 256,32,33
 364 546 364 546 350 561 c 128,-1,34
 336 576 336 576 336 598 c 256,35,36
 336 620 336 620 350 635 c 128,-1,37
 364 650 364 650 386 650 c 0,38,39
 407 650 407 650 421.5 634.5 c 128,-1,40
 436 619 436 619 436 598 c 0,41,42
 436 576 436 576 422 561 c 128,-1,43
 408 546 408 546 386 546 c 256,32,33
177 546 m 256,44,45
 155 546 155 546 141 561 c 128,-1,46
 127 576 127 576 127 598 c 256,47,48
 127 620 127 620 141 635 c 128,-1,49
 155 650 155 650 177 650 c 256,50,51
 199 650 199 650 212.5 635 c 128,-1,52
 226 620 226 620 226 598 c 256,53,54
 226 576 226 576 212.5 561 c 128,-1,55
 199 546 199 546 177 546 c 256,44,45
EndSplineSet
EndChar

StartChar: otilde
Encoding: 245 245 124
Width: 543
Flags: W
LayerCount: 2
Fore
SplineSet
280 -11 m 0,0,1
 146 -11 146 -11 85 90 c 0,2,3
 44 158 44 158 44 252 c 0,4,5
 44 381 44 381 125 453 c 0,6,7
 192 512 192 512 282 512 c 0,8,9
 371 512 371 512 435 453 c 0,10,11
 513 382 513 382 513 252 c 0,12,13
 513 162 513 162 467 89 c 0,14,15
 404 -11 404 -11 280 -11 c 0,0,1
286 445 m 0,16,17
 207 445 207 445 165 383 c 0,18,19
 130 329 130 329 130 246 c 0,20,21
 130 167 130 167 163 116 c 0,22,23
 202 54 202 54 276 54 c 0,24,25
 353 54 353 54 392 117 c 0,26,27
 426 170 426 170 426 251 c 0,28,29
 426 328 426 328 395 381 c 0,30,31
 358 445 358 445 286 445 c 0,16,17
364 549 m 0,32,33
 339 549 339 549 290.5 583.5 c 128,-1,34
 242 618 242 618 229 618 c 0,35,36
 190 618 190 618 159 576 c 1,37,-1
 132 635 l 1,38,39
 146 656 146 656 174.5 670 c 128,-1,40
 203 684 203 684 229 685 c 0,41,42
 254 686 254 686 299.5 651.5 c 128,-1,43
 345 617 345 617 362 617 c 0,44,45
 387 617 387 617 412 642 c 1,46,-1
 438 582 l 1,47,48
 429 571 429 571 403.5 560 c 128,-1,49
 378 549 378 549 364 549 c 0,32,33
EndSplineSet
EndChar

StartChar: uacute
Encoding: 250 250 125
Width: 482
Flags: W
LayerCount: 2
Fore
SplineSet
451 0 m 1,0,-1
 380 0 l 1,1,2
 377 14 377 14 370 52 c 1,3,4
 295 -18 295 -18 216 -18 c 0,5,6
 148 -18 148 -18 106 38 c 0,7,8
 68 90 68 90 68 160 c 2,9,-1
 68 495 l 1,10,-1
 147 495 l 1,11,-1
 147 164 l 2,12,13
 147 53 147 53 235 53 c 0,14,15
 277 53 277 53 325 88 c 128,-1,16
 373 123 373 123 373 164 c 2,17,-1
 373 495 l 1,18,-1
 451 495 l 1,19,-1
 451 0 l 1,0,-1
183 557 m 1,20,-1
 136 616 l 1,21,-1
 346 712 l 1,22,-1
 393 647 l 1,23,-1
 183 557 l 1,20,-1
EndSplineSet
EndChar

StartChar: ugrave
Encoding: 249 249 126
Width: 482
Flags: W
LayerCount: 2
Fore
SplineSet
451 0 m 1,0,-1
 380 0 l 1,1,2
 377 14 377 14 370 52 c 1,3,4
 295 -18 295 -18 216 -18 c 0,5,6
 148 -18 148 -18 106 38 c 0,7,8
 68 90 68 90 68 160 c 2,9,-1
 68 495 l 1,10,-1
 147 495 l 1,11,-1
 147 164 l 2,12,13
 147 53 147 53 235 53 c 0,14,15
 277 53 277 53 325 88 c 128,-1,16
 373 123 373 123 373 164 c 2,17,-1
 373 495 l 1,18,-1
 451 495 l 1,19,-1
 451 0 l 1,0,-1
355 556 m 1,20,-1
 147 646 l 1,21,-1
 193 711 l 1,22,-1
 404 615 l 1,23,-1
 355 556 l 1,20,-1
EndSplineSet
EndChar

StartChar: ucircumflex
Encoding: 251 251 127
Width: 482
Flags: W
LayerCount: 2
Fore
SplineSet
451 0 m 1,0,-1
 380 0 l 1,1,2
 377 14 377 14 370 52 c 1,3,4
 295 -18 295 -18 216 -18 c 0,5,6
 148 -18 148 -18 106 38 c 0,7,8
 68 90 68 90 68 160 c 2,9,-1
 68 495 l 1,10,-1
 147 495 l 1,11,-1
 147 164 l 2,12,13
 147 53 147 53 235 53 c 0,14,15
 277 53 277 53 325 88 c 128,-1,16
 373 123 373 123 373 164 c 2,17,-1
 373 495 l 1,18,-1
 451 495 l 1,19,-1
 451 0 l 1,0,-1
262 619 m 1,20,-1
 125 526 l 1,21,-1
 125 597 l 1,22,-1
 262 710 l 1,23,-1
 404 597 l 1,24,-1
 404 526 l 1,25,-1
 262 619 l 1,20,-1
EndSplineSet
EndChar

StartChar: udieresis
Encoding: 252 252 128
Width: 482
Flags: W
LayerCount: 2
Fore
SplineSet
451 0 m 1,0,-1
 380 0 l 1,1,2
 377 14 377 14 370 52 c 1,3,4
 295 -18 295 -18 216 -18 c 0,5,6
 148 -18 148 -18 106 38 c 0,7,8
 68 90 68 90 68 160 c 2,9,-1
 68 495 l 1,10,-1
 147 495 l 1,11,-1
 147 164 l 2,12,13
 147 53 147 53 235 53 c 0,14,15
 277 53 277 53 325 88 c 128,-1,16
 373 123 373 123 373 164 c 2,17,-1
 373 495 l 1,18,-1
 451 495 l 1,19,-1
 451 0 l 1,0,-1
365 546 m 256,20,21
 343 546 343 546 329 561 c 128,-1,22
 315 576 315 576 315 598 c 256,23,24
 315 620 315 620 329 635 c 128,-1,25
 343 650 343 650 365 650 c 0,26,27
 386 650 386 650 400.5 634.5 c 128,-1,28
 415 619 415 619 415 598 c 0,29,30
 415 576 415 576 401 561 c 128,-1,31
 387 546 387 546 365 546 c 256,20,21
156 546 m 256,32,33
 134 546 134 546 120 561 c 128,-1,34
 106 576 106 576 106 598 c 256,35,36
 106 620 106 620 120 635 c 128,-1,37
 134 650 134 650 156 650 c 256,38,39
 178 650 178 650 191.5 635 c 128,-1,40
 205 620 205 620 205 598 c 256,41,42
 205 576 205 576 191.5 561 c 128,-1,43
 178 546 178 546 156 546 c 256,32,33
EndSplineSet
EndChar

StartChar: dagger
Encoding: 258 8224 129
Width: 221
Flags: W
LayerCount: 2
Fore
SplineSet
192 559 m 1,0,-1
 122 559 l 1,1,-1
 122 333 l 1,2,-1
 83 333 l 1,3,-1
 83 559 l 1,4,-1
 23 559 l 1,5,-1
 23 593 l 1,6,-1
 83 593 l 1,7,-1
 83 655 l 1,8,-1
 122 655 l 1,9,-1
 122 593 l 1,10,-1
 192 593 l 1,11,-1
 192 559 l 1,0,-1
EndSplineSet
EndChar

StartChar: degree
Encoding: 176 176 130
Width: 273
Flags: W
LayerCount: 2
Fore
SplineSet
138 712 m 256,0,1
 194 712 194 712 231 675 c 128,-1,2
 268 638 268 638 268 582 c 256,3,4
 268 526 268 526 231 489 c 128,-1,5
 194 452 194 452 138 452 c 256,6,7
 82 452 82 452 43.5 489 c 128,-1,8
 5 526 5 526 5 582 c 256,9,10
 5 638 5 638 43.5 675 c 128,-1,11
 82 712 82 712 138 712 c 256,0,1
138 662 m 0,12,13
 103 662 103 662 80.5 639.5 c 128,-1,14
 58 617 58 617 58 582 c 256,15,16
 58 547 58 547 80.5 524.5 c 128,-1,17
 103 502 103 502 138 502 c 0,18,19
 172 502 172 502 193.5 525 c 128,-1,20
 215 548 215 548 215 582 c 256,21,22
 215 616 215 616 193.5 639 c 128,-1,23
 172 662 172 662 138 662 c 0,12,13
EndSplineSet
EndChar

StartChar: cent
Encoding: 162 162 131
Width: 479
Flags: W
LayerCount: 2
Fore
SplineSet
225 -10 m 1,0,1
 118 6 118 6 70 101 c 0,2,3
 38 164 38 164 38 242 c 0,4,5
 38 343 38 343 82 411 c 0,6,7
 131 488 131 488 225 504 c 1,8,-1
 225 590 l 1,9,-1
 314 590 l 1,10,-1
 314 505 l 1,11,12
 377 494 377 494 429 454 c 1,13,-1
 386 386 l 1,14,15
 323 435 323 435 260 435 c 0,16,17
 188 435 188 435 152 369 c 0,18,19
 123 316 123 316 123 238 c 0,20,21
 123 165 123 165 159 116 c 0,22,23
 199 61 199 61 269 61 c 0,24,25
 345 61 345 61 403 114 c 1,26,-1
 443 60 l 1,27,28
 385 3 385 3 314 -9 c 1,29,-1
 314 -89 l 1,30,-1
 225 -89 l 1,31,-1
 225 -10 l 1,0,1
EndSplineSet
EndChar

StartChar: sterling
Encoding: 163 163 132
Width: 476
Flags: W
LayerCount: 2
Fore
SplineSet
426 -7 m 1,0,1
 374 7 374 7 297 7 c 0,2,3
 165 7 165 7 80 -14 c 1,4,-1
 69 54 l 1,5,6
 85 58 85 58 108 67 c 0,7,8
 114 69 114 69 125 80 c 0,9,10
 159 113 159 113 159 171 c 0,11,12
 159 236 159 236 145 301 c 1,13,-1
 85 301 l 1,14,-1
 85 370 l 1,15,-1
 138 370 l 1,16,17
 123 460 123 460 123 476 c 0,18,19
 123 555 123 555 167 605.5 c 128,-1,20
 211 656 211 656 289 656 c 0,21,22
 351 656 351 656 407 624 c 1,23,-1
 377 563 l 1,24,25
 317 592 317 592 295 592 c 0,26,27
 249 592 249 592 220 554 c 0,28,29
 194 520 194 520 194 472 c 0,30,31
 194 455 194 455 211 370 c 1,32,-1
 347 370 l 1,33,-1
 347 301 l 1,34,-1
 228 301 l 1,35,36
 234 240 234 240 234 178 c 0,37,38
 234 101 234 101 204 76 c 1,39,40
 283 87 283 87 313 87 c 0,41,42
 381 87 381 87 442 70 c 1,43,-1
 426 -7 l 1,0,1
EndSplineSet
EndChar

StartChar: section
Encoding: 167 167 133
Width: 392
Flags: W
LayerCount: 2
Fore
SplineSet
186 -87 m 0,0,1
 109 -87 109 -87 56 -35 c 1,2,-1
 88 14 l 1,3,4
 131 -31 131 -31 191 -31 c 0,5,6
 215 -31 215 -31 236 -13.5 c 128,-1,7
 257 4 257 4 257 27 c 0,8,9
 257 65 257 65 192 82 c 0,10,11
 182 85 182 85 154 92 c 0,12,13
 142 95 142 95 137 98 c 1,14,15
 72 120 72 120 72 183 c 0,16,17
 72 243 72 243 118 274 c 1,18,19
 72 298 72 298 72 351 c 0,20,21
 72 403 72 403 106.5 435 c 128,-1,22
 141 467 141 467 193 466 c 0,23,24
 246 465 246 465 301 431 c 1,25,-1
 279 381 l 1,26,27
 225 415 225 415 191 415 c 0,28,29
 159 415 159 415 146 402 c 128,-1,30
 133 389 133 389 133 357 c 0,31,32
 133 340 133 340 160 328 c 0,33,34
 177 323 177 323 224 310 c 0,35,36
 321 282 321 282 321 208 c 0,37,38
 321 147 321 147 280 117 c 1,39,40
 321 93 321 93 321 40 c 0,41,42
 321 -19 321 -19 283.5 -53 c 128,-1,43
 246 -87 246 -87 186 -87 c 0,0,1
182 253 m 1,44,45
 133 247 133 247 133 189 c 0,46,47
 133 167 133 167 187 152 c 0,48,49
 200 148 200 148 218 143 c 1,50,51
 257 160 257 160 257 195 c 0,52,53
 257 221 257 221 236 234 c 0,54,55
 221 243 221 243 182 253 c 1,44,45
EndSplineSet
EndChar

StartChar: bullet
Encoding: 259 8226 134
Width: 282
Flags: W
LayerCount: 2
Fore
SplineSet
140 190 m 0,0,1
 99 190 99 190 73.5 220 c 128,-1,2
 48 250 48 250 48 291 c 256,3,4
 48 332 48 332 74 361.5 c 128,-1,5
 100 391 100 391 140 391 c 256,6,7
 180 391 180 391 205.5 361 c 128,-1,8
 231 331 231 331 231 291 c 256,9,10
 231 251 231 251 205.5 220.5 c 128,-1,11
 180 190 180 190 140 190 c 0,0,1
EndSplineSet
EndChar

StartChar: paragraph
Encoding: 182 182 135
Width: 507
Flags: W
LayerCount: 2
Fore
SplineSet
437 0 m 1,0,-1
 368 0 l 1,1,-1
 368 642 l 1,2,-1
 437 642 l 1,3,-1
 437 0 l 1,0,-1
297 0 m 1,4,-1
 228 0 l 1,5,-1
 228 337 l 1,6,-1
 203 337 l 2,7,8
 49 337 49 337 50 493 c 0,9,10
 50 574 50 574 87 608 c 128,-1,11
 124 642 124 642 206 642 c 2,12,-1
 297 642 l 1,13,-1
 297 0 l 1,4,-1
EndSplineSet
EndChar

StartChar: germandbls
Encoding: 223 223 136
Width: 549
Flags: W
LayerCount: 2
Fore
SplineSet
334 -15 m 0,0,1
 272 -15 272 -15 233 -1 c 0,2,3
 187 16 187 16 150 58 c 1,4,-1
 192 123 l 1,5,6
 220 84 220 84 251 71 c 0,7,8
 278 59 278 59 329 59 c 0,9,10
 365 59 365 59 393 81 c 128,-1,11
 421 103 421 103 421 138 c 0,12,13
 421 190 421 190 343 216 c 0,14,15
 316 224 316 224 262 241 c 0,16,17
 164 274 164 274 164 360 c 0,18,19
 164 434 164 434 204.5 474 c 128,-1,20
 245 514 245 514 319 514 c 0,21,22
 339 514 339 514 358 511 c 1,23,24
 371 531 371 531 371 538 c 0,25,26
 371 599 371 599 329 626 c 0,27,28
 293 649 293 649 249 649 c 0,29,30
 193 649 193 649 162 617 c 128,-1,31
 131 585 131 585 131 529 c 2,32,-1
 131 0 l 1,33,-1
 53 0 l 1,34,-1
 53 529 l 2,35,36
 53 715 53 715 254 715 c 0,37,38
 340 715 340 715 394 670 c 0,39,40
 450 622 450 622 450 537 c 0,41,42
 450 488 450 488 414 428 c 1,43,44
 368 444 368 444 318 447 c 0,45,46
 286 449 286 449 263 428 c 128,-1,47
 240 407 240 407 240 375 c 0,48,49
 240 351 240 351 268 334 c 0,50,51
 286 323 286 323 337 307 c 0,52,53
 372 296 372 296 416 281 c 0,54,55
 464 261 464 261 483.5 229 c 128,-1,56
 503 197 503 197 503 144 c 0,57,58
 503 78 503 78 452 31.5 c 128,-1,59
 401 -15 401 -15 334 -15 c 0,0,1
EndSplineSet
EndChar

StartChar: registered
Encoding: 174 174 137
Width: 796
Flags: W
LayerCount: 2
Fore
SplineSet
133 316 m 1,0,-1
 132 316 l 1,1,2
 132 205 132 205 209.5 127.5 c 128,-1,3
 287 50 287 50 398 50 c 256,4,5
 509 50 509 50 586.5 127.5 c 128,-1,6
 664 205 664 205 664 316 c 256,7,8
 664 427 664 427 586.5 504.5 c 128,-1,9
 509 582 509 582 398 582 c 256,10,11
 287 582 287 582 210 504.5 c 128,-1,12
 133 427 133 427 133 316 c 1,0,-1
67 316 m 256,13,14
 67 454 67 454 163.5 550.5 c 128,-1,15
 260 647 260 647 398 647 c 256,16,17
 536 647 536 647 632.5 550.5 c 128,-1,18
 729 454 729 454 729 316 c 256,19,20
 729 178 729 178 632.5 81.5 c 128,-1,21
 536 -15 536 -15 398 -15 c 256,22,23
 260 -15 260 -15 163.5 81.5 c 128,-1,24
 67 178 67 178 67 316 c 256,13,14
491 108 m 1,25,26
 435 164 435 164 352 300 c 1,27,-1
 323 299 l 1,28,-1
 323 114 l 1,29,-1
 266 114 l 1,30,-1
 266 524 l 1,31,32
 371 526 371 526 395 526 c 0,33,34
 507 525 507 525 506 413 c 0,35,36
 505 322 505 322 408 304 c 1,37,38
 446 251 446 251 477 211 c 0,39,40
 500 181 500 181 562 121 c 1,41,-1
 491 108 l 1,25,26
379 487 m 2,42,-1
 323 486 l 1,43,-1
 323 342 l 1,44,-1
 365 342 l 2,45,46
 412 342 412 342 433 358.5 c 128,-1,47
 454 375 454 375 454 420 c 0,48,49
 454 488 454 488 379 487 c 2,42,-1
EndSplineSet
EndChar

StartChar: copyright
Encoding: 169 169 138
Width: 796
Flags: W
LayerCount: 2
Fore
SplineSet
396 102 m 0,0,1
 309 102 309 102 260 168 c 0,2,3
 217 228 217 228 217 318 c 0,4,5
 217 406 217 406 263 465 c 0,6,7
 313 529 313 529 398 530 c 0,8,9
 457 530 457 530 519 495 c 1,10,-1
 495 444 l 1,11,12
 436 480 436 480 401 480 c 0,13,14
 337 480 337 480 302 419 c 0,15,16
 275 372 275 372 275 310 c 0,17,18
 275 250 275 250 305 205 c 0,19,20
 339 153 339 153 396 153 c 0,21,22
 449 153 449 153 498 181 c 1,23,-1
 523 139 l 1,24,25
 453 102 453 102 396 102 c 0,0,1
132 316 m 256,26,27
 132 205 132 205 209.5 127.5 c 128,-1,28
 287 50 287 50 398 50 c 256,29,30
 509 50 509 50 586.5 127.5 c 128,-1,31
 664 205 664 205 664 316 c 256,32,33
 664 427 664 427 586.5 504.5 c 128,-1,34
 509 582 509 582 398 582 c 256,35,36
 287 582 287 582 209.5 504.5 c 128,-1,37
 132 427 132 427 132 316 c 256,26,27
67 316 m 256,38,39
 67 454 67 454 163.5 550.5 c 128,-1,40
 260 647 260 647 398 647 c 256,41,42
 536 647 536 647 632.5 550.5 c 128,-1,43
 729 454 729 454 729 316 c 256,44,45
 729 178 729 178 632.5 81.5 c 128,-1,46
 536 -15 536 -15 398 -15 c 256,47,48
 260 -15 260 -15 163.5 81.5 c 128,-1,49
 67 178 67 178 67 316 c 256,38,39
EndSplineSet
EndChar

StartChar: trademark
Encoding: 260 8482 139
Width: 641
Flags: W
LayerCount: 2
Fore
SplineSet
174 315 m 1,0,-1
 110 315 l 1,1,-1
 110 590 l 1,2,-1
 15 590 l 1,3,-1
 15 642 l 1,4,-1
 263 642 l 1,5,-1
 263 590 l 1,6,-1
 174 590 l 1,7,-1
 174 315 l 1,0,-1
555 514 m 1,8,-1
 479 315 l 1,9,-1
 425 315 l 1,10,-1
 348 516 l 1,11,-1
 348 315 l 1,12,-1
 288 315 l 1,13,-1
 288 644 l 1,14,-1
 366 644 l 1,15,-1
 455 415 l 1,16,-1
 544 644 l 1,17,-1
 619 644 l 1,18,-1
 619 315 l 1,19,-1
 555 315 l 1,20,-1
 555 514 l 1,8,-1
EndSplineSet
EndChar

StartChar: acute
Encoding: 261 180 140
Width: 329
Flags: W
LayerCount: 2
Fore
SplineSet
104 557 m 1,0,-1
 57 616 l 1,1,-1
 267 712 l 1,2,-1
 314 647 l 1,3,-1
 104 557 l 1,0,-1
EndSplineSet
EndChar

StartChar: dieresis
Encoding: 262 168 141
Width: 306
Flags: W
LayerCount: 2
Fore
SplineSet
255 546 m 256,0,1
 233 546 233 546 219 561 c 128,-1,2
 205 576 205 576 205 598 c 256,3,4
 205 620 205 620 219 635 c 128,-1,5
 233 650 233 650 255 650 c 0,6,7
 276 650 276 650 290.5 634.5 c 128,-1,8
 305 619 305 619 305 598 c 0,9,10
 305 576 305 576 291 561 c 128,-1,11
 277 546 277 546 255 546 c 256,0,1
45 546 m 256,12,13
 23 546 23 546 9 561 c 128,-1,14
 -5 576 -5 576 -5 598 c 256,15,16
 -5 620 -5 620 9 635 c 128,-1,17
 23 650 23 650 45 650 c 256,18,19
 67 650 67 650 81 635 c 128,-1,20
 95 620 95 620 95 598 c 256,21,22
 95 576 95 576 81 561 c 128,-1,23
 67 546 67 546 45 546 c 256,12,13
EndSplineSet
EndChar

StartChar: notequal
Encoding: 263 8800 142
Width: 441
Flags: W
LayerCount: 2
Fore
SplineSet
163 -15 m 1,0,-1
 102 6 l 1,1,-1
 146 135 l 1,2,-1
 51 135 l 1,3,-1
 51 200 l 1,4,-1
 168 200 l 1,5,-1
 198 287 l 1,6,-1
 51 287 l 1,7,-1
 51 352 l 1,8,-1
 221 352 l 1,9,-1
 284 534 l 1,10,-1
 345 513 l 1,11,-1
 290 352 l 1,12,-1
 389 352 l 1,13,-1
 389 287 l 1,14,-1
 267 287 l 1,15,-1
 237 200 l 1,16,-1
 389 200 l 1,17,-1
 389 135 l 1,18,-1
 215 135 l 1,19,-1
 163 -15 l 1,0,-1
EndSplineSet
EndChar

StartChar: AE
Encoding: 198 198 143
Width: 862
Flags: W
LayerCount: 2
Fore
SplineSet
281 551 m 1,0,-1
 190 248 l 1,1,-1
 374 248 l 1,2,-1
 281 551 l 1,0,-1
552 568 m 1,3,-1
 552 375 l 1,4,-1
 804 375 l 1,5,-1
 804 300 l 1,6,-1
 552 301 l 1,7,-1
 552 76 l 1,8,-1
 819 77 l 1,9,-1
 819 0 l 1,10,-1
 449 0 l 1,11,-1
 394 179 l 1,12,-1
 169 179 l 1,13,-1
 111 -10 l 1,14,-1
 29 0 l 1,15,-1
 242 654 l 1,16,-1
 322 654 l 1,17,-1
 463 227 l 1,18,-1
 463 640 l 1,19,-1
 822 640 l 1,20,-1
 822 568 l 1,21,-1
 552 568 l 1,3,-1
EndSplineSet
EndChar

StartChar: Oslash
Encoding: 216 216 144
Width: 644
Flags: W
LayerCount: 2
Fore
SplineSet
217 93 m 1,0,-1
 362 568 l 1,1,2
 346 572 346 572 324 572 c 0,3,4
 226 572 226 572 167 489 c 0,5,6
 115 415 115 415 115 313 c 0,7,8
 115 247 115 247 140 190 c 0,9,10
 167 128 167 128 217 93 c 1,0,-1
437 533 m 1,11,-1
 293 63 l 1,12,13
 311 61 311 61 319 61 c 0,14,15
 414 61 414 61 475 141 c 0,16,17
 531 215 531 215 531 312 c 0,18,19
 531 458 531 458 437 533 c 1,11,-1
397 682 m 1,20,-1
 475 658 l 1,21,-1
 461 612 l 1,22,23
 537 570 537 570 577 489 c 0,24,25
 613 414 613 414 613 322 c 0,26,27
 613 178 613 178 539 85 c 0,28,29
 459 -16 459 -16 319 -16 c 0,30,31
 291 -16 291 -16 270 -12 c 1,32,-1
 253 -69 l 1,33,-1
 175 -45 l 1,34,-1
 192 12 l 1,35,36
 32 91 32 91 32 322 c 0,37,38
 32 458 32 458 110 549 c 0,39,40
 192 646 192 646 326 646 c 0,41,42
 357 646 357 646 384 640 c 1,43,-1
 397 682 l 1,20,-1
EndSplineSet
EndChar

StartChar: infinity
Encoding: 264 8734 145
Width: 536
Flags: W
LayerCount: 2
Fore
SplineSet
383 264 m 0,0,1
 309 264 309 264 268 320 c 1,2,3
 225 264 225 264 152 264 c 0,4,5
 94 264 94 264 51.5 302.5 c 128,-1,6
 9 341 9 341 9 398 c 256,7,8
 9 455 9 455 51.5 493 c 128,-1,9
 94 531 94 531 152 531 c 0,10,11
 225 531 225 531 268 476 c 1,12,13
 310 531 310 531 383 531 c 0,14,15
 441 531 441 531 483.5 493 c 128,-1,16
 526 455 526 455 526 398 c 256,17,18
 526 341 526 341 483.5 302.5 c 128,-1,19
 441 264 441 264 383 264 c 0,0,1
383 482 m 0,20,21
 348 482 348 482 321.5 458 c 128,-1,22
 295 434 295 434 295 399 c 0,23,24
 295 363 295 363 321 339 c 128,-1,25
 347 315 347 315 383 315 c 256,26,27
 419 315 419 315 445 339 c 128,-1,28
 471 363 471 363 471 399 c 256,29,30
 471 435 471 435 445 458.5 c 128,-1,31
 419 482 419 482 383 482 c 0,20,21
152 482 m 0,32,33
 117 482 117 482 90.5 458 c 128,-1,34
 64 434 64 434 64 399 c 0,35,36
 64 362 64 362 89 339.5 c 128,-1,37
 114 317 114 317 152 317 c 256,38,39
 190 317 190 317 215 339 c 128,-1,40
 240 361 240 361 240 399 c 0,41,42
 240 435 240 435 214 458.5 c 128,-1,43
 188 482 188 482 152 482 c 0,32,33
EndSplineSet
EndChar

StartChar: plusminus
Encoding: 177 177 146
Width: 501
Flags: W
LayerCount: 2
Fore
SplineSet
279 280 m 1,0,-1
 279 95 l 1,1,-1
 217 95 l 1,2,-1
 217 279 l 1,3,-1
 53 280 l 1,4,-1
 53 342 l 1,5,-1
 217 342 l 1,6,-1
 217 517 l 1,7,-1
 279 517 l 1,8,-1
 279 342 l 1,9,-1
 446 342 l 1,10,-1
 446 280 l 1,11,-1
 279 280 l 1,0,-1
66 12 m 1,12,-1
 66 66 l 1,13,-1
 440 66 l 1,14,-1
 440 12 l 1,15,-1
 66 12 l 1,12,-1
EndSplineSet
EndChar

StartChar: lessequal
Encoding: 265 8804 147
Width: 250
Flags: W
LayerCount: 2
Fore
SplineSet
112 283 m 1,0,-1
 244 122 l 1,1,-1
 172 119 l 1,2,-1
 19 286 l 1,3,-1
 172 448 l 1,4,-1
 244 445 l 1,5,-1
 112 283 l 1,0,-1
21 34 m 1,6,-1
 21 74 l 1,7,-1
 242 74 l 1,8,-1
 242 34 l 1,9,-1
 21 34 l 1,6,-1
EndSplineSet
EndChar

StartChar: greaterequal
Encoding: 266 8805 148
Width: 250
Flags: W
LayerCount: 2
Fore
SplineSet
90 119 m 1,0,-1
 20 122 l 1,1,-1
 150 283 l 1,2,-1
 20 445 l 1,3,-1
 90 448 l 1,4,-1
 244 286 l 1,5,-1
 90 119 l 1,0,-1
21 34 m 1,6,-1
 21 74 l 1,7,-1
 242 74 l 1,8,-1
 242 34 l 1,9,-1
 21 34 l 1,6,-1
EndSplineSet
EndChar

StartChar: yen
Encoding: 165 165 149
Width: 531
Flags: W
LayerCount: 2
Fore
SplineSet
300 283 m 1,0,-1
 300 265 l 1,1,-1
 386 265 l 1,2,-1
 386 206 l 1,3,-1
 300 206 l 1,4,-1
 300 146 l 1,5,-1
 386 146 l 1,6,-1
 386 87 l 1,7,-1
 300 87 l 1,8,-1
 300 2 l 1,9,-1
 211 2 l 1,10,-1
 211 87 l 1,11,-1
 122 87 l 1,12,-1
 122 146 l 1,13,-1
 211 146 l 1,14,-1
 211 206 l 1,15,-1
 122 206 l 1,16,-1
 122 265 l 1,17,-1
 211 265 l 1,18,-1
 211 283 l 1,19,-1
 33 641 l 1,20,-1
 123 641 l 1,21,-1
 255 377 l 1,22,-1
 387 641 l 1,23,-1
 478 641 l 1,24,-1
 300 283 l 1,0,-1
EndSplineSet
EndChar

StartChar: mu
Encoding: 181 181 150
AltUni2: 0003bc.ffffffff.0
Width: 508
Flags: W
LayerCount: 2
Fore
SplineSet
444 -61 m 1,0,1
 378 -23 378 -23 364 61 c 1,2,3
 332 31 332 31 301 0 c 0,4,5
 274 -22 274 -22 241 -22 c 0,6,7
 212 -22 212 -22 184 -9 c 0,8,9
 153 5 153 5 141 29 c 1,10,-1
 141 -196 l 1,11,-1
 68 -196 l 1,12,-1
 68 486 l 1,13,-1
 141 486 l 1,14,-1
 141 144 l 2,15,16
 141 47 141 47 257 47 c 0,17,18
 293 47 293 47 327.5 80 c 128,-1,19
 362 113 362 113 362 149 c 2,20,-1
 362 487 l 1,21,-1
 442 487 l 1,22,-1
 442 116 l 2,23,24
 442 32 442 32 481 7 c 0,25,26
 501 -6 501 -6 508 -13 c 1,27,-1
 444 -61 l 1,0,1
EndSplineSet
EndChar

StartChar: partialdiff
Encoding: 267 8706 151
Width: 552
Flags: W
LayerCount: 2
Fore
SplineSet
269 -17 m 0,0,1
 167 -17 167 -17 104 58 c 0,2,3
 44 129 44 129 43 233 c 0,4,5
 42 355 42 355 98 424 c 0,6,7
 158 498 158 498 277 498 c 0,8,9
 315 498 315 498 355 485 c 0,10,11
 399 470 399 470 423 446 c 1,12,13
 419 484 419 484 402 525 c 0,14,15
 382 571 382 571 356 590 c 0,16,17
 313 621 313 621 237 621 c 0,18,19
 166 621 166 621 99 592 c 1,20,-1
 77 670 l 1,21,22
 146 690 146 690 217 690 c 0,23,24
 330 690 330 690 392 646 c 0,25,26
 510 563 510 563 510 296 c 0,27,28
 510 151 510 151 463 76 c 0,29,30
 405 -17 405 -17 269 -17 c 0,0,1
431 350 m 1,31,32
 365 440 365 440 276 440 c 0,33,34
 201 440 201 440 163 378 c 0,35,36
 131 326 131 326 131 246 c 0,37,38
 131 170 131 170 167 115 c 0,39,40
 208 52 208 52 280 52 c 0,41,42
 437 52 437 52 437 262 c 0,43,44
 437 306 437 306 431 350 c 1,31,32
EndSplineSet
EndChar

StartChar: summation
Encoding: 268 8721 152
Width: 491
Flags: W
LayerCount: 2
Fore
SplineSet
92 0 m 1,0,-1
 92 70 l 1,1,-1
 309 342 l 1,2,-1
 92 557 l 1,3,-1
 102 633 l 1,4,-1
 448 633 l 1,5,-1
 448 561 l 1,6,-1
 198 561 l 1,7,-1
 413 349 l 1,8,-1
 196 76 l 1,9,-1
 448 77 l 1,10,-1
 448 0 l 1,11,-1
 92 0 l 1,0,-1
EndSplineSet
EndChar

StartChar: product
Encoding: 269 8719 153
Width: 595
Flags: W
LayerCount: 2
Fore
SplineSet
511 0 m 1,0,-1
 415 0 l 1,1,-1
 415 562 l 1,2,-1
 218 562 l 1,3,-1
 218 0 l 1,4,-1
 123 0 l 1,5,-1
 123 642 l 1,6,-1
 511 642 l 1,7,-1
 511 0 l 1,0,-1
EndSplineSet
EndChar

StartChar: pi
Encoding: 270 960 154
Width: 518
Flags: W
LayerCount: 2
Fore
SplineSet
374 0 m 1,0,-1
 374 442 l 1,1,-1
 197 442 l 1,2,-1
 197 0 l 1,3,-1
 109 0 l 1,4,-1
 109 442 l 1,5,-1
 69 442 l 1,6,-1
 69 508 l 1,7,-1
 462 508 l 1,8,-1
 462 0 l 1,9,-1
 374 0 l 1,0,-1
EndSplineSet
EndChar

StartChar: integral
Encoding: 271 8747 155
Width: 303
Flags: W
LayerCount: 2
Fore
SplineSet
281 611 m 1,0,1
 257 630 257 630 233 630 c 0,2,3
 196 630 196 630 177 599 c 0,4,5
 161 573 161 573 161 534 c 0,6,7
 161 473 161 473 213.5 305.5 c 128,-1,8
 266 138 266 138 266 53 c 0,9,10
 266 -140 266 -140 103 -140 c 0,11,12
 81 -140 81 -140 21 -121 c 1,13,-1
 40 -39 l 1,14,15
 86 -64 86 -64 119 -58 c 0,16,17
 173 -48 173 -48 173 69 c 0,18,19
 173 123 173 123 120 287 c 128,-1,20
 67 451 67 451 67 535 c 0,21,22
 67 713 67 713 234 713 c 0,23,24
 271 713 271 713 319 687 c 1,25,-1
 281 611 l 1,0,1
EndSplineSet
EndChar

StartChar: Omega
Encoding: 272 937 156
AltUni2: 002126.ffffffff.0
Width: 646
Flags: W
LayerCount: 2
Fore
SplineSet
405 130 m 1,0,-1
 405 65 l 1,1,-1
 563 65 l 1,2,-1
 563 0 l 1,3,-1
 357 0 l 1,4,-1
 357 176 l 1,5,6
 418 176 418 176 463 239 c 0,7,8
 502 294 502 294 502 349 c 0,9,10
 502 451 502 451 462 511 c 0,11,12
 415 581 415 581 318 581 c 256,13,14
 221 581 221 581 169 512 c 0,15,16
 124 450 124 450 124 349 c 0,17,18
 124 290 124 290 157 239 c 0,19,20
 198 176 198 176 269 176 c 1,21,-1
 269 0 l 1,22,-1
 62 0 l 1,23,-1
 62 65 l 1,24,-1
 217 65 l 1,25,-1
 217 129 l 1,26,27
 144 140 144 140 91 213 c 0,28,29
 40 283 40 283 40 359 c 0,30,31
 40 495 40 495 111.5 566 c 128,-1,32
 183 637 183 637 319 637 c 0,33,34
 586 637 586 637 586 359 c 0,35,36
 586 284 586 284 533 213 c 0,37,38
 478 138 478 138 405 130 c 1,0,-1
EndSplineSet
EndChar

StartChar: ae
Encoding: 230 230 157
Width: 775
Flags: W
LayerCount: 2
Fore
SplineSet
658 332 m 2,0,1
 658 441 658 441 550 441 c 0,2,3
 477 441 477 441 446 405 c 0,4,5
 423 378 423 378 404 300 c 1,6,-1
 658 300 l 1,7,-1
 658 332 l 2,0,1
331 37 m 2,8,9
 314 25 314 25 279 4 c 0,10,11
 235 -16 235 -16 179 -16 c 0,12,13
 116 -16 116 -16 78.5 24 c 128,-1,14
 41 64 41 64 41 127 c 0,15,16
 41 208 41 208 90 244 c 0,17,18
 121 267 121 267 211 288 c 0,19,20
 267 301 267 301 319 306 c 1,21,-1
 319 366 l 2,22,23
 319 399 319 399 293.5 420 c 128,-1,24
 268 441 268 441 234 441 c 0,25,26
 179 441 179 441 101 377 c 1,27,-1
 60 433 l 1,28,29
 89 459 89 459 142 485 c 0,30,31
 200 512 200 512 234 512 c 0,32,33
 337 512 337 512 380 429 c 1,34,35
 445 507 445 507 558 507 c 0,36,37
 638 507 638 507 690 441 c 0,38,39
 737 381 737 381 737 298 c 2,40,-1
 737 237 l 1,41,-1
 397 237 l 1,42,43
 397 172 397 172 422 125 c 0,44,45
 439 92 439 92 482 73 c 0,46,47
 520 56 520 56 561 56 c 0,48,49
 590 56 590 56 631 78 c 0,50,51
 666 96 666 96 692 120 c 1,52,-1
 732 64 l 1,53,54
 650 -12 650 -12 553 -12 c 0,55,56
 428 -12 428 -12 370 73 c 1,57,-1
 331 37 l 2,8,9
319 233 m 1,58,59
 296 233 296 233 235 221 c 0,60,61
 171 208 171 208 154 199 c 0,62,63
 113 177 113 177 113 126 c 0,64,65
 113 47 113 47 190 47 c 0,66,67
 229 47 229 47 270 68 c 0,68,69
 319 93 319 93 319 132 c 2,70,-1
 319 233 l 1,58,59
EndSplineSet
EndChar

StartChar: oslash
Encoding: 248 248 158
Width: 546
Flags: W
LayerCount: 2
Fore
SplineSet
177 92 m 1,0,-1
 284 445 l 1,1,-1
 281 445 l 2,2,3
 202 445 202 445 160 383 c 0,4,5
 125 329 125 329 125 246 c 0,6,7
 125 145 125 145 177 92 c 1,0,-1
361 416 m 1,8,-1
 251 55 l 1,9,10
 257 54 257 54 271 54 c 0,11,12
 348 54 348 54 387 117 c 0,13,14
 421 170 421 170 421 251 c 0,15,16
 421 366 421 366 361 416 c 1,8,-1
325 578 m 1,17,-1
 403 554 l 1,18,-1
 382 486 l 1,19,20
 507 420 507 420 507 252 c 0,21,22
 507 162 507 162 461 89 c 0,23,24
 398 -11 398 -11 275 -11 c 0,25,26
 252 -11 252 -11 232 -8 c 1,27,-1
 213 -69 l 1,28,-1
 135 -45 l 1,29,-1
 154 17 l 1,30,31
 96 49 96 49 66 118 c 0,32,33
 39 178 39 178 39 252 c 0,34,35
 39 381 39 381 120 453 c 0,36,37
 186 512 186 512 276 512 c 0,38,39
 286 512 286 512 304 510 c 1,40,-1
 325 578 l 1,17,-1
EndSplineSet
EndChar

StartChar: questiondown
Encoding: 191 191 159
Width: 459
Flags: W
LayerCount: 2
Fore
SplineSet
109 222 m 0,0,1
 204 290 204 290 187 479 c 1,2,-1
 267 479 l 1,3,4
 274 442 274 442 274 402 c 0,5,6
 274 251 274 251 194 182 c 0,7,8
 149 143 149 143 140 133 c 0,9,10
 112 102 112 102 112 69 c 0,11,12
 112 25 112 25 140 -3 c 128,-1,13
 168 -31 168 -31 212 -31 c 0,14,15
 306 -31 306 -31 340 72 c 1,16,-1
 408 38 l 1,17,18
 349 -103 349 -103 216 -103 c 0,19,20
 140 -103 140 -103 87 -54.5 c 128,-1,21
 34 -6 34 -6 34 70 c 0,22,23
 34 169 34 169 109 222 c 0,0,1
226 681 m 0,24,25
 250 681 250 681 266 664.5 c 128,-1,26
 282 648 282 648 282 624 c 256,27,28
 282 600 282 600 266 583 c 128,-1,29
 250 566 250 566 226 566 c 256,30,31
 202 566 202 566 184.5 583 c 128,-1,32
 167 600 167 600 167 624 c 0,33,34
 167 649 167 649 184 665 c 128,-1,35
 201 681 201 681 226 681 c 0,24,25
EndSplineSet
EndChar

StartChar: exclamdown
Encoding: 161 161 160
Width: 235
Flags: W
LayerCount: 2
Fore
SplineSet
68 501 m 1,0,-1
 152 501 l 1,1,-1
 152 -103 l 1,2,-1
 68 -103 l 1,3,-1
 68 501 l 1,0,-1
114 706 m 0,4,5
 139 706 139 706 155.5 690 c 128,-1,6
 172 674 172 674 172 649 c 256,7,8
 172 624 172 624 155.5 607.5 c 128,-1,9
 139 591 139 591 114 591 c 0,10,11
 90 591 90 591 73.5 608 c 128,-1,12
 57 625 57 625 57 649 c 256,13,14
 57 673 57 673 73.5 689.5 c 128,-1,15
 90 706 90 706 114 706 c 0,4,5
EndSplineSet
EndChar

StartChar: logicalnot
Encoding: 172 172 161
Width: 613
Flags: W
LayerCount: 2
Fore
SplineSet
474 28 m 1,0,-1
 474 250 l 1,1,-1
 88 250 l 1,2,-1
 88 343 l 1,3,-1
 558 343 l 1,4,-1
 558 28 l 1,5,-1
 474 28 l 1,0,-1
EndSplineSet
EndChar

StartChar: radical
Encoding: 273 8730 162
Width: 503
Flags: W
LayerCount: 2
Fore
SplineSet
218 -10 m 1,0,-1
 141 -10 l 1,1,-1
 55 297 l 1,2,-1
 130 337 l 1,3,-1
 173 116 l 1,4,-1
 280 639 l 1,5,-1
 359 639 l 1,6,-1
 218 -10 l 1,0,-1
EndSplineSet
EndChar

StartChar: florin
Encoding: 274 402 163
Width: 361
Flags: W
LayerCount: 2
Fore
SplineSet
360 610 m 1,0,1
 312 641 312 641 273 641 c 0,2,3
 199 641 199 641 190 530 c 1,4,-1
 189 526 l 1,5,6
 187 496 187 496 187 489 c 1,7,-1
 324 489 l 1,8,-1
 318 424 l 1,9,-1
 183 424 l 1,10,-1
 131 -122 l 1,11,-1
 53 -123 l 1,12,-1
 104 422 l 1,13,-1
 25 421 l 1,14,-1
 31 487 l 1,15,-1
 109 488 l 1,16,-1
 113 529 l 2,17,18
 121 608 121 608 159 656 c 0,19,20
 203 710 203 710 279 711 c 0,21,22
 323 711 323 711 347 701 c 0,23,24
 353 698 353 698 402 666 c 1,25,-1
 360 610 l 1,0,1
EndSplineSet
EndChar

StartChar: approxequal
Encoding: 275 8776 164
AltUni2: 0022f2.ffffffff.0
Width: 536
Flags: W
LayerCount: 2
Fore
SplineSet
344 282 m 0,0,1
 322 282 322 282 276.5 308 c 128,-1,2
 231 334 231 334 214 334 c 0,3,4
 191 334 191 334 165 317 c 128,-1,5
 139 300 139 300 125 279 c 1,6,-1
 101 342 l 1,7,8
 119 363 119 363 155 380 c 128,-1,9
 191 397 191 397 218 397 c 0,10,11
 248 397 248 397 292.5 373 c 128,-1,12
 337 349 337 349 349 349 c 0,13,14
 383 349 383 349 413 382 c 1,15,-1
 440 320 l 1,16,17
 426 306 426 306 395.5 294 c 128,-1,18
 365 282 365 282 344 282 c 0,0,1
344 82 m 0,19,20
 322 82 322 82 278.5 108 c 128,-1,21
 235 134 235 134 218 134 c 0,22,23
 194 134 194 134 167 117 c 128,-1,24
 140 100 140 100 125 79 c 1,25,-1
 101 142 l 1,26,27
 119 163 119 163 155 180 c 128,-1,28
 191 197 191 197 218 197 c 0,29,30
 248 197 248 197 292.5 173 c 128,-1,31
 337 149 337 149 349 149 c 0,32,33
 383 149 383 149 413 182 c 1,34,-1
 440 120 l 1,35,36
 426 106 426 106 395.5 94 c 128,-1,37
 365 82 365 82 344 82 c 0,19,20
EndSplineSet
EndChar

StartChar: Delta
Encoding: 276 916 165
AltUni2: 002206.ffffffff.0
Width: 689
Flags: W
LayerCount: 2
Fore
SplineSet
85 0 m 1,0,-1
 330 657 l 1,1,-1
 416 657 l 1,2,-1
 642 0 l 1,3,-1
 85 0 l 1,0,-1
373 565 m 1,4,-1
 198 56 l 1,5,-1
 529 56 l 1,6,-1
 373 565 l 1,4,-1
EndSplineSet
EndChar

StartChar: guillemotleft
Encoding: 171 171 166
Width: 390
Flags: W
LayerCount: 2
Fore
SplineSet
240 286 m 1,0,-1
 371 125 l 1,1,-1
 300 122 l 1,2,-1
 147 289 l 1,3,-1
 300 451 l 1,4,-1
 371 448 l 1,5,-1
 240 286 l 1,0,-1
99 286 m 1,6,-1
 229 125 l 1,7,-1
 159 122 l 1,8,-1
 5 289 l 1,9,-1
 159 451 l 1,10,-1
 229 448 l 1,11,-1
 99 286 l 1,6,-1
EndSplineSet
EndChar

StartChar: guillemotright
Encoding: 187 187 167
Width: 393
Flags: W
LayerCount: 2
Fore
SplineSet
215 122 m 1,0,-1
 144 125 l 1,1,-1
 275 286 l 1,2,-1
 144 448 l 1,3,-1
 215 451 l 1,4,-1
 368 289 l 1,5,-1
 215 122 l 1,0,-1
74 122 m 1,6,-1
 2 125 l 1,7,-1
 133 286 l 1,8,-1
 2 448 l 1,9,-1
 74 451 l 1,10,-1
 226 289 l 1,11,-1
 74 122 l 1,6,-1
EndSplineSet
EndChar

StartChar: ellipsis
Encoding: 277 8230 168
Width: 621
Flags: W
LayerCount: 2
Fore
SplineSet
505 -16 m 256,0,1
 475 -16 475 -16 456.5 3.5 c 128,-1,2
 438 23 438 23 438 53 c 0,3,4
 438 84 438 84 456 103 c 128,-1,5
 474 122 474 122 505 122 c 0,6,7
 535 122 535 122 553 103 c 128,-1,8
 571 84 571 84 571 53 c 0,9,10
 571 23 571 23 553 3.5 c 128,-1,11
 535 -16 535 -16 505 -16 c 256,0,1
316 -16 m 256,12,13
 286 -16 286 -16 267.5 3.5 c 128,-1,14
 249 23 249 23 249 53 c 0,15,16
 249 84 249 84 267 103 c 128,-1,17
 285 122 285 122 316 122 c 0,18,19
 346 122 346 122 364 103 c 128,-1,20
 382 84 382 84 382 53 c 0,21,22
 382 23 382 23 364 3.5 c 128,-1,23
 346 -16 346 -16 316 -16 c 256,12,13
127 -16 m 256,24,25
 97 -16 97 -16 78.5 3.5 c 128,-1,26
 60 23 60 23 60 53 c 0,27,28
 60 84 60 84 78 103 c 128,-1,29
 96 122 96 122 127 122 c 0,30,31
 157 122 157 122 175 103 c 128,-1,32
 193 84 193 84 193 53 c 0,33,34
 193 23 193 23 175 3.5 c 128,-1,35
 157 -16 157 -16 127 -16 c 256,24,25
EndSplineSet
EndChar

StartChar: Agrave
Encoding: 192 192 170
Width: 580
Flags: W
LayerCount: 2
Fore
SplineSet
458 -10 m 1,0,-1
 399 179 l 1,1,-1
 174 179 l 1,2,-1
 117 -10 l 1,3,-1
 35 0 l 1,4,-1
 247 654 l 1,5,-1
 328 654 l 1,6,-1
 543 4 l 1,7,-1
 458 -10 l 1,0,-1
287 551 m 1,8,-1
 195 248 l 1,9,-1
 379 248 l 1,10,-1
 287 551 l 1,8,-1
365 686 m 1,11,-1
 156 776 l 1,12,-1
 203 841 l 1,13,-1
 413 745 l 1,14,-1
 365 686 l 1,11,-1
EndSplineSet
EndChar

StartChar: Atilde
Encoding: 195 195 171
Width: 580
Flags: W
LayerCount: 2
Fore
SplineSet
458 -10 m 1,0,-1
 399 179 l 1,1,-1
 174 179 l 1,2,-1
 117 -10 l 1,3,-1
 35 0 l 1,4,-1
 247 654 l 1,5,-1
 328 654 l 1,6,-1
 543 4 l 1,7,-1
 458 -10 l 1,0,-1
287 551 m 1,8,-1
 195 248 l 1,9,-1
 379 248 l 1,10,-1
 287 551 l 1,8,-1
364 669 m 0,11,12
 339 669 339 669 290.5 703.5 c 128,-1,13
 242 738 242 738 229 738 c 0,14,15
 190 738 190 738 159 696 c 1,16,-1
 132 755 l 1,17,18
 146 776 146 776 174.5 790 c 128,-1,19
 203 804 203 804 229 805 c 0,20,21
 254 806 254 806 299.5 771.5 c 128,-1,22
 345 737 345 737 362 737 c 0,23,24
 387 737 387 737 412 762 c 1,25,-1
 438 702 l 1,26,27
 429 691 429 691 403.5 680 c 128,-1,28
 378 669 378 669 364 669 c 0,11,12
EndSplineSet
EndChar

StartChar: Otilde
Encoding: 213 213 172
Width: 648
Flags: W
LayerCount: 2
Fore
SplineSet
324 -16 m 0,0,1
 184 -16 184 -16 107 86 c 0,2,3
 37 177 37 177 37 322 c 0,4,5
 37 458 37 458 115 549 c 0,6,7
 197 646 197 646 331 646 c 0,8,9
 464 646 464 646 544 549 c 0,10,11
 618 458 618 458 618 322 c 0,12,13
 618 177 618 177 545 84 c 0,14,15
 465 -16 465 -16 324 -16 c 0,0,1
329 572 m 0,16,17
 231 572 231 572 172 489 c 0,18,19
 120 415 120 415 120 313 c 0,20,21
 120 215 120 215 172 142 c 0,22,23
 230 61 230 61 324 61 c 0,24,25
 419 61 419 61 480 141 c 0,26,27
 536 215 536 215 536 312 c 0,28,29
 536 413 536 413 484 488 c 0,30,31
 426 572 426 572 329 572 c 0,16,17
385 669 m 0,32,33
 360 669 360 669 311.5 703.5 c 128,-1,34
 263 738 263 738 250 738 c 0,35,36
 211 738 211 738 180 696 c 1,37,-1
 153 755 l 1,38,39
 167 776 167 776 195.5 790 c 128,-1,40
 224 804 224 804 250 805 c 0,41,42
 275 806 275 806 320.5 771.5 c 128,-1,43
 366 737 366 737 383 737 c 0,44,45
 408 737 408 737 433 762 c 1,46,-1
 459 702 l 1,47,48
 450 691 450 691 424.5 680 c 128,-1,49
 399 669 399 669 385 669 c 0,32,33
EndSplineSet
EndChar

StartChar: OE
Encoding: 188 338 173
Width: 1028
Flags: W
LayerCount: 2
Fore
SplineSet
609 0 m 1,0,-1
 609 223 l 1,1,2
 520 -3 520 -3 329 -3 c 0,3,4
 189 -3 189 -3 112 102 c 0,5,6
 42 196 42 196 42 341 c 0,7,8
 42 477 42 477 120 565 c 0,9,10
 201 657 201 657 335 657 c 0,11,12
 521 657 521 657 609 449 c 1,13,-1
 609 649 l 1,14,-1
 964 649 l 1,15,-1
 964 577 l 1,16,-1
 699 577 l 1,17,-1
 699 384 l 1,18,-1
 954 384 l 1,19,-1
 954 309 l 1,20,-1
 696 309 l 1,21,-1
 697 84 l 1,22,-1
 964 84 l 1,23,-1
 964 0 l 1,24,-1
 609 0 l 1,0,-1
334 581 m 0,25,26
 236 581 236 581 178 503 c 0,27,28
 126 432 126 432 126 331 c 0,29,30
 126 233 126 233 177 159 c 0,31,32
 235 75 235 75 329 75 c 256,33,34
 423 75 423 75 484 158 c 0,35,36
 539 234 539 234 539 331 c 0,37,38
 539 432 539 432 488 502 c 0,39,40
 431 581 431 581 334 581 c 0,25,26
EndSplineSet
EndChar

StartChar: oe
Encoding: 189 339 174
Width: 931
Flags: W
LayerCount: 2
Fore
SplineSet
281 445 m 0,0,1
 202 445 202 445 160 383 c 0,2,3
 125 329 125 329 125 246 c 0,4,5
 125 167 125 167 158 116 c 0,6,7
 197 54 197 54 271 54 c 0,8,9
 348 54 348 54 387 117 c 0,10,11
 421 170 421 170 421 251 c 0,12,13
 421 328 421 328 390 381 c 0,14,15
 353 445 353 445 281 445 c 0,0,1
564 257 m 1,16,17
 564 109 564 109 648 71 c 0,18,19
 681 56 681 56 717 56 c 0,20,21
 776 56 776 56 848 120 c 1,22,-1
 888 64 l 1,23,24
 808 -12 808 -12 710 -12 c 0,25,26
 533 -12 533 -12 491 153 c 1,27,28
 436 -11 436 -11 275 -11 c 0,29,30
 140 -11 140 -11 80 90 c 0,31,32
 39 159 39 159 39 252 c 0,33,34
 39 381 39 381 120 453 c 0,35,36
 186 512 186 512 276 512 c 0,37,38
 353 512 353 512 412 467 c 128,-1,39
 471 422 471 422 494 348 c 1,40,41
 518 424 518 424 576 465.5 c 128,-1,42
 634 507 634 507 714 507 c 0,43,44
 796 507 796 507 845 454 c 128,-1,45
 894 401 894 401 894 318 c 2,46,-1
 894 257 l 1,47,-1
 564 257 l 1,16,17
815 332 m 2,48,49
 815 441 815 441 707 441 c 0,50,51
 647 441 647 441 616.5 411.5 c 128,-1,52
 586 382 586 382 571 320 c 1,53,-1
 815 320 l 1,54,-1
 815 332 l 2,48,49
EndSplineSet
EndChar

StartChar: endash
Encoding: 278 8211 175
Width: 500
Flags: W
LayerCount: 2
Fore
SplineSet
34 292 m 1,0,-1
 34 363 l 1,1,-1
 466 363 l 1,2,-1
 466 292 l 1,3,-1
 34 292 l 1,0,-1
EndSplineSet
EndChar

StartChar: emdash
Encoding: 279 8212 176
Width: 1000
Flags: W
LayerCount: 2
Fore
SplineSet
27 292 m 1,0,-1
 27 363 l 1,1,-1
 973 363 l 1,2,-1
 973 292 l 1,3,-1
 27 292 l 1,0,-1
EndSplineSet
EndChar

StartChar: quotedblleft
Encoding: 280 8220 177
Width: 443
Flags: W
LayerCount: 2
Fore
SplineSet
425 708 m 1,0,-1
 381 720 l 1,1,2
 290 601 290 601 289 516 c 1,3,-1
 386 516 l 1,4,5
 386 554 386 554 398 615 c 128,-1,6
 410 676 410 676 425 708 c 1,0,-1
225 708 m 1,7,-1
 181 720 l 1,8,9
 90 601 90 601 89 516 c 1,10,-1
 186 516 l 1,11,12
 186 554 186 554 198 615 c 128,-1,13
 210 676 210 676 225 708 c 1,7,-1
EndSplineSet
EndChar

StartChar: quotedblright
Encoding: 281 8221 178
Width: 443
Flags: W
LayerCount: 2
Fore
SplineSet
31 528 m 1,0,-1
 75 516 l 1,1,2
 166 635 166 635 167 720 c 1,3,-1
 70 720 l 1,4,5
 70 682 70 682 58 622 c 0,6,7
 46 559 46 559 31 528 c 1,0,-1
231 528 m 1,8,-1
 275 516 l 1,9,10
 366 635 366 635 367 720 c 1,11,-1
 270 720 l 1,12,13
 270 682 270 682 258 622 c 0,14,15
 246 559 246 559 231 528 c 1,8,-1
EndSplineSet
EndChar

StartChar: quoteleft
Encoding: 282 8216 179
Width: 213
Flags: W
LayerCount: 2
Fore
SplineSet
186 708 m 1,0,-1
 142 720 l 1,1,2
 51 601 51 601 50 516 c 1,3,-1
 147 516 l 1,4,5
 147 554 147 554 159 615 c 128,-1,6
 171 676 171 676 186 708 c 1,0,-1
EndSplineSet
EndChar

StartChar: quoteright
Encoding: 283 8217 180
Width: 241
Flags: W
LayerCount: 2
Fore
SplineSet
47 528 m 1,0,-1
 91 516 l 1,1,2
 182 635 182 635 183 720 c 1,3,-1
 86 720 l 1,4,5
 86 682 86 682 74 622 c 0,6,7
 62 559 62 559 47 528 c 1,0,-1
EndSplineSet
EndChar

StartChar: divide
Encoding: 247 247 181
Width: 496
Flags: W
LayerCount: 2
Fore
SplineSet
264 397 m 256,0,1
 238 397 238 397 221 416.5 c 128,-1,2
 204 436 204 436 204 463 c 256,3,4
 204 490 204 490 221 509.5 c 128,-1,5
 238 529 238 529 264 529 c 256,6,7
 290 529 290 529 307 509.5 c 128,-1,8
 324 490 324 490 324 463 c 256,9,10
 324 436 324 436 307 416.5 c 128,-1,11
 290 397 290 397 264 397 c 256,0,1
53 275 m 1,12,-1
 53 345 l 1,13,-1
 446 345 l 1,14,-1
 446 275 l 1,15,-1
 53 275 l 1,12,-1
264 93 m 256,16,17
 238 93 238 93 221 112.5 c 128,-1,18
 204 132 204 132 204 159 c 256,19,20
 204 186 204 186 221 205.5 c 128,-1,21
 238 225 238 225 264 225 c 256,22,23
 290 225 290 225 307 205.5 c 128,-1,24
 324 186 324 186 324 159 c 256,25,26
 324 132 324 132 307 112.5 c 128,-1,27
 290 93 290 93 264 93 c 256,16,17
EndSplineSet
EndChar

StartChar: lozenge
Encoding: 284 9674 182
Width: 576
Flags: W
LayerCount: 2
Fore
SplineSet
275 85 m 1,0,-1
 20 333 l 1,1,-1
 275 582 l 1,2,-1
 529 333 l 1,3,-1
 275 85 l 1,0,-1
278 485 m 1,4,-1
 122 332 l 1,5,-1
 278 180 l 1,6,-1
 434 332 l 1,7,-1
 278 485 l 1,4,-1
EndSplineSet
EndChar

StartChar: ydieresis
Encoding: 255 255 183
Width: 467
Flags: W
LayerCount: 2
Fore
SplineSet
254 -84 m 2,0,1
 237 -131 237 -131 191.5 -163.5 c 128,-1,2
 146 -196 146 -196 97 -196 c 0,3,4
 81 -196 81 -196 27 -178 c 1,5,-1
 52 -107 l 1,6,7
 80 -120 80 -120 102 -121 c 0,8,9
 148 -122 148 -122 186 -54 c 0,10,11
 206 -6 206 -6 227 42 c 1,12,-1
 36 478 l 1,13,-1
 112 499 l 1,14,-1
 264 145 l 1,15,-1
 393 498 l 1,16,-1
 463 481 l 1,17,-1
 254 -84 l 2,0,1
343 546 m 256,18,19
 321 546 321 546 307 561 c 128,-1,20
 293 576 293 576 293 598 c 256,21,22
 293 620 293 620 307 635 c 128,-1,23
 321 650 321 650 343 650 c 0,24,25
 364 650 364 650 378.5 634.5 c 128,-1,26
 393 619 393 619 393 598 c 0,27,28
 393 576 393 576 379 561 c 128,-1,29
 365 546 365 546 343 546 c 256,18,19
134 546 m 256,30,31
 112 546 112 546 98 561 c 128,-1,32
 84 576 84 576 84 598 c 256,33,34
 84 620 84 620 98 635 c 128,-1,35
 112 650 112 650 134 650 c 256,36,37
 156 650 156 650 169.5 635 c 128,-1,38
 183 620 183 620 183 598 c 256,39,40
 183 576 183 576 169.5 561 c 128,-1,41
 156 546 156 546 134 546 c 256,30,31
EndSplineSet
EndChar

StartChar: Ydieresis
Encoding: 190 376 184
Width: 482
Flags: W
LayerCount: 2
Fore
SplineSet
301 272 m 1,0,-1
 301 0 l 1,1,-1
 212 0 l 1,2,-1
 212 272 l 1,3,-1
 34 627 l 1,4,-1
 114 650 l 1,5,-1
 259 353 l 1,6,-1
 402 650 l 1,7,-1
 478 627 l 1,8,-1
 301 272 l 1,0,-1
376 696 m 256,9,10
 354 696 354 696 340 711 c 128,-1,11
 326 726 326 726 326 748 c 256,12,13
 326 770 326 770 340 785 c 128,-1,14
 354 800 354 800 376 800 c 0,15,16
 397 800 397 800 411.5 784.5 c 128,-1,17
 426 769 426 769 426 748 c 0,18,19
 426 726 426 726 412 711 c 128,-1,20
 398 696 398 696 376 696 c 256,9,10
166 696 m 256,21,22
 144 696 144 696 130 711 c 128,-1,23
 116 726 116 726 116 748 c 256,24,25
 116 770 116 770 130 785 c 128,-1,26
 144 800 144 800 166 800 c 0,27,28
 187 800 187 800 201.5 784.5 c 128,-1,29
 216 769 216 769 216 748 c 0,30,31
 216 726 216 726 202 711 c 128,-1,32
 188 696 188 696 166 696 c 256,21,22
EndSplineSet
EndChar

StartChar: fraction
Encoding: 285 8260 185
Width: 537
Flags: W
LayerCount: 2
Fore
SplineSet
141 66 m 1,0,-1
 62 116 l 1,1,-1
 433 588 l 1,2,-1
 511 538 l 1,3,-1
 141 66 l 1,0,-1
EndSplineSet
EndChar

StartChar: currency
Encoding: 286 164 186
Width: 489
Flags: W
LayerCount: 2
Fore
SplineSet
404 360 m 1,0,-1
 226 360 l 1,1,-1
 226 315 l 1,2,-1
 404 315 l 1,3,-1
 404 240 l 1,4,-1
 226 240 l 1,5,-1
 226 76 l 1,6,-1
 419 77 l 1,7,-1
 419 0 l 1,8,-1
 137 0 l 1,9,-1
 137 240 l 1,10,-1
 38 240 l 1,11,-1
 37 315 l 1,12,-1
 137 315 l 1,13,-1
 137 361 l 1,14,-1
 38 361 l 1,15,-1
 37 435 l 1,16,-1
 137 435 l 1,17,-1
 137 640 l 1,18,-1
 422 640 l 1,19,-1
 422 568 l 1,20,-1
 226 568 l 1,21,-1
 226 435 l 1,22,-1
 404 435 l 1,23,-1
 404 360 l 1,0,-1
EndSplineSet
EndChar

StartChar: guilsinglleft
Encoding: 287 8249 187
Width: 319
Flags: W
LayerCount: 2
Fore
SplineSet
148 286 m 1,0,-1
 279 125 l 1,1,-1
 208 122 l 1,2,-1
 56 289 l 1,3,-1
 208 451 l 1,4,-1
 279 448 l 1,5,-1
 148 286 l 1,0,-1
EndSplineSet
EndChar

StartChar: guilsinglright
Encoding: 288 8250 188
Width: 317
Flags: W
LayerCount: 2
Fore
SplineSet
118 122 m 1,0,-1
 47 125 l 1,1,-1
 177 286 l 1,2,-1
 47 448 l 1,3,-1
 118 451 l 1,4,-1
 271 289 l 1,5,-1
 118 122 l 1,0,-1
EndSplineSet
EndChar

StartChar: fi
Encoding: 289 61441 189
Width: 484
Flags: W
LayerCount: 2
Fore
SplineSet
351 0 m 1,0,-1
 351 489 l 1,1,-1
 432 489 l 1,2,-1
 432 0 l 1,3,-1
 351 0 l 1,0,-1
336 651 m 1,4,5
 289 681 289 681 250 682 c 0,6,7
 208 683 208 683 187 639 c 0,8,9
 172 605 172 605 172 558 c 2,10,-1
 172 495 l 1,11,-1
 311 495 l 1,12,-1
 311 430 l 1,13,-1
 172 430 l 1,14,-1
 172 0 l 1,15,-1
 96 0 l 1,16,-1
 96 430 l 1,17,-1
 18 430 l 1,18,-1
 18 495 l 1,19,-1
 96 495 l 1,20,-1
 96 561 l 2,21,22
 96 630 96 630 125 680 c 0,23,24
 165 748 165 748 249 748 c 0,25,26
 294 748 294 748 318 739 c 0,27,28
 326 735 326 735 374 705 c 1,29,-1
 336 651 l 1,4,5
EndSplineSet
EndChar

StartChar: fl
Encoding: 290 61442 190
Width: 495
Flags: W
LayerCount: 2
Fore
SplineSet
445 1 m 1,0,-1
 364 1 l 1,1,-1
 364 602 l 1,2,3
 351 616 351 616 322 639 c 1,4,5
 301 651 301 651 250 652 c 0,6,7
 208 653 208 653 187 609 c 0,8,9
 171 575 171 575 172 528 c 0,10,11
 172 507 172 507 173 491 c 1,12,-1
 311 491 l 1,13,-1
 311 425 l 1,14,-1
 175 425 l 1,15,-1
 174 0 l 1,16,-1
 96 0 l 1,17,-1
 97 424 l 1,18,-1
 18 424 l 1,19,-1
 18 490 l 1,20,-1
 97 490 l 1,21,-1
 97 531 l 2,22,23
 97 610 97 610 132 660 c 0,24,25
 172 718 172 718 249 718 c 0,26,27
 287 718 287 718 305 712.5 c 128,-1,28
 323 707 323 707 357 686 c 1,29,-1
 364 698 l 1,30,-1
 445 698 l 1,31,-1
 445 1 l 1,0,-1
EndSplineSet
EndChar

StartChar: daggerdbl
Encoding: 291 8225 191
Width: 221
Flags: W
LayerCount: 2
Fore
SplineSet
183 397 m 1,0,-1
 121 397 l 1,1,-1
 121 245 l 1,2,-1
 84 245 l 1,3,-1
 84 397 l 1,4,-1
 24 397 l 1,5,-1
 24 421 l 1,6,-1
 84 421 l 1,7,-1
 84 549 l 1,8,-1
 24 549 l 1,9,-1
 24 573 l 1,10,-1
 84 573 l 1,11,-1
 84 655 l 1,12,-1
 121 655 l 1,13,-1
 121 573 l 1,14,-1
 183 573 l 1,15,-1
 183 549 l 1,16,-1
 121 549 l 1,17,-1
 121 421 l 1,18,-1
 183 421 l 1,19,-1
 183 397 l 1,0,-1
EndSplineSet
EndChar

StartChar: periodcentered
Encoding: 183 183 192
AltUni2: 002219.ffffffff.0
Width: 236
Flags: W
LayerCount: 2
Fore
SplineSet
128 334 m 0,0,1
 98 334 98 334 79.5 358.5 c 128,-1,2
 61 383 61 383 61 413 c 256,3,4
 61 443 61 443 79.5 467.5 c 128,-1,5
 98 492 98 492 128 492 c 0,6,7
 157 492 157 492 177 467 c 0,8,9
 194 443 194 443 194 413 c 256,10,11
 194 383 194 383 177 359 c 0,12,13
 157 334 157 334 128 334 c 0,0,1
EndSplineSet
EndChar

StartChar: quotesinglbase
Encoding: 292 8218 193
Width: 214
Flags: W
LayerCount: 2
Fore
SplineSet
97 -128 m 1,0,-1
 42 -132 l 1,1,2
 43 -131 43 -131 71 -87 c 0,3,4
 89 -59 89 -59 93 -39 c 1,5,6
 29 -36 29 -36 29 33 c 0,7,8
 29 60 29 60 49.5 81 c 128,-1,9
 70 102 70 102 97 102 c 0,10,11
 123 102 123 102 143.5 80.5 c 128,-1,12
 164 59 164 59 164 33 c 0,13,14
 163 -12 163 -12 144 -53 c 0,15,16
 134 -74 134 -74 97 -128 c 1,0,-1
EndSplineSet
EndChar

StartChar: quotedblbase
Encoding: 293 8222 194
Width: 417
Flags: W
LayerCount: 2
Fore
SplineSet
31 -72 m 1,0,-1
 75 -84 l 1,1,2
 166 35 166 35 167 120 c 1,3,-1
 70 120 l 1,4,5
 70 82 70 82 58 22 c 0,6,7
 46 -41 46 -41 31 -72 c 1,0,-1
231 -72 m 1,8,-1
 275 -84 l 1,9,10
 366 35 366 35 367 120 c 1,11,-1
 270 120 l 1,12,13
 270 82 270 82 258 22 c 0,14,15
 246 -41 246 -41 231 -72 c 1,8,-1
EndSplineSet
EndChar

StartChar: perthousand
Encoding: 294 8240 195
Width: 886
Flags: W
LayerCount: 2
Fore
SplineSet
734 -6 m 256,0,1
 681 -6 681 -6 653 29 c 0,2,3
 626 61 626 61 626 115 c 0,4,5
 626 165 626 165 655.5 199.5 c 128,-1,6
 685 234 685 234 734 234 c 256,7,8
 783 234 783 234 812 199.5 c 128,-1,9
 841 165 841 165 841 115 c 0,10,11
 841 61 841 61 815 29 c 0,12,13
 787 -6 787 -6 734 -6 c 256,0,1
129 410 m 0,14,15
 77 410 77 410 49.5 444 c 128,-1,16
 22 478 22 478 22 531 c 0,17,18
 22 581 22 581 51 615.5 c 128,-1,19
 80 650 80 650 129 650 c 256,20,21
 178 650 178 650 207.5 615.5 c 128,-1,22
 237 581 237 581 237 531 c 0,23,24
 237 477 237 477 210 445 c 0,25,26
 182 410 182 410 129 410 c 0,14,15
457 -6 m 256,27,28
 404 -6 404 -6 376 29 c 0,29,30
 349 61 349 61 349 115 c 0,31,32
 349 165 349 165 378.5 199.5 c 128,-1,33
 408 234 408 234 457 234 c 256,34,35
 506 234 506 234 535 199.5 c 128,-1,36
 564 165 564 165 564 115 c 0,37,38
 564 61 564 61 538 29 c 0,39,40
 510 -6 510 -6 457 -6 c 256,27,28
107 -78 m 1,41,-1
 33 -53 l 1,42,-1
 410 628 l 1,43,-1
 479 602 l 1,44,-1
 107 -78 l 1,41,-1
733 178 m 256,45,46
 711 178 711 178 698 155 c 0,47,48
 688 136 688 136 688 112 c 0,49,50
 688 87 688 87 698 70 c 0,51,52
 711 48 711 48 734 48 c 0,53,54
 756 48 756 48 769 70 c 0,55,56
 780 89 780 89 780 112 c 0,57,58
 780 136 780 136 769 155 c 0,59,60
 755 178 755 178 733 178 c 256,45,46
128 594 m 256,61,62
 106 594 106 594 93 571 c 0,63,64
 83 552 83 552 83 528 c 0,65,66
 83 505 83 505 94 486 c 0,67,68
 107 464 107 464 129 464 c 0,69,70
 175 464 175 464 175 528 c 0,71,72
 175 552 175 552 164 571 c 0,73,74
 150 594 150 594 128 594 c 256,61,62
456 178 m 256,75,76
 434 178 434 178 421 155 c 0,77,78
 411 136 411 136 411 112 c 0,79,80
 411 87 411 87 421 70 c 0,81,82
 434 48 434 48 457 48 c 0,83,84
 479 48 479 48 492 70 c 0,85,86
 503 89 503 89 503 112 c 0,87,88
 503 136 503 136 492 155 c 0,89,90
 478 178 478 178 456 178 c 256,75,76
EndSplineSet
EndChar

StartChar: Acircumflex
Encoding: 194 194 196
Width: 568
Flags: W
LayerCount: 2
Fore
SplineSet
458 -10 m 1,0,-1
 399 179 l 1,1,-1
 174 179 l 1,2,-1
 117 -10 l 1,3,-1
 35 0 l 1,4,-1
 247 654 l 1,5,-1
 328 654 l 1,6,-1
 543 4 l 1,7,-1
 458 -10 l 1,0,-1
287 551 m 1,8,-1
 195 248 l 1,9,-1
 379 248 l 1,10,-1
 287 551 l 1,8,-1
283 749 m 1,11,-1
 146 656 l 1,12,-1
 146 727 l 1,13,-1
 283 840 l 1,14,-1
 425 727 l 1,15,-1
 425 656 l 1,16,-1
 283 749 l 1,11,-1
EndSplineSet
EndChar

StartChar: Ecircumflex
Encoding: 202 202 197
Width: 489
Flags: W
LayerCount: 2
Fore
SplineSet
157 568 m 1,0,-1
 157 375 l 1,1,-1
 409 375 l 1,2,-1
 409 300 l 1,3,-1
 157 301 l 1,4,-1
 157 76 l 1,5,-1
 424 77 l 1,6,-1
 424 0 l 1,7,-1
 68 0 l 1,8,-1
 68 640 l 1,9,-1
 427 640 l 1,10,-1
 427 568 l 1,11,-1
 157 568 l 1,0,-1
252 749 m 1,12,-1
 114 656 l 1,13,-1
 114 727 l 1,14,-1
 252 840 l 1,15,-1
 394 727 l 1,16,-1
 394 656 l 1,17,-1
 252 749 l 1,12,-1
EndSplineSet
EndChar

StartChar: Aacute
Encoding: 193 193 198
Width: 568
Flags: W
LayerCount: 2
Fore
SplineSet
458 -10 m 1,0,-1
 399 179 l 1,1,-1
 174 179 l 1,2,-1
 117 -10 l 1,3,-1
 35 0 l 1,4,-1
 247 654 l 1,5,-1
 328 654 l 1,6,-1
 543 4 l 1,7,-1
 458 -10 l 1,0,-1
287 551 m 1,8,-1
 195 248 l 1,9,-1
 379 248 l 1,10,-1
 287 551 l 1,8,-1
203 687 m 1,11,-1
 156 746 l 1,12,-1
 366 842 l 1,13,-1
 413 777 l 1,14,-1
 203 687 l 1,11,-1
EndSplineSet
EndChar

StartChar: Edieresis
Encoding: 203 203 199
Width: 489
Flags: W
LayerCount: 2
Fore
SplineSet
157 568 m 1,0,-1
 157 375 l 1,1,-1
 409 375 l 1,2,-1
 409 300 l 1,3,-1
 157 301 l 1,4,-1
 157 76 l 1,5,-1
 424 77 l 1,6,-1
 424 0 l 1,7,-1
 68 0 l 1,8,-1
 68 640 l 1,9,-1
 427 640 l 1,10,-1
 427 568 l 1,11,-1
 157 568 l 1,0,-1
365 696 m 256,12,13
 343 696 343 696 329 711 c 128,-1,14
 315 726 315 726 315 748 c 256,15,16
 315 770 315 770 329 785 c 128,-1,17
 343 800 343 800 365 800 c 0,18,19
 386 800 386 800 400.5 784.5 c 128,-1,20
 415 769 415 769 415 748 c 0,21,22
 415 726 415 726 401 711 c 128,-1,23
 387 696 387 696 365 696 c 256,12,13
156 696 m 256,24,25
 134 696 134 696 120 711 c 128,-1,26
 106 726 106 726 106 748 c 256,27,28
 106 770 106 770 120 785 c 128,-1,29
 134 800 134 800 156 800 c 256,30,31
 178 800 178 800 191.5 785 c 128,-1,32
 205 770 205 770 205 748 c 256,33,34
 205 726 205 726 191.5 711 c 128,-1,35
 178 696 178 696 156 696 c 256,24,25
EndSplineSet
EndChar

StartChar: Egrave
Encoding: 200 200 200
Width: 489
Flags: W
LayerCount: 2
Fore
SplineSet
157 568 m 1,0,-1
 157 375 l 1,1,-1
 409 375 l 1,2,-1
 409 300 l 1,3,-1
 157 301 l 1,4,-1
 157 76 l 1,5,-1
 424 77 l 1,6,-1
 424 0 l 1,7,-1
 68 0 l 1,8,-1
 68 640 l 1,9,-1
 427 640 l 1,10,-1
 427 568 l 1,11,-1
 157 568 l 1,0,-1
334 686 m 1,12,-1
 126 776 l 1,13,-1
 172 841 l 1,14,-1
 383 745 l 1,15,-1
 334 686 l 1,12,-1
EndSplineSet
EndChar

StartChar: Iacute
Encoding: 205 205 201
Width: 215
Flags: W
LayerCount: 2
Fore
SplineSet
68 0 m 1,0,-1
 68 642 l 1,1,-1
 157 642 l 1,2,-1
 157 0 l 1,3,-1
 68 0 l 1,0,-1
36 687 m 1,4,-1
 -11 746 l 1,5,-1
 199 842 l 1,6,-1
 246 777 l 1,7,-1
 36 687 l 1,4,-1
EndSplineSet
EndChar

StartChar: Icircumflex
Encoding: 206 206 202
Width: 215
Flags: W
LayerCount: 2
Fore
SplineSet
68 0 m 1,0,-1
 68 642 l 1,1,-1
 157 642 l 1,2,-1
 157 0 l 1,3,-1
 68 0 l 1,0,-1
115 749 m 1,4,-1
 -22 656 l 1,5,-1
 -22 727 l 1,6,-1
 115 840 l 1,7,-1
 257 727 l 1,8,-1
 257 656 l 1,9,-1
 115 749 l 1,4,-1
EndSplineSet
EndChar

StartChar: Idieresis
Encoding: 207 207 203
Width: 215
Flags: W
LayerCount: 2
Fore
SplineSet
68 0 m 1,0,-1
 68 642 l 1,1,-1
 157 642 l 1,2,-1
 157 0 l 1,3,-1
 68 0 l 1,0,-1
218 696 m 256,4,5
 196 696 196 696 182 711 c 128,-1,6
 168 726 168 726 168 748 c 256,7,8
 168 770 168 770 182 785 c 128,-1,9
 196 800 196 800 218 800 c 0,10,11
 239 800 239 800 253.5 784.5 c 128,-1,12
 268 769 268 769 268 748 c 0,13,14
 268 726 268 726 254 711 c 128,-1,15
 240 696 240 696 218 696 c 256,4,5
9 696 m 256,16,17
 -13 696 -13 696 -27 711 c 128,-1,18
 -41 726 -41 726 -41 748 c 256,19,20
 -41 770 -41 770 -27 785 c 128,-1,21
 -13 800 -13 800 9 800 c 256,22,23
 31 800 31 800 44.5 785 c 128,-1,24
 58 770 58 770 58 748 c 256,25,26
 58 726 58 726 44.5 711 c 128,-1,27
 31 696 31 696 9 696 c 256,16,17
EndSplineSet
EndChar

StartChar: Igrave
Encoding: 204 204 204
Width: 215
Flags: W
LayerCount: 2
Fore
SplineSet
68 0 m 1,0,-1
 68 642 l 1,1,-1
 157 642 l 1,2,-1
 157 0 l 1,3,-1
 68 0 l 1,0,-1
198 686 m 1,4,-1
 -11 776 l 1,5,-1
 36 841 l 1,6,-1
 246 745 l 1,7,-1
 198 686 l 1,4,-1
EndSplineSet
EndChar

StartChar: Oacute
Encoding: 211 211 205
Width: 644
Flags: W
LayerCount: 2
Fore
SplineSet
324 -16 m 0,0,1
 184 -16 184 -16 107 86 c 0,2,3
 37 177 37 177 37 322 c 0,4,5
 37 458 37 458 115 549 c 0,6,7
 197 646 197 646 331 646 c 0,8,9
 464 646 464 646 544 549 c 0,10,11
 618 458 618 458 618 322 c 0,12,13
 618 177 618 177 545 84 c 0,14,15
 465 -16 465 -16 324 -16 c 0,0,1
329 572 m 0,16,17
 231 572 231 572 172 489 c 0,18,19
 120 415 120 415 120 313 c 0,20,21
 120 215 120 215 172 142 c 0,22,23
 230 61 230 61 324 61 c 0,24,25
 419 61 419 61 480 141 c 0,26,27
 536 215 536 215 536 312 c 0,28,29
 536 413 536 413 484 488 c 0,30,31
 426 572 426 572 329 572 c 0,16,17
246 687 m 1,32,-1
 199 746 l 1,33,-1
 409 842 l 1,34,-1
 456 777 l 1,35,-1
 246 687 l 1,32,-1
EndSplineSet
EndChar

StartChar: Ocircumflex
Encoding: 212 212 206
Width: 644
Flags: W
LayerCount: 2
Fore
SplineSet
324 -16 m 0,0,1
 184 -16 184 -16 107 86 c 0,2,3
 37 177 37 177 37 322 c 0,4,5
 37 458 37 458 115 549 c 0,6,7
 197 646 197 646 331 646 c 0,8,9
 464 646 464 646 544 549 c 0,10,11
 618 458 618 458 618 322 c 0,12,13
 618 177 618 177 545 84 c 0,14,15
 465 -16 465 -16 324 -16 c 0,0,1
329 572 m 0,16,17
 231 572 231 572 172 489 c 0,18,19
 120 415 120 415 120 313 c 0,20,21
 120 215 120 215 172 142 c 0,22,23
 230 61 230 61 324 61 c 0,24,25
 419 61 419 61 480 141 c 0,26,27
 536 215 536 215 536 312 c 0,28,29
 536 413 536 413 484 488 c 0,30,31
 426 572 426 572 329 572 c 0,16,17
333 759 m 1,32,-1
 195 666 l 1,33,-1
 195 737 l 1,34,-1
 333 850 l 1,35,-1
 475 737 l 1,36,-1
 475 666 l 1,37,-1
 333 759 l 1,32,-1
EndSplineSet
EndChar

StartChar: apple
Encoding: 295 61440 207
Width: 549
Flags: W
LayerCount: 2
Fore
SplineSet
325 573 m 1,0,-1
 325 629 l 1,1,-1
 396 629 l 1,2,-1
 396 696 l 1,3,-1
 455 696 l 1,4,-1
 455 629 l 1,5,-1
 525 629 l 1,6,-1
 525 573 l 1,7,-1
 455 573 l 1,8,-1
 455 505 l 1,9,-1
 396 505 l 1,10,-1
 396 573 l 1,11,-1
 325 573 l 1,0,-1
34 39 m 1,12,-1
 34 95 l 1,13,-1
 105 95 l 1,14,-1
 105 163 l 1,15,-1
 164 163 l 1,16,-1
 164 95 l 1,17,-1
 235 95 l 1,18,-1
 235 39 l 1,19,-1
 164 39 l 1,20,-1
 164 -28 l 1,21,-1
 105 -28 l 1,22,-1
 105 39 l 1,23,-1
 34 39 l 1,12,-1
165 218 m 1,24,-1
 199 218 l 1,25,-1
 199 172 l 1,26,-1
 165 172 l 1,27,-1
 165 218 l 1,24,-1
203 248 m 1,28,-1
 230 248 l 1,29,-1
 230 228 l 1,30,-1
 203 228 l 1,31,-1
 203 248 l 1,28,-1
233 284 m 1,32,-1
 323 284 l 1,33,-1
 323 258 l 1,34,-1
 233 258 l 1,35,-1
 233 284 l 1,32,-1
195 380 m 1,36,-1
 224 380 l 1,37,-1
 224 297 l 1,38,-1
 195 297 l 1,39,-1
 195 380 l 1,36,-1
391 451 m 1,40,-1
 356 451 l 1,41,-1
 356 497 l 1,42,-1
 391 497 l 1,43,-1
 391 451 l 1,40,-1
353 421 m 1,44,-1
 326 421 l 1,45,-1
 326 441 l 1,46,-1
 353 441 l 1,47,-1
 353 421 l 1,44,-1
323 385 m 1,48,-1
 233 385 l 1,49,-1
 233 411 l 1,50,-1
 323 411 l 1,51,-1
 323 385 l 1,48,-1
361 289 m 1,52,-1
 332 289 l 1,53,-1
 332 372 l 1,54,-1
 361 372 l 1,55,-1
 361 289 l 1,52,-1
EndSplineSet
EndChar

StartChar: Ograve
Encoding: 210 210 208
Width: 644
Flags: W
LayerCount: 2
Fore
SplineSet
324 -16 m 0,0,1
 184 -16 184 -16 107 86 c 0,2,3
 37 177 37 177 37 322 c 0,4,5
 37 458 37 458 115 549 c 0,6,7
 197 646 197 646 331 646 c 0,8,9
 464 646 464 646 544 549 c 0,10,11
 618 458 618 458 618 322 c 0,12,13
 618 177 618 177 545 84 c 0,14,15
 465 -16 465 -16 324 -16 c 0,0,1
329 572 m 0,16,17
 231 572 231 572 172 489 c 0,18,19
 120 415 120 415 120 313 c 0,20,21
 120 215 120 215 172 142 c 0,22,23
 230 61 230 61 324 61 c 0,24,25
 419 61 419 61 480 141 c 0,26,27
 536 215 536 215 536 312 c 0,28,29
 536 413 536 413 484 488 c 0,30,31
 426 572 426 572 329 572 c 0,16,17
408 686 m 1,32,-1
 199 776 l 1,33,-1
 246 841 l 1,34,-1
 456 745 l 1,35,-1
 408 686 l 1,32,-1
EndSplineSet
EndChar

StartChar: Uacute
Encoding: 218 218 209
Width: 571
Flags: W
LayerCount: 2
Fore
SplineSet
513 230 m 2,0,1
 513 119 513 119 452 51 c 128,-1,2
 391 -17 391 -17 282 -17 c 0,3,4
 176 -17 176 -17 120 55 c 0,5,6
 68 121 68 121 68 230 c 2,7,-1
 68 640 l 1,8,-1
 157 640 l 1,9,-1
 157 230 l 2,10,11
 157 58 157 58 285 58 c 0,12,13
 356 58 356 58 392 110 c 0,14,15
 423 156 423 156 423 230 c 2,16,-1
 423 640 l 1,17,-1
 513 640 l 1,18,-1
 513 230 l 2,0,1
204 687 m 1,19,-1
 157 746 l 1,20,-1
 367 842 l 1,21,-1
 414 777 l 1,22,-1
 204 687 l 1,19,-1
EndSplineSet
EndChar

StartChar: Ucircumflex
Encoding: 219 219 210
Width: 571
Flags: W
LayerCount: 2
Fore
SplineSet
513 230 m 2,0,1
 513 119 513 119 452 51 c 128,-1,2
 391 -17 391 -17 282 -17 c 0,3,4
 176 -17 176 -17 120 55 c 0,5,6
 68 121 68 121 68 230 c 2,7,-1
 68 640 l 1,8,-1
 157 640 l 1,9,-1
 157 230 l 2,10,11
 157 58 157 58 285 58 c 0,12,13
 356 58 356 58 392 110 c 0,14,15
 423 156 423 156 423 230 c 2,16,-1
 423 640 l 1,17,-1
 513 640 l 1,18,-1
 513 230 l 2,0,1
283 759 m 1,19,-1
 145 666 l 1,20,-1
 145 737 l 1,21,-1
 283 850 l 1,22,-1
 425 737 l 1,23,-1
 425 666 l 1,24,-1
 283 759 l 1,19,-1
EndSplineSet
EndChar

StartChar: Ugrave
Encoding: 217 217 211
Width: 571
Flags: W
LayerCount: 2
Fore
SplineSet
513 230 m 2,0,1
 513 119 513 119 452 51 c 128,-1,2
 391 -17 391 -17 282 -17 c 0,3,4
 176 -17 176 -17 120 55 c 0,5,6
 68 121 68 121 68 230 c 2,7,-1
 68 640 l 1,8,-1
 157 640 l 1,9,-1
 157 230 l 2,10,11
 157 58 157 58 285 58 c 0,12,13
 356 58 356 58 392 110 c 0,14,15
 423 156 423 156 423 230 c 2,16,-1
 423 640 l 1,17,-1
 513 640 l 1,18,-1
 513 230 l 2,0,1
366 686 m 1,19,-1
 157 776 l 1,20,-1
 204 841 l 1,21,-1
 414 745 l 1,22,-1
 366 686 l 1,19,-1
EndSplineSet
EndChar

StartChar: dotlessi
Encoding: 296 305 212
Width: 233
Flags: W
LayerCount: 2
Fore
SplineSet
71 0 m 1,0,-1
 71 495 l 1,1,-1
 152 495 l 1,2,-1
 152 0 l 1,3,-1
 71 0 l 1,0,-1
EndSplineSet
EndChar

StartChar: circumflex
Encoding: 297 710 213
Width: 337
Flags: W
LayerCount: 2
Fore
SplineSet
173 619 m 1,0,-1
 35 526 l 1,1,-1
 35 597 l 1,2,-1
 173 710 l 1,3,-1
 315 597 l 1,4,-1
 315 526 l 1,5,-1
 173 619 l 1,0,-1
EndSplineSet
EndChar

StartChar: tilde
Encoding: 298 732 214
Width: 375
Flags: W
LayerCount: 2
Fore
SplineSet
275 549 m 0,0,1
 249 549 249 549 200.5 583.5 c 128,-1,2
 152 618 152 618 140 618 c 0,3,4
 101 618 101 618 69 576 c 1,5,-1
 43 635 l 1,6,7
 57 656 57 656 85.5 670 c 128,-1,8
 114 684 114 684 140 685 c 0,9,10
 165 686 165 686 210.5 651.5 c 128,-1,11
 256 617 256 617 273 617 c 0,12,13
 296 617 296 617 323 642 c 1,14,-1
 349 582 l 1,15,16
 340 571 340 571 314.5 560 c 128,-1,17
 289 549 289 549 275 549 c 0,0,1
EndSplineSet
EndChar

StartChar: macron
Encoding: 175 175 215
AltUni2: 0002c9.ffffffff.0
Width: 406
Flags: W
LayerCount: 2
Fore
SplineSet
105 594 m 1,0,-1
 105 659 l 1,1,-1
 339 659 l 1,2,-1
 339 594 l 1,3,-1
 105 594 l 1,0,-1
EndSplineSet
EndChar

StartChar: breve
Encoding: 299 728 216
Width: 345
Flags: W
LayerCount: 2
Fore
SplineSet
171 538 m 0,0,1
 121 538 121 538 83.5 566.5 c 128,-1,2
 46 595 46 595 31 643 c 1,3,-1
 80 650 l 1,4,5
 106 587 106 587 170 587 c 0,6,7
 229 587 229 587 255 650 c 1,8,-1
 303 643 l 1,9,10
 290 595 290 595 255 566.5 c 128,-1,11
 220 538 220 538 171 538 c 0,0,1
EndSplineSet
EndChar

StartChar: dotaccent
Encoding: 300 729 217
Width: 237
Flags: W
LayerCount: 2
Fore
SplineSet
128 528 m 256,0,1
 107 528 107 528 91 541.5 c 128,-1,2
 75 555 75 555 75 576 c 256,3,4
 75 597 75 597 90.5 610.5 c 128,-1,5
 106 624 106 624 128 624 c 256,6,7
 150 624 150 624 165.5 610.5 c 128,-1,8
 181 597 181 597 181 576 c 256,9,10
 181 555 181 555 165 541.5 c 128,-1,11
 149 528 149 528 128 528 c 256,0,1
EndSplineSet
EndChar

StartChar: ring
Encoding: 301 730 218
Width: 305
Flags: W
LayerCount: 2
Fore
SplineSet
172 576 m 256,0,1
 133 576 133 576 107 600 c 128,-1,2
 81 624 81 624 81 663 c 0,3,4
 81 701 81 701 107 725 c 128,-1,5
 133 749 133 749 172 749 c 256,6,7
 211 749 211 749 237 725 c 128,-1,8
 263 701 263 701 263 663 c 0,9,10
 263 624 263 624 237 600 c 128,-1,11
 211 576 211 576 172 576 c 256,0,1
172 706 m 256,12,13
 129 706 129 706 129 663 c 0,14,15
 129 619 129 619 172 619 c 256,16,17
 215 619 215 619 215 663 c 0,18,19
 215 706 215 706 172 706 c 256,12,13
EndSplineSet
EndChar

StartChar: cedilla
Encoding: 302 184 219
Width: 205
Flags: W
LayerCount: 2
Fore
SplineSet
101 -219 m 0,0,1
 36 -219 36 -219 15 -171 c 1,2,-1
 51 -137 l 1,3,4
 81 -169 81 -169 102 -169 c 0,5,6
 138 -169 138 -169 138 -135 c 0,7,8
 138 -96 138 -96 104 -96 c 0,9,10
 90 -96 90 -96 69 -111 c 1,11,-1
 23 -90 l 1,12,-1
 28 4 l 1,13,-1
 86 5 l 1,14,-1
 82 -47 l 1,15,16
 91 -43 91 -43 107 -43 c 0,17,18
 146 -43 146 -43 171.5 -68 c 128,-1,19
 197 -93 197 -93 197 -132 c 0,20,21
 197 -172 197 -172 169.5 -195.5 c 128,-1,22
 142 -219 142 -219 101 -219 c 0,0,1
EndSplineSet
EndChar

StartChar: hungarumlaut
Encoding: 303 733 220
Width: 362
Flags: W
LayerCount: 2
Fore
SplineSet
224 561 m 1,0,-1
 161 561 l 1,1,-1
 254 675 l 1,2,-1
 317 675 l 1,3,-1
 224 561 l 1,0,-1
101 561 m 1,4,-1
 38 561 l 1,5,-1
 131 675 l 1,6,-1
 194 675 l 1,7,-1
 101 561 l 1,4,-1
EndSplineSet
EndChar

StartChar: caron
Encoding: 305 711 221
Width: 337
Flags: W
LayerCount: 2
Fore
SplineSet
178 617 m 1,0,-1
 315 710 l 1,1,-1
 315 639 l 1,2,-1
 178 526 l 1,3,-1
 35 639 l 1,4,-1
 35 710 l 1,5,-1
 178 617 l 1,0,-1
EndSplineSet
EndChar

StartChar: Lslash
Encoding: 306 321 222
Width: 501
Flags: W
LayerCount: 2
Fore
SplineSet
6 335 m 1,0,-1
 63 356 l 1,1,-1
 63 641 l 1,2,-1
 152 641 l 1,3,-1
 152 390 l 1,4,-1
 220 415 l 1,5,-1
 220 337 l 1,6,-1
 152 312 l 1,7,-1
 152 72 l 1,8,-1
 438 72 l 1,9,-1
 438 0 l 1,10,-1
 63 0 l 1,11,-1
 63 278 l 1,12,-1
 6 257 l 1,13,-1
 6 335 l 1,0,-1
EndSplineSet
EndChar

StartChar: lslash
Encoding: 307 322 223
Width: 282
Flags: W
LayerCount: 2
Fore
SplineSet
166 362 m 1,0,-1
 167 0 l 1,1,-1
 79 0 l 1,2,-1
 78 317 l 1,3,-1
 15 285 l 1,4,-1
 16 363 l 1,5,-1
 79 395 l 1,6,-1
 79 642 l 1,7,-1
 167 642 l 1,8,-1
 167 440 l 1,9,-1
 243 479 l 1,10,-1
 244 401 l 1,11,-1
 166 362 l 1,0,-1
EndSplineSet
EndChar

StartChar: Zcaron
Encoding: 180 381 226
Width: 544
Flags: W
LayerCount: 2
Fore
SplineSet
166 76 m 1,0,-1
 483 76 l 1,1,-1
 483 0 l 1,2,-1
 76 0 l 1,3,-1
 68 77 l 1,4,-1
 391 574 l 1,5,-1
 85 572 l 1,6,-1
 85 639 l 1,7,-1
 478 639 l 1,8,-1
 486 567 l 1,9,-1
 166 76 l 1,0,-1
329 757 m 1,10,-1
 466 850 l 1,11,-1
 466 779 l 1,12,-1
 329 666 l 1,13,-1
 186 779 l 1,14,-1
 186 850 l 1,15,-1
 329 757 l 1,10,-1
EndSplineSet
EndChar

StartChar: zcaron
Encoding: 184 382 227
Width: 482
Flags: W
LayerCount: 2
Fore
SplineSet
58 0 m 1,0,-1
 58 66 l 1,1,-1
 287 369 l 2,2,3
 303 390 303 390 337 430 c 1,4,-1
 68 430 l 1,5,-1
 68 494 l 1,6,-1
 430 494 l 1,7,-1
 430 424 l 1,8,-1
 210 125 l 2,9,10
 199 110 199 110 165 70 c 1,11,-1
 444 70 l 1,12,-1
 444 0 l 1,13,-1
 58 0 l 1,0,-1
307 617 m 1,14,-1
 444 710 l 1,15,-1
 444 639 l 1,16,-1
 307 526 l 1,17,-1
 164 639 l 1,18,-1
 164 710 l 1,19,-1
 307 617 l 1,14,-1
EndSplineSet
EndChar

StartChar: brokenbar
Encoding: 308 166 228
Width: 182
Flags: W
LayerCount: 2
Fore
SplineSet
54 -18 m 1,0,-1
 54 256 l 1,1,-1
 131 256 l 1,2,-1
 131 -18 l 1,3,-1
 54 -18 l 1,0,-1
54 382 m 1,4,-1
 54 656 l 1,5,-1
 131 656 l 1,6,-1
 131 382 l 1,7,-1
 54 382 l 1,4,-1
EndSplineSet
EndChar

StartChar: Eth
Encoding: 208 208 229
Width: 565
Flags: W
LayerCount: 2
Fore
SplineSet
152 335 m 1,0,-1
 220 335 l 1,1,-1
 220 267 l 1,2,-1
 152 267 l 1,3,-1
 152 74 l 1,4,-1
 242 74 l 2,5,6
 337 74 337 74 390 148 c 0,7,8
 438 214 438 214 438 312 c 0,9,10
 438 583 438 583 235 583 c 0,11,12
 206 583 206 583 152 581 c 1,13,-1
 152 335 l 1,0,-1
6 335 m 1,14,-1
 63 335 l 1,15,-1
 63 644 l 1,16,17
 132 647 132 647 209 647 c 0,18,19
 378 647 378 647 455 570 c 128,-1,20
 532 493 532 493 533 323 c 0,21,22
 534 167 534 167 452.5 82.5 c 128,-1,23
 371 -2 371 -2 215 -2 c 0,24,25
 190 -2 190 -2 139 0 c 128,-1,26
 88 2 88 2 63 2 c 1,27,-1
 63 267 l 1,28,-1
 6 267 l 1,29,-1
 6 335 l 1,14,-1
EndSplineSet
EndChar

StartChar: eth
Encoding: 240 240 230
Width: 563
Flags: W
LayerCount: 2
Fore
SplineSet
428 358 m 1,0,1
 370 440 370 440 277 440 c 0,2,3
 199 440 199 440 158 385 c 0,4,5
 121 336 121 336 120 256 c 0,6,7
 119 181 119 181 155 126 c 0,8,9
 195 62 195 62 267 62 c 0,10,11
 350 62 350 62 395 122 c 0,12,13
 436 177 436 177 436 262 c 0,14,15
 436 314 436 314 428 358 c 1,0,1
212 613 m 1,16,-1
 306 613 l 1,17,18
 261 667 261 667 238 686 c 1,19,-1
 305 731 l 1,20,21
 357 681 357 681 404 613 c 1,22,-1
 540 613 l 1,23,-1
 539 544 l 1,24,-1
 445 544 l 1,25,26
 520 407 520 407 519 306 c 0,27,28
 517 162 517 162 461 80 c 0,29,30
 394 -17 394 -17 257 -17 c 0,31,32
 155 -17 155 -17 91 64 c 0,33,34
 32 138 32 138 32 243 c 0,35,36
 32 365 32 365 95.5 436.5 c 128,-1,37
 159 508 159 508 278 508 c 0,38,39
 355 508 355 508 398 464 c 1,40,41
 388 493 388 493 355 544 c 1,42,-1
 212 544 l 1,43,-1
 212 613 l 1,16,-1
EndSplineSet
EndChar

StartChar: Yacute
Encoding: 221 221 231
Width: 503
Flags: W
LayerCount: 2
Fore
SplineSet
301 272 m 1,0,-1
 301 0 l 1,1,-1
 212 0 l 1,2,-1
 212 272 l 1,3,-1
 34 627 l 1,4,-1
 114 650 l 1,5,-1
 259 353 l 1,6,-1
 402 650 l 1,7,-1
 478 627 l 1,8,-1
 301 272 l 1,0,-1
193 627 m 1,9,-1
 147 686 l 1,10,-1
 357 782 l 1,11,-1
 404 717 l 1,12,-1
 193 627 l 1,9,-1
EndSplineSet
EndChar

StartChar: Thorn
Encoding: 222 222 232
Width: 543
Flags: W
LayerCount: 2
Fore
SplineSet
279 145 m 0,0,1
 209 145 209 145 144 189 c 1,2,-1
 144 -108 l 1,3,-1
 60 -108 l 1,4,-1
 60 700 l 1,5,-1
 144 700 l 1,6,-1
 144 603 l 1,7,8
 192 676 192 676 277 676 c 0,9,10
 380 676 380 676 440 593 c 0,11,12
 493 519 493 519 494 412 c 0,13,14
 495 294 495 294 447 225 c 0,15,16
 391 145 391 145 279 145 c 0,0,1
258 599 m 0,17,18
 179 599 179 599 144 525 c 1,19,-1
 144 273 l 1,20,21
 182 213 182 213 274 213 c 0,22,23
 346 213 346 213 380 274 c 0,24,25
 408 323 408 323 408 400 c 0,26,27
 408 481 408 481 375 535 c 0,28,29
 335 599 335 599 258 599 c 0,17,18
EndSplineSet
EndChar

StartChar: thorn
Encoding: 254 254 233
Width: 522
Flags: W
LayerCount: 2
Fore
SplineSet
272 -10 m 0,0,1
 232 -10 232 -10 206 3 c 2,2,-1
 146 41 l 1,3,-1
 146 -195 l 1,4,-1
 60 -195 l 1,5,-1
 60 685 l 1,6,-1
 143 685 l 1,7,-1
 143 419 l 1,8,9
 197 500 197 500 291 500 c 0,10,11
 389 500 389 500 443 429 c 0,12,13
 492 365 492 365 493 264 c 0,14,15
 494 142 494 142 445 71 c 0,16,17
 388 -10 388 -10 272 -10 c 0,0,1
277 430 m 0,18,19
 236 430 236 430 200 404.5 c 128,-1,20
 164 379 164 379 146 341 c 1,21,-1
 147 97 l 1,22,23
 162 77 162 77 205 66 c 0,24,25
 240 56 240 56 272 56 c 0,26,27
 343 56 343 56 379 123 c 0,28,29
 407 176 407 176 407 253 c 0,30,31
 407 327 407 327 380 373 c 0,32,33
 346 430 346 430 277 430 c 0,18,19
EndSplineSet
EndChar

StartChar: minus
Encoding: 173 173 234
AltUni2: 002212.ffffffff.0
Width: 498
Flags: W
LayerCount: 2
Fore
SplineSet
52 285 m 1,0,-1
 52 348 l 1,1,-1
 446 348 l 1,2,-1
 446 285 l 1,3,-1
 52 285 l 1,0,-1
EndSplineSet
EndChar

